<?xml version="1.0" encoding="UTF-8"?>
<svg width="18px" height="18px" viewBox="0 0 18 18" version="1.1" xmlns="http://www.w3.org/2000/svg" xmlns:xlink="http://www.w3.org/1999/xlink">
    <!-- Generator: Sketch 43.1 (39012) - http://www.bohemiancoding.com/sketch -->
    <title>Combined Shape</title>
    <desc>Created with Sketch.</desc>
    <defs></defs>
    <g id="Page-1" stroke="none" stroke-width="1" fill="none" fill-rule="evenodd">
        <g id="1查询检索-01默认页面" transform="translate(-1109.000000, -16.000000)" fill="#9FCBF1">
            <g id="Group-4" transform="translate(1109.000000, 16.000000)">
                <path d="M9,0 C4.0359375,0 0,4.021875 0,9 C0,13.9640625 4.021875,18 9,18 C13.9640625,18 18,13.978125 18,9 C18,4.0359375 13.978125,0 9,0 L9,0 Z M14.203125,14.1890625 C12.8109375,15.58125 10.96875,16.340625 9.0140625,16.340625 C7.0453125,16.340625 5.203125,15.58125 3.825,14.1890625 C2.41875,12.8109375 1.659375,10.96875 1.659375,9 C1.659375,7.03125 2.41875,5.1890625 3.8109375,3.8109375 C5.203125,2.41875 7.0453125,1.659375 9,1.659375 C10.96875,1.659375 12.8109375,2.41875 14.1890625,3.8109375 C15.58125,5.203125 16.340625,7.0453125 16.340625,9 C16.340625,10.9546875 15.58125,12.8109375 14.203125,14.1890625 L14.203125,14.1890625 Z M9,13.5703125 C8.49375,13.5703125 8.071875,13.1484375 8.071875,12.6140625 C8.071875,12.09375 8.49375,11.6578125 9,11.6578125 C9.50625,11.6578125 9.928125,12.0796875 9.928125,12.6140625 C9.928125,13.1484375 9.5203125,13.5703125 9,13.5703125 L9,13.5703125 Z M11.5875,7.5796875 C11.4609375,7.8328125 11.30625,8.04375 11.1375,8.2125 C10.9546875,8.3953125 10.6453125,8.690625 10.1953125,9.1125 C10.06875,9.225 9.9703125,9.3375 9.8859375,9.421875 C9.815625,9.50625 9.759375,9.590625 9.7171875,9.675 C9.675,9.7453125 9.646875,9.8296875 9.6328125,9.9 C9.61875,9.9703125 9.5765625,10.1109375 9.534375,10.29375 C9.4640625,10.6875 9.2390625,10.8984375 8.8734375,10.8984375 C8.6765625,10.8984375 8.521875,10.828125 8.38125,10.7015625 C8.2546875,10.575 8.184375,10.378125 8.184375,10.125 C8.184375,9.8015625 8.2265625,9.5203125 8.325,9.28125 C8.4234375,9.0421875 8.55,8.83125 8.7046875,8.6625 C8.859375,8.4796875 9.084375,8.26875 9.3515625,8.0296875 C9.590625,7.81875 9.759375,7.65 9.871875,7.5375 C9.984375,7.425 10.06875,7.3125 10.1390625,7.171875 C10.209375,7.03125 10.2515625,6.890625 10.2515625,6.7359375 C10.2515625,6.4265625 10.1390625,6.1734375 9.9140625,5.9625 C9.6890625,5.7515625 9.4078125,5.6390625 9.05625,5.6390625 C8.6484375,5.6390625 8.353125,5.7515625 8.15625,5.9625 C7.959375,6.1734375 7.8046875,6.4828125 7.6640625,6.9046875 C7.5375,7.340625 7.2984375,7.5515625 6.946875,7.5515625 C6.7359375,7.5515625 6.5671875,7.48125 6.4265625,7.3265625 C6.2859375,7.171875 6.215625,7.003125 6.215625,6.834375 C6.215625,6.46875 6.328125,6.103125 6.553125,5.7234375 C6.778125,5.34375 7.115625,5.034375 7.5375,4.7953125 C7.9734375,4.5421875 8.4796875,4.4296875 9.05625,4.4296875 C9.590625,4.4296875 10.06875,4.528125 10.4765625,4.7390625 C10.884375,4.95 11.2078125,5.23125 11.4328125,5.5828125 C11.6578125,5.934375 11.7703125,6.328125 11.7703125,6.7359375 C11.784375,7.0453125 11.728125,7.340625 11.5875,7.5796875 L11.5875,7.5796875 Z" id="Combined-Shape"></path>
            </g>
        </g>
    </g>
</svg>