<?xml version="1.0" encoding="UTF-8"?>
<svg width="24px" height="24px" viewBox="0 0 24 24" version="1.1" xmlns="http://www.w3.org/2000/svg" xmlns:xlink="http://www.w3.org/1999/xlink">
    <title>DM</title>
    <g id="页面-1" stroke="none" stroke-width="1" fill="none" fill-rule="evenodd">
        <g id="小号图标" transform="translate(-855.000000, -843.000000)">
            <g id="DM" transform="translate(855.000000, 843.000000)">
                <g id="编组-2" transform="translate(12.000000, 12.456053) scale(1, -1) translate(-12.000000, -12.456053) translate(1.000000, 4.000000)" fill-rule="nonzero">
                    <path d="M13.7204321,16.7335561 C12.0559056,16.4244298 11.865674,16.3412035 11.7230003,15.8656245 C11.2949792,14.4507769 11.2712002,12.7386925 11.639774,11.8350924 C12.1748003,10.5510291 12.7217162,10.1705659 14.5526954,9.80199219 C17.0138167,9.30263424 17.9411957,8.36336571 18.3097695,5.99736018 L18.3929958,5.48611275 L18.74968,5.81901805 C19.2133696,6.25892863 20.2358644,7.54299193 20.699554,8.29202886 C22.4235278,11.0147186 22.4354173,13.8800821 20.7233329,15.4257139 C19.3203748,16.6859982 16.4550114,17.2210246 13.7204321,16.7335561 Z" id="路径" fill="#422E6D"></path>
                    <path d="M9.78501585,15.5327192 C9.01219998,15.1879244 9.01219998,15.1879244 8.89330522,13.4282821 C8.70307362,10.6818133 9.63045268,9.55231322 12.567153,8.96972894 C13.9344426,8.69627101 14.5289164,8.35147624 15.0401638,7.54299193 C15.5751902,6.71072868 15.7892008,5.842797 15.7892008,4.53495474 L15.8010902,3.38167566 L16.5144587,3.89292309 L17.2278272,4.40417052 L17.2634957,5.26021272 C17.3110536,6.44916023 17.0613746,7.23386558 16.395564,7.97101303 C15.7535323,8.68438154 14.945048,9.11240264 13.744211,9.36208162 C13.268632,9.45719742 12.7573846,9.59987112 12.6147109,9.67120797 C11.1285265,10.4559133 10.3794896,12.2155556 10.5578317,14.4864454 C10.5935002,15.0214717 10.664837,15.5446086 10.7005054,15.6516139 C10.7956212,15.9131824 10.5816107,15.8775139 9.78501585,15.5327192 Z" id="路径" fill="#D73A29"></path>
                    <path d="M7.89458932,14.6172296 C7.41901032,14.3675506 6.89587342,14.0108664 6.80075762,13.8800821 C6.63430496,13.6541821 6.69375234,11.1573923 6.89587342,10.5034712 C7.27633662,9.19562896 8.32261042,8.50603941 10.5340528,8.06612883 C12.0202372,7.76889196 12.3531425,7.60243931 12.816832,6.94851818 C13.4113057,6.09247598 13.518311,5.56933907 13.5302005,3.75024939 L13.54209,2.07383341 L13.9463321,2.24028606 C14.1722321,2.33540186 14.5408059,2.54941241 14.7667059,2.72775454 L15.1828375,3.03688089 L15.1115007,4.41605999 C15.0401638,6.06869703 14.7785954,6.90096028 14.1127848,7.54299193 C13.5658689,8.07801831 13.1140689,8.28013939 11.7230003,8.57737626 C9.2856579,9.11240264 8.286942,10.1824554 8.21560515,12.3463399 C8.20371567,12.7981399 8.2393841,13.5233979 8.286942,13.9751979 C8.34638937,14.4151085 8.34638937,14.7717928 8.286942,14.7717928 C8.2393841,14.7717928 8.06104197,14.7004559 7.89458932,14.6172296 Z" id="路径" fill="#D73A29"></path>
                    <path d="M5.50480483,13.0834873 C4.33963628,12.2512241 4.3277468,12.2274451 4.3277468,11.074166 C4.3277468,9.73065534 4.6130942,8.91028156 5.29079428,8.29202886 C5.92093646,7.72133406 6.51541021,7.48354456 8.20371567,7.10308136 C9.7612369,6.75828658 10.0703633,6.62750235 10.5221633,6.1281444 C11.1285265,5.48611275 11.2593108,5.05809165 11.3187581,3.65513359 C11.3425371,2.94176509 11.3187581,2.06194393 11.2474213,1.70525968 L11.1285265,1.0751175 L11.4495424,1.13456488 C11.615995,1.1702333 12.0202372,1.312907 12.341253,1.4555807 L12.9119478,1.71714916 L12.8643899,3.51245989 C12.8049425,5.56933907 12.6503793,6.11625493 11.9013424,6.77017605 C11.4971003,7.12686031 10.189258,7.63810773 9.67801058,7.63810773 C9.24998948,7.63810773 7.98970512,8.10179726 7.51412612,8.42281309 C6.93154184,8.83894471 6.44407336,9.51664479 6.17061544,10.348908 C6.01605226,10.848266 5.98038384,11.2643976 6.01605226,12.2274451 C6.03983121,12.9051452 6.05172069,13.4639505 6.05172069,13.4639505 C6.03983121,13.4639505 5.80204171,13.2974979 5.50480483,13.0834873 Z" id="路径" fill="#D73A29"></path>
                    <path d="M2.6632203,10.5272502 C-0.225922142,7.37653928 -0.85606432,3.41734409 1.22459381,1.53880703 C2.16386234,0.694654301 3.38847827,0.219075299 5.11245216,0.0407331728 C6.75319971,-0.125719478 9.5234474,0.242854249 9.96335798,0.694654301 C10.1179212,0.837328001 10.415158,2.21650711 10.5697212,3.45301251 C10.688616,4.40417052 10.4627159,5.16509692 9.9039106,5.67634435 C9.3332158,6.18759178 9.17865263,6.24703915 7.56168402,6.62750235 C4.77954686,7.29331296 3.74516253,8.19691306 3.49548355,10.2181238 C3.4241467,10.7174818 3.35280985,11.1455029 3.3290309,11.1692818 C3.30525195,11.1930608 3.00801507,10.9077134 2.6632203,10.5272502 Z" id="路径" fill="#422E6D"></path>
                </g>
                <rect id="矩形备份-26" x="0" y="0" width="24" height="24"></rect>
            </g>
        </g>
    </g>
</svg>