<?xml version="1.0" encoding="UTF-8"?>
<svg width="24px" height="24px" viewBox="0 0 24 24" version="1.1" xmlns="http://www.w3.org/2000/svg" xmlns:xlink="http://www.w3.org/1999/xlink">
    <title>编组 18</title>
    <g id="页面-1" stroke="none" stroke-width="1" fill="none" fill-rule="evenodd">
        <g id="画板" transform="translate(-433.000000, -59.000000)">
            <g id="Group-10备份-26" transform="translate(417.000000, 43.000000)">
                <g id="编组-18" transform="translate(16.000000, 16.000000)">
                    <circle id="椭圆形" fill="#00CEB8" cx="12" cy="12" r="12"></circle>
                    <g id="文件采集项" transform="translate(5.250000, 5.250000)" fill="#FFFFFF" fill-rule="nonzero">
                        <path d="M9.7065,5.913 C11.8015922,5.913 13.5,7.6114078 13.5,9.7065 C13.5,11.8015922 11.8015922,13.5 9.7065,13.5 C8.35121297,13.5 7.0988761,12.776963 6.42123258,11.60325 C5.74358906,10.429537 5.74358906,8.98346298 6.42123258,7.80974998 C7.0988761,6.63603699 8.35121297,5.913 9.7065,5.913 Z M9.71589661,6.89822388 C8.16247425,6.89822388 6.90339661,8.15730152 6.90339661,9.71072388 C6.90339661,11.2641462 8.16247425,12.5232239 9.71589661,12.5232239 C11.269319,12.5232239 12.5283966,11.2641462 12.5283966,9.71072388 C12.5283966,8.15730152 11.269319,6.89822388 9.71589661,6.89822388 Z M5.14729687,0 C5.774625,0 6.29310937,0.497390625 6.35765625,1.10826562 L6.35765625,1.10826562 L6.35765625,1.57739063 C6.35765625,1.64426023 6.41186477,1.69846875 6.47873437,1.69846875 L6.47873437,1.69846875 L11.0898281,1.69846875 C11.930788,1.69939876 12.6122887,2.38089949 12.6132187,3.22185937 L12.6132187,3.22185937 L12.6132187,6.32685937 C12.3638906,6.112125 11.9028625,5.61552429 11.5134104,5.61552429 L11.5134104,5.61552429 L11.5138323,4.85894531 L11.530742,3.60935156 C11.530742,3.14191406 11.1042264,2.71539844 10.6367889,2.71539844 L10.6367889,2.71539844 L5.99739075,2.77846875 L5.952672,2.76454688 C5.72528137,2.6915625 5.59028137,2.54053125 5.50295325,2.31989063 C5.50295325,2.31989063 5.449797,1.98492188 5.45443762,1.95075 L5.45443762,1.95075 L5.45443762,1.71323438 C5.45443762,1.41454688 5.16503137,1.09434375 4.86676575,1.09434375 L4.86676575,1.09434375 L1.73998938,1.10826563 C1.44130188,1.10826563 1.10591125,1.42846875 1.10591125,1.72715625 L1.10591125,1.72715625 L1.13316174,9.47955579 C1.13316174,9.94699329 1.60186487,10.3271027 2.06930237,10.3271027 L2.06930237,10.3271027 L5.35089111,10.3271027 C5.4068282,10.621875 5.46860878,11.1312601 5.58267187,11.4087656 L5.58267187,11.4087656 L1.5541875,11.4087656 C0.714234375,11.4087656 0,10.7253281 0,9.885375 L0,9.885375 L0.005484375,1.2166875 C0.005484375,0.54590625 0.597796875,0 1.269,0 L1.269,0 Z M9.4010625,8.15653125 C9.54542065,8.01503196 9.77645435,8.01503196 9.9208125,8.15653125 C9.99009891,8.22499898 10.0287482,8.31857889 10.0279687,8.41598438 L10.0279687,8.41598438 L10.0279687,10.1465156 L10.8945,9.3774375 C11.0414727,9.24681048 11.2640951,9.25084815 11.4062344,9.38671875 C11.4757259,9.45504852 11.5144127,9.54871941 11.5134104,9.64617188 C11.5140337,9.74206659 11.476904,9.83436058 11.4100313,9.90309375 L11.4100313,9.90309375 L9.91448438,11.262375 C9.84647628,11.3275928 9.75557812,11.3634976 9.66135937,11.3623856 L9.66135937,11.3623856 L9.56728125,11.350125 C9.5056875,11.3345156 9.44915625,11.3032969 9.40232813,11.2568906 L9.40232813,11.2568906 L8.008875,9.90857813 C7.93673438,9.83685938 7.89959342,9.74657813 7.89959342,9.64617188 C7.89870622,9.54931794 7.93616818,9.45604223 8.0038125,9.38671875 C8.15006442,9.24511632 8.38240764,9.24549016 8.52820312,9.3875625 L8.52820312,9.3875625 L9.29390625,10.1224688 L9.29390625,8.41598438 C9.29288415,8.31853191 9.33157099,8.22486102 9.4010625,8.15653125 Z" id="形状结合"></path>
                    </g>
                </g>
            </g>
        </g>
    </g>
</svg>