<?xml version="1.0" encoding="UTF-8"?>
<svg width="24px" height="24px" viewBox="0 0 24 24" version="1.1" xmlns="http://www.w3.org/2000/svg" xmlns:xlink="http://www.w3.org/1999/xlink">
    <title>http</title>
    <g id="页面-1" stroke="none" stroke-width="1" fill="none" fill-rule="evenodd">
        <g id="画板" transform="translate(-316.000000, -59.000000)">
            <g id="编组-4备份" transform="translate(300.000000, 43.000000)">
                <g id="http" transform="translate(16.000000, 16.000000)">
                    <rect id="矩形备份-6" x="0" y="0" width="24" height="24"></rect>
                    <g id="编组-18">
                        <circle id="椭圆形" fill="#8C61FF" cx="12" cy="12" r="12"></circle>
                        <g id="http业务" transform="translate(5.250000, 6.000000)" fill="#FFFFFF" fill-rule="nonzero">
                            <path d="M13.5,2.81249453 L0,2.81249453 L0,1.31250182 C0,0.587672692 0.587607061,0 1.31250182,0 L12.1874982,0 C12.9123929,0 13.5,0.587672692 13.5,1.31250182 L13.5,2.81249453 L13.5,2.81249453 Z M13.5,3.65630195 L13.5,11.0625529 C13.5,11.787382 12.9123929,12.3750547 12.1874982,12.3750547 L1.31250182,12.3750547 C0.587607061,12.3750547 0,11.787382 0,11.0625529 L0,3.65630195 L13.5,3.65630195 Z M1.40621445,0.843676162 C1.09555126,0.843676162 0.843708977,1.09551844 0.843708977,1.40618163 C0.843708977,1.71684483 1.09555126,1.96868711 1.40621445,1.96868711 C1.71687764,1.96868711 1.96871992,1.71684483 1.96871992,1.40618163 C1.96871992,1.09551844 1.71687764,0.843676162 1.40621445,0.843676162 L1.40621445,0.843676162 Z M3.37496718,0.843676162 C3.06430399,0.843676162 2.81246171,1.09551844 2.81246171,1.40618163 C2.81246171,1.71684483 3.06430399,1.96868711 3.37496718,1.96868711 C3.68563038,1.96868711 3.93747266,1.71684483 3.93747266,1.40618163 C3.93747266,1.09551844 3.68563038,0.843676162 3.37496718,0.843676162 Z M5.34371992,0.843676162 C5.03305673,0.843676162 4.78121445,1.09551844 4.78121445,1.40618163 C4.78121445,1.71684483 5.03305673,1.96868711 5.34371992,1.96868711 C5.65438311,1.96868711 5.90622539,1.71684483 5.90622539,1.40618163 C5.90622539,1.09551844 5.65438311,0.843676162 5.34371992,0.843676162 Z M1.08196087,6.21994613 L1.08196087,9.84376368 L2.2017218,9.84376368 L2.2017218,8.37796164 L3.42530162,8.37796164 L3.42530162,9.84376368 L4.55005006,9.84376368 L4.55005006,6.21994613 L3.42523601,6.21994613 L3.42523601,7.48801977 L2.20165618,7.48801977 L2.20165618,6.21994613 L1.08189524,6.21994613 L1.08196087,6.21994613 Z M6.4411027,6.21994613 L5.43251067,6.73654685 L5.43251067,7.21856315 L5.0617289,7.21856315 L5.0617289,7.95284229 L5.43251067,7.95284229 L5.43251067,8.87730296 C5.43251067,9.17064712 5.46092634,9.38281303 5.51782329,9.51386634 C5.57465462,9.64485402 5.66239537,9.74250416 5.78104553,9.80675113 C5.89969569,9.87106371 6.08423345,9.90322001 6.33479005,9.90322001 C6.55069659,9.90322001 6.78300942,9.87598559 7.03185976,9.82158239 L6.95770341,9.12700642 C6.82422198,9.1698596 6.72040308,9.19131901 6.64624673,9.19131902 C6.56382162,9.19131902 6.50613717,9.16323149 6.47319337,9.10718765 C6.45179959,9.0709626 6.44103707,8.99680625 6.44103707,8.88471859 L6.44103707,7.95284229 L6.9947816,7.95284229 L6.9947816,7.21849752 L6.4411027,7.21849752 L6.4411027,6.21988052 L6.4411027,6.21994613 Z M8.68810582,6.21994613 L7.67944817,6.73654685 L7.67944817,7.21856315 L7.3086664,7.21856315 L7.3086664,7.95284229 L7.67944817,7.95284229 L7.67944817,8.87730296 C7.67944817,9.17064712 7.70792945,9.38281303 7.76476079,9.51386634 C7.82165774,9.64485402 7.90939849,9.74250416 8.02804865,9.80675113 C8.14669881,9.87106371 8.33123657,9.90322001 8.58179318,9.90322001 C8.79769972,9.90322001 9.03001254,9.87598559 9.27886289,9.82158239 L9.20470654,9.12700642 C9.07122511,9.1698596 8.96740621,9.19131901 8.89324986,9.19131902 C8.81082475,9.19131902 8.75314029,9.16323149 8.72019649,9.10718765 C8.69873709,9.0709626 8.68804019,8.99680625 8.68804019,8.88471859 L8.68804019,7.95284229 L9.24178471,7.95284229 L9.24178471,7.21849752 L8.68804019,7.21849752 L8.68804019,6.21988052 L8.68810582,6.21994613 Z M9.72629476,10.8424463 L10.7421712,10.8424463 L10.7421712,9.58920395 C10.8427744,9.69302285 10.9568965,9.77124795 11.0846029,9.82401052 C11.2123093,9.8767731 11.3536658,9.90308875 11.508541,9.90308875 C11.8282008,9.90308875 12.0927356,9.78817922 12.302014,9.55829453 C12.511358,9.32840984 12.6159644,8.99510001 12.6159644,8.55836502 C12.6159644,8.16284259 12.5199549,7.83077964 12.3280015,7.56217613 C12.1359825,7.29357263 11.8644915,7.15923806 11.5134629,7.15923806 C11.3354876,7.15923806 11.1731968,7.19795686 11.0265247,7.27539447 C10.9177183,7.33314456 10.7982806,7.44352596 10.6680804,7.60666995 L10.6680804,7.21856315 L9.72629476,7.21856315 L9.72629476,10.8423807 L9.72629476,10.8424463 Z M10.7348212,8.53861186 C10.7348212,8.31286155 10.7776743,8.14971756 10.8633807,8.04917993 C10.9490215,7.9486423 11.0561872,7.89837347 11.1846812,7.89837347 C11.3033313,7.89837347 11.403869,7.94824855 11.4862941,8.04793305 C11.5686536,8.14768318 11.6098661,8.30373966 11.6098661,8.51636495 C11.6098661,8.74710278 11.5702942,8.9106405 11.491216,9.00704377 C11.4121377,9.10344702 11.3140282,9.15161583 11.1970843,9.15161583 C11.0636029,9.15161583 10.9531558,9.10141264 10.8658088,9.000875 C10.7785275,8.90033737 10.7348212,8.74624964 10.7348212,8.53861186 L10.7348212,8.53861186 Z" id="形状"></path>
                        </g>
                    </g>
                </g>
            </g>
        </g>
    </g>
</svg>