<?xml version="1.0" encoding="UTF-8"?>
<svg width="24px" height="24px" viewBox="0 0 24 24" version="1.1" xmlns="http://www.w3.org/2000/svg" xmlns:xlink="http://www.w3.org/1999/xlink">
    <title>MariaDB</title>
    <g id="页面-1" stroke="none" stroke-width="1" fill="none" fill-rule="evenodd">
        <g id="画板" transform="translate(-680.000000, -59.000000)">
            <g id="编组-4备份-3" transform="translate(664.000000, 43.000000)">
                <g id="MariaDB" transform="translate(16.000000, 16.000000)">
                    <rect id="矩形备份-6" x="0" y="0" width="24" height="24"></rect>
                    <g id="g4447-8_3_" transform="translate(0.000000, 4.000000)">
                        <path d="M23.4746791,0.000423123862 C23.1062636,0.0126160345 23.2128747,0.17925248 22.4153159,0.377048585 C21.6096601,0.576199459 20.6353158,0.454270352 19.7689321,0.820057671 C17.5017599,1.77381424 17.1346939,5.46149231 14.4343299,6.88806286 C12.6637763,7.89194583 10.8581356,8.12225636 9.24412486,8.63029431 C7.94859787,9.15187993 7.14294203,9.49734573 6.1928889,10.3196898 C5.45605793,10.9577855 5.27657346,11.5769144 4.5060048,12.3775822 C3.72464009,13.4437845 0.762471612,12.4968017 0,13.8339576 C0.402153169,14.0954278 0.634268421,14.1672305 1.34006073,14.0737515 C1.19431394,14.3514789 0.265852934,14.7172662 0.434541344,15.1264061 C0.434541344,15.1264061 2.67877195,15.5369008 4.57078115,14.3907672 C5.45335891,14.0303989 6.28060687,13.2676646 7.65170627,13.084771 C9.42765785,12.8476866 11.4289771,13.4586869 13.5760432,13.6307424 C13.1320553,14.5113415 12.6745724,15.0315724 12.1847012,15.7577279 C12.0335564,15.9216549 12.3142539,16.066615 12.8351637,15.967717 C13.7717218,15.7346969 14.4505239,15.4827101 15.1239281,15.0153152 C16.0024573,14.4070244 16.3803193,13.8502148 17.1211988,12.968261 C17.7649138,14.0046584 20.0347851,14.2322594 20.5003651,13.3367578 C19.6339814,12.968261 19.4490989,11.0512644 19.7459905,10.2235013 C20.0968624,9.43502641 20.3492203,8.32005247 20.6326168,7.28365507 C20.8876737,6.35022002 21.045566,4.92635901 21.3505547,4.19749391 C21.7149216,3.29115422 22.4234129,3.00800774 22.9551188,2.52706516 C23.4868247,2.04612257 24.0158315,1.64511129 23.9996374,0.545039798 C23.9942394,0.187381087 23.8107064,-0.0104150189 23.4746791,0.000423123862 L23.4746791,0.000423123862 Z" id="path4449-4_3_" fill="#1F305F"></path>
                        <path d="M0.677452654,14.9367386 C2.06879466,14.9787364 2.4466567,14.9421577 3.54650513,14.4625699 C4.48171367,14.0547848 5.73270692,12.956068 6.83795338,12.6011189 C8.46006113,12.0781785 10.199576,12.156755 11.9255958,12.361325 C12.5031849,12.4304181 13.0834731,12.5266066 13.4977718,12.4818993 C14.1441858,12.0835975 14.1752245,11.0024928 14.5760281,10.9157877 C14.466718,13.0075492 13.5733442,14.3460599 12.6799704,15.5599318 C14.562533,15.226659 15.8202738,14.0466562 16.5813959,12.5862164 C16.8121617,12.1432073 17.1954217,11.4184065 17.3708577,10.919852 C17.5098569,11.2504153 17.1900237,11.4604043 17.339819,11.8207726 C18.5516766,10.8168896 19.1238676,9.67346555 19.6150883,7.99897249 C20.1845804,6.06165447 20.768917,4.39664479 21.135983,3.82357799 C21.4936024,3.26405887 22.0509489,2.91859307 22.5597132,2.56093435 C23.1373023,2.15314923 23.6541636,1.7291069 23.7432311,0.95282492 C23.1332538,0.89592467 22.992905,0.755028814 22.902488,0.446141745 C22.5974994,0.618197262 22.3168019,0.656130762 21.9996677,0.665614137 C21.7243682,0.673742744 21.4220785,0.661549833 21.0523135,0.699483333 C17.9983786,1.01378947 17.8566803,4.01053595 15.6367408,6.21067893 C15.4936931,6.35022002 15.2494322,6.55614473 15.0874914,6.67807384 C14.4019417,7.19153085 13.6678097,7.47332257 12.894542,7.77001672 C11.6421993,8.24960454 10.4546329,8.38914563 9.28056156,8.80370459 C8.4182264,9.10717259 7.61661908,9.45534793 6.90812776,9.94170958 C6.73134231,10.0636387 6.49113001,10.2804015 6.33728618,10.406395 C5.92163794,10.7477965 5.64903747,11.1257767 5.38453404,11.5159498 C5.11193357,11.9169611 4.85012916,12.3301653 4.4493255,12.7244027 C3.8002125,13.3638532 1.37649742,12.9113607 0.522259317,13.504749 C0.427793807,13.5711326 0.350871892,13.6497092 0.299590616,13.7445429 C0.765170627,13.9572415 1.07690681,13.8271838 1.6126612,13.8854388 C1.67878705,14.3988958 0.503366215,14.7023638 0.677452654,14.9367386 L0.677452654,14.9367386 Z" id="path4451-9_3_" fill="#C0765A" fill-rule="nonzero"></path>
                        <path d="M20.0347851,1.96754604 C20.4666274,2.3441715 21.3734963,2.04205827 21.2115554,1.29287165 C20.5395008,1.2359714 20.1508427,1.46492717 20.0347851,1.96754604 Z" id="path4457-3_3_" fill="#1F305F"></path>
                        <path d="M23.0482348,1.09101124 C22.9335267,1.33351468 22.713557,1.64511129 22.713557,2.26153066 C22.7122075,2.36720255 22.6339361,2.44036002 22.6325866,2.27643311 C22.6379846,1.67356141 22.7972265,1.41344599 22.9659149,1.07204449 C23.0428368,0.932503402 23.0900695,0.989403652 23.0482348,1.09101124 Z" id="path4459-4_3_" fill="#1F305F" fill-rule="nonzero"></path>
                        <path d="M22.9321772,1.00024179 C22.795877,1.23055233 22.4692962,1.65188513 22.4166654,2.26694973 C22.4072189,2.37262162 22.3208504,2.43765048 22.3343455,2.27507834 C22.3937238,1.67627095 22.6541787,1.30100026 22.8525563,0.974501206 C22.9416237,0.841733957 22.9834585,0.90269851 22.9321772,1.00024179 Z" id="path4461-6_3_" fill="#1F305F" fill-rule="nonzero"></path>
                        <path d="M22.8269156,0.879667456 C22.6717223,1.09778508 22.1697056,1.60446825 22.064444,2.21140425 C22.0455509,2.31572137 21.9551339,2.37262162 21.9821241,2.21275902 C22.0914342,1.62072547 22.524626,1.15468533 22.7486442,0.847153028 C22.8485077,0.721159618 22.8862939,0.786188475 22.8269156,0.879667456 Z" id="path4463-0_3_" fill="#1F305F" fill-rule="nonzero"></path>
                        <path d="M22.7324501,0.744190672 C22.5489171,0.939277242 21.9497359,1.58414674 21.7608049,2.17076121 C21.7270672,2.27101403 21.6299027,2.31572137 21.6784849,2.15992307 C21.8687655,1.58821104 22.3937238,0.973146438 22.6595767,0.700838101 C22.7769838,0.591101905 22.803974,0.661549833 22.7324501,0.744190672 L22.7324501,0.744190672 Z" id="path4465-8_3_" fill="#1F305F" fill-rule="nonzero"></path>
                    </g>
                </g>
            </g>
        </g>
    </g>
</svg>