<?xml version="1.0" encoding="UTF-8"?>
<svg width="24px" height="24px" viewBox="0 0 24 24" version="1.1" xmlns="http://www.w3.org/2000/svg" xmlns:xlink="http://www.w3.org/1999/xlink">
    <title>mongodb</title>
    <g id="页面-1" stroke="none" stroke-width="1" fill="none" fill-rule="evenodd">
        <g id="小号图标" transform="translate(-414.000000, -47.000000)">
            <g id="mongodb" transform="translate(414.000000, 47.000000)">
                <path d="M14.7801432,4.78231532 C13.6260926,3.31659407 12.5616326,2.53149206 11.9318524,1 C11.577717,2.34196153 10.61217,2.53733836 9.72894502,3.69379855 C8.31722299,5.54174103 6.62440481,9.2495951 7.07377942,12.7288907 C7.34642214,14.842642 8.11801446,16.4782218 9.16363208,17.8925905 C9.79566388,18.747453 10.3953436,19.332359 11.0397,19.849124 C11.844474,20.4951 11.9085857,20.7720089 11.9316549,22.8317215 L12.4963358,23 L12.5529421,23 C12.5446467,22.2192827 12.3519165,21.2353672 12.609588,20.5299012 C12.9004016,19.7336596 14.0718726,19.2118384 14.5865835,18.5654674 C15.2973032,17.6735125 15.9918272,16.6294749 16.3940759,15.4792956 C17.8183201,11.4126844 16.6645065,8.0490507 15.043898,5.22461908 C14.9585342,5.07577559 14.886522,4.91741212 14.7801432,4.78231532 L14.7801432,4.78231532 Z" id="路径" fill="#2AA515" fill-rule="nonzero"></path>
                <rect id="矩形备份" x="0" y="0" width="24" height="24"></rect>
            </g>
        </g>
    </g>
</svg>