<?xml version="1.0" encoding="UTF-8"?>
<svg width="24px" height="24px" viewBox="0 0 24 24" version="1.1" xmlns="http://www.w3.org/2000/svg" xmlns:xlink="http://www.w3.org/1999/xlink">
    <title>mysql</title>
    <g id="页面-1" stroke="none" stroke-width="1" fill="none" fill-rule="evenodd">
        <g id="小号图标" transform="translate(-699.000000, -267.000000)">
            <g id="mysql" transform="translate(699.000000, 267.000000)">
                <g id="MySQL-(5)备份" transform="translate(0.000000, 3.000000)" fill-rule="nonzero">
                    <path d="M22.9272152,9.74404618 C22.8544304,9.67126137 22.7816456,9.59847656 22.7816456,9.52569175 C22.6360759,9.23455251 22.4177215,9.01619808 22.1265823,8.79784365 C21.9082278,8.65227403 21.471519,8.4339196 21.3987342,8.21556517 C21.5443038,8.21556517 21.6898734,8.14278036 21.835443,8.14278036 C22.0537975,8.06999555 22.1993671,8.06999555 22.4177215,8.06999555 C22.4905063,8.06999555 22.6360759,7.99721074 22.7088608,7.99721074 L22.7088608,7.92442593 C22.6360759,7.77885631 22.4905063,7.63328668 22.4177215,7.48771706 C22.1265823,7.19657782 21.7626582,6.90543858 21.3987342,6.61429934 C21.1803797,6.46872972 20.9620253,6.39594491 20.7436709,6.25037529 C20.6708861,6.17759048 20.5253165,6.17759048 20.5253165,6.10480567 C20.4525316,5.95923605 20.3797468,5.74088162 20.306962,5.595312 C20.1613924,5.23138795 19.943038,4.79467909 19.7974684,4.35797023 C19.7246835,4.06683099 19.6518987,3.77569175 19.5063291,3.55733732 C18.8512658,2.39278036 18.1962025,1.66493225 17.1772152,0.937084153 C16.9588608,0.791514533 16.6677215,0.718729723 16.3765823,0.645944913 L15.9398734,0.645944913 C15.8670886,0.573160103 15.721519,0.500375293 15.6487342,0.427590482 C15.2848101,0.209236052 14.4113924,-0.373042429 14.1202532,0.354805672 C13.9746835,0.791514533 14.3386076,1.22822339 14.4841772,1.44657782 C14.556962,1.59214744 14.7025316,1.81050187 14.7753165,1.9560715 C14.8481013,2.10164112 14.8481013,2.17442593 14.8481013,2.31999555 C14.9936709,2.61113479 15.0664557,2.97505884 15.2120253,3.26619808 L15.4303797,3.70290694 C15.5031646,3.77569175 15.5759494,3.84847656 15.5759494,3.92126137 C15.5031646,4.06683099 15.5031646,4.28518542 15.4303797,4.43075504 C15.2120253,5.23138795 15.2848101,6.17759048 15.5759494,6.75986896 C15.6487342,6.90543858 15.9398734,7.34214744 16.2310127,7.19657782 C16.5221519,7.0510082 16.4493671,6.68708415 16.5221519,6.3231601 C16.5221519,6.25037529 16.5221519,6.17759048 16.5949367,6.10480567 C16.6677215,6.3231601 16.7405063,6.46872972 16.8132911,6.68708415 C17.0316456,7.0510082 17.3227848,7.41493225 17.6139241,7.63328668 C17.7594937,7.77885631 17.9050633,7.99721074 18.0506329,8.06999555 L17.9050633,7.92442593 C17.7594937,7.77885631 17.6867089,7.63328668 17.6139241,7.48771706 C17.3227848,7.0510082 17.1044304,6.68708415 16.9588608,6.25037529 C16.8860759,6.03202086 16.7405063,5.81366643 16.6677215,5.595312 C16.5949367,5.52252719 16.5949367,5.37695757 16.5949367,5.37695757 C16.5221519,5.52252719 16.3765823,5.66809681 16.3037975,5.81366643 C16.1582278,6.10480567 16.1582278,6.46872972 16.1582278,6.83265377 C15.9398734,6.75986896 15.8670886,6.54151453 15.7943038,6.3231601 C15.6487342,5.81366643 15.5759494,5.01303352 15.721519,4.43075504 C15.7943038,4.28518542 15.9398734,3.84847656 15.8670886,3.70290694 C15.7943038,3.55733732 15.721519,3.48455251 15.6487342,3.4117677 L15.4303797,2.97505884 C15.2848101,2.61113479 15.2120253,2.17442593 15.0664557,1.73771706 C14.9936709,1.59214744 14.8481013,1.37379301 14.7753165,1.22822339 C14.6297468,1.00986896 14.556962,0.937084153 14.4113924,0.718729723 C14.4113924,0.645944913 14.3386076,0.500375293 14.4113924,0.427590482 C14.4113924,0.354805672 14.4841772,0.354805672 14.4841772,0.354805672 C14.556962,0.282020862 14.7753165,0.354805672 14.8481013,0.427590482 C15.0664557,0.500375293 15.2848101,0.645944913 15.4303797,0.791514533 C15.5031646,0.864299343 15.5759494,1.00986896 15.721519,1.00986896 L15.8670886,1.00986896 C16.085443,1.08265377 16.3037975,1.00986896 16.4493671,1.08265377 C16.7405063,1.22822339 17.0316456,1.37379301 17.3227848,1.59214744 C18.1234177,2.17442593 18.778481,2.97505884 19.2151899,3.99404618 C19.2879747,4.1396158 19.2879747,4.28518542 19.3607595,4.50353985 C19.5063291,4.8674639 19.6518987,5.15860314 19.7974684,5.52252719 C19.943038,5.81366643 20.0158228,6.17759048 20.2341772,6.46872972 C20.306962,6.61429934 20.6708861,6.68708415 20.8892405,6.75986896 L21.3259494,6.97822339 C21.5443038,7.12379301 21.7626582,7.26936263 21.9082278,7.41493225 C21.9810127,7.48771706 22.3449367,7.63328668 22.3449367,7.77885631 C21.835443,7.77885631 21.471519,7.85164112 21.1803797,7.99721074 C21.0348101,7.92442593 20.8892405,7.92442593 20.8892405,8.06999555 C20.9620253,8.14278036 20.9620253,8.21556517 20.9620253,8.28834998 C21.0348101,8.4339196 21.1803797,8.57948922 21.2531646,8.72505884 C21.3987342,8.87062846 21.5443038,8.94341327 21.6170886,9.01619808 C21.835443,9.1617677 22.1265823,9.30733732 22.3449367,9.45290694 C22.4905063,9.52569175 22.6360759,9.67126137 22.7816456,9.74404618 C22.8544304,9.81683099 22.8544304,9.8896158 23,9.8896158 C22.9272152,9.8896158 22.9272152,9.81683099 22.9272152,9.74404618 L22.9272152,9.74404618 Z" id="路径" fill="#02608A"></path>
                    <path d="M16.0126582,1.66493225 C15.9398734,1.66493225 15.8670886,1.66493225 15.7943038,1.73771706 C15.8670886,1.73771706 16.085443,2.31999555 16.1582278,2.31999555 C16.2310127,2.24721074 16.3037975,2.10164112 16.3037975,2.02885631 C16.3037975,1.88328668 16.2310127,1.81050187 16.085443,1.73771706 C16.085443,1.66493225 16.085443,1.66493225 16.0126582,1.66493225 L16.0126582,1.66493225 Z M4.2943038,9.67126137 L2.98417722,14.2567044 L1.67405063,9.67126137 L0.509493671,9.67126137 C0.291139241,11.6364512 0.0727848101,13.6744259 0,15.930755 L1.01898734,15.930755 C1.01898734,14.2567044 1.01898734,12.8010082 1.16455696,11.1997424 L2.47468354,15.930755 L3.34810127,15.930755 L4.65822785,11.1997424 C4.80379747,12.873793 4.80379747,14.3294892 4.87658228,15.930755 L5.96835443,15.930755 C5.89556962,14.03835 5.67721519,12.0003753 5.45886076,9.67126137 L4.2943038,9.67126137 L4.2943038,9.67126137 Z M8.66139241,11.2725272 C8.51582278,12.6554386 8.44303797,13.8199955 8.00632911,14.9845525 C8.00632911,14.6934133 7.9335443,14.5478436 7.78797468,13.9655652 L7.06012658,11.2725272 L6.04113924,11.2725272 L7.06012658,14.8389829 C7.2056962,15.3484766 7.27848101,15.7124006 7.27848101,15.930755 C7.27848101,16.1491095 7.27848101,16.2946791 7.2056962,16.3674639 C7.06012658,16.5130335 6.84177215,16.5858183 6.55063291,16.5858183 L6.18670886,16.5858183 L6.18670886,17.3864512 C6.33227848,17.4592361 6.55063291,17.5320209 6.69620253,17.5320209 C7.27848101,17.5320209 7.78797468,17.1680968 8.22468354,16.2946791 C8.80696203,15.2756917 9.3164557,13.6016411 9.68037975,11.2725272 L8.66139241,11.2725272 L8.66139241,11.2725272 Z" id="形状" fill="#02608A"></path>
                    <path d="M21.471519,14.9117677 L21.471519,9.67126137 L20.3797468,9.67126137 L20.3797468,15.8579702 L23,15.8579702 L23,14.9117677 L21.471519,14.9117677 Z M18.7056962,15.4212614 C18.778481,15.3484766 18.8512658,15.2756917 18.9240506,15.1301221 C19.3607595,14.5478436 19.5791139,13.7472107 19.5791139,12.5826538 C19.5791139,10.5446791 18.8512658,9.52569175 17.4683544,9.52569175 C16.7405063,9.52569175 16.2310127,9.81683099 15.8670886,10.3263247 C15.4303797,10.9086031 15.2120253,11.7092361 15.2120253,12.873793 C15.2120253,13.9655652 15.4303797,14.7661981 15.7943038,15.2756917 C16.1582278,15.7124006 16.6677215,15.930755 17.3227848,15.930755 C17.6139241,15.930755 17.8322785,15.8579702 18.0506329,15.8579702 L19.3607595,16.731388 L19.7246835,16.0035398 L18.7056962,15.4212614 L18.7056962,15.4212614 Z M17.4683544,14.8389829 C17.1044304,14.8389829 16.8132911,14.6934133 16.6677215,14.3294892 C16.4493671,13.9655652 16.3765823,13.3832867 16.3765823,12.6554386 C16.3765823,11.2725272 16.7405063,10.6174639 17.4683544,10.6174639 C17.8322785,10.6174639 18.1234177,10.7630335 18.2689873,11.1269576 C18.4873418,11.4908816 18.5601266,12.0003753 18.5601266,12.8010082 C18.5601266,14.1839196 18.1962025,14.8389829 17.4683544,14.8389829 Z M14.193038,12.8010082 C14.193038,12.8010082 13.3924051,12.2915145 13.028481,12.0731601 C12.5917722,11.7820209 12.3006329,11.4908816 12.3006329,11.1269576 C12.3006329,10.9086031 12.4462025,10.7630335 12.5917722,10.5446791 C12.7373418,10.3991095 12.9556962,10.3263247 13.2468354,10.3263247 C13.6107595,10.3263247 13.9746835,10.4718943 14.2658228,10.6902487 L14.4841772,9.8896158 C14.0474684,9.59847656 13.6107595,9.45290694 13.1012658,9.45290694 C12.5917722,9.45290694 12.2278481,9.59847656 11.8639241,9.8896158 C11.5727848,10.180755 11.2816456,10.7630335 11.2816456,11.2725272 C11.2816456,11.8548057 11.5,12.2187297 11.9367089,12.5826538 C11.9367089,12.5826538 12.664557,13.0921474 13.1012658,13.3105019 C13.5379747,13.6016411 13.7563291,13.8927804 13.7563291,14.2567044 C13.7563291,14.5478436 13.6835443,14.7661981 13.4651899,14.9117677 C13.2468354,15.0573373 13.028481,14.9845525 12.8101266,14.9845525 C12.4462025,14.9845525 12.0822785,14.8389829 11.6455696,14.6206285 L11.4272152,15.3484766 C11.9367089,15.7124006 12.4462025,15.930755 12.9556962,15.930755 C13.5379747,15.930755 13.9746835,15.7851854 14.3386076,15.4212614 C14.7025316,15.0573373 14.8481013,14.6206285 14.8481013,14.1111348 C14.8481013,13.5288563 14.6297468,13.1649323 14.193038,12.8010082 L14.193038,12.8010082 Z" id="形状" fill="#E58E01"></path>
                </g>
                <rect id="矩形备份-6" x="0" y="0" width="24" height="24"></rect>
            </g>
        </g>
    </g>
</svg>