<?xml version="1.0" encoding="UTF-8"?>
<svg width="25px" height="24px" viewBox="0 0 25 24" version="1.1" xmlns="http://www.w3.org/2000/svg" xmlns:xlink="http://www.w3.org/1999/xlink">
    <title>oracle</title>
    <g id="页面-1" stroke="none" stroke-width="1" fill="none" fill-rule="evenodd">
        <g id="小号图标" transform="translate(-567.000000, -1044.000000)">
            <g id="oracle" transform="translate(567.500000, 1044.000000)">
                <g id="编组-3备份" transform="translate(0.000000, 8.000000)">
                    <rect id="矩形" fill="#FFC3C3" opacity="0" x="0" y="0" width="23" height="8.36363636"></rect>
                    <g id="oracle_large" transform="translate(0.000000, 2.718182)" fill="#F80000" fill-rule="nonzero">
                        <path d="M9.57264519,1.87550735 L11.038748,1.87550735 L10.2638695,0.629032493 L8.84189355,2.88280622 L8.19508349,2.88280622 L9.92393492,0.175546772 C10.0010883,0.0644699101 10.1282013,-0.0012392106 10.2634383,2.24489671e-05 C10.3957576,-0.0013752668 10.52026,0.0625700224 10.5961862,0.170947233 L12.3323681,2.88280622 L11.6855581,2.88280622 L11.3802637,2.37973173 L9.89662516,2.37973173 L9.57264519,1.87550735 Z M16.2953015,2.37858184 L16.2953015,0.0273553995 L15.7460877,0.0273553995 L15.7460877,2.60927743 C15.7460094,2.68119539 15.7747399,2.75014849 15.8258611,2.80073321 C15.8791703,2.85404031 15.9517063,2.88362462 16.0270909,2.88282276 L18.5315395,2.88282276 L18.8550883,2.37973173 L16.2953015,2.37858184 Z M7.20977616,1.95758036 C7.55738433,1.96182256 7.8804183,1.7788066 8.05545854,1.47845621 C8.23049878,1.17810583 8.23049878,0.806829933 8.05545854,0.506479548 C7.8804183,0.206129163 7.55738433,0.0231131987 7.20977616,0.0273553995 L4.80723612,0.0273553995 L4.80723612,2.88280622 L5.35630599,2.88280622 L5.35630599,0.531004835 L7.17341106,0.531004835 C7.42572663,0.535452521 7.62794116,0.741262998 7.62794116,0.993617765 C7.62794116,1.24597253 7.42572663,1.45178301 7.17341106,1.45623069 L5.62509151,1.45393093 L7.26453941,2.88280622 L8.06212809,2.88280622 L6.95924506,1.95758036 L7.20977616,1.95758036 Z M1.42772541,2.88280622 C0.63921444,2.88280622 0,2.24359178 0,1.45508081 C0,0.666569839 0.63921444,0.0273553995 1.42772541,0.0273553995 L3.08744003,0.0273553995 C3.875951,0.0273553995 4.51516544,0.666569839 4.51516544,1.45508081 C4.51516544,2.24359178 3.875951,2.88280622 3.08744003,2.88280622 L1.42772541,2.88280622 Z M3.05049999,2.37973173 C3.56085306,2.37973173 3.97457597,1.96600882 3.97457597,1.45565575 C3.97457597,0.945302684 3.56085306,0.531579777 3.05049999,0.531579777 L1.46452172,0.531579777 C1.13438116,0.531579777 0.829318697,0.707707646 0.664248414,0.993617754 C0.499178131,1.27952786 0.499178131,1.63178364 0.664248414,1.91769375 C0.829318697,2.20360386 1.13438116,2.37973173 1.46452172,2.37973173 L3.05049999,2.37973173 Z M13.4789468,2.88280622 C12.6904358,2.88280622 12.0512213,2.24359178 12.0512213,1.45508081 C12.0512213,0.666569839 12.6904358,0.0273553995 13.4789468,0.0273553995 L15.4501364,0.0273553995 L15.1287436,0.530429892 L13.5153119,0.530429892 C13.0049588,0.530429892 12.5912359,0.944152799 12.5912359,1.45450587 C12.5912359,1.96485894 13.0049588,2.37858184 13.5153119,2.37858184 L15.4957005,2.37858184 L15.172008,2.88165634 L13.4789468,2.88280622 Z M20.19456,2.37973173 C19.7811879,2.37999806 19.4180716,2.10532638 19.305843,1.70748047 L21.6530449,1.70748047 L21.9765936,1.20440598 L19.305843,1.20440598 C19.418875,0.80710933 19.7814978,0.532811016 20.19456,0.532154719 L21.805692,0.532154719 L22.1315406,0.0290802263 L20.1581949,0.0290802263 C19.369684,0.0290802263 18.7304695,0.668294666 18.7304695,1.45680564 C18.7304695,2.24531661 19.369684,2.88453105 20.1581949,2.88453105 L21.8512562,2.88453105 L22.1749487,2.38145656 L20.1947038,2.38145656 M22.4256235,0.330493715 C22.42626,0.191416904 22.5395196,0.0791885876 22.6785964,0.0798214389 C22.8176732,0.0804596622 22.9299023,0.193718391 22.9292704,0.332795211 C22.9286331,0.471872031 22.8153752,0.584101922 22.6762984,0.583470987 C22.6093551,0.58366568 22.5451302,0.557001972 22.4980106,0.509450049 C22.4508909,0.461898126 22.4248148,0.397432428 22.4256235,0.330493715 Z M22.6762984,0.654042482 C22.8065079,0.654974226 22.9244125,0.57724734 22.9748751,0.45721017 C23.0253376,0.337172999 22.9983849,0.198549357 22.906621,0.106165462 C22.8148571,0.013781566 22.6764181,-0.0141040862 22.5560439,0.0355490033 C22.4356696,0.0852020927 22.3571505,0.202580625 22.3572051,0.332793485 C22.3569654,0.509473036 22.4996212,0.653092754 22.6762984,0.654042482 L22.6762984,0.654042482 Z M22.6465451,0.141337706 C22.6781834,0.138716359 22.7100239,0.142580256 22.740117,0.152692816 C22.7837714,0.166298212 22.8127621,0.207629165 22.8106911,0.253307715 C22.8108237,0.263365264 22.809269,0.273373861 22.8060916,0.282917242 C22.8010597,0.308596688 22.7853939,0.330946592 22.7629709,0.344436066 C22.7583714,0.346735835 22.7560716,0.349035604 22.7470163,0.353635142 L22.8290893,0.501682779 L22.749316,0.501682779 L22.6764421,0.364990252 L22.6262784,0.364990252 L22.6262784,0.501682779 L22.5555605,0.501682779 L22.5555605,0.141337706 L22.6465451,0.141337706 Z M22.6716988,0.305483726 C22.6944091,0.303183957 22.717263,0.303183957 22.7309179,0.282629771 C22.7376941,0.273432024 22.740957,0.262113891 22.740117,0.250720474 C22.7393444,0.232468872 22.7288737,0.216022737 22.7126635,0.207599804 C22.6913295,0.200794488 22.6688245,0.198446143 22.6465451,0.200700496 L22.6261347,0.200700496 L22.6261347,0.305627462 L22.6716988,0.305627462" id="形状"></path>
                    </g>
                </g>
                <rect id="矩形备份-29" x="0" y="0" width="24" height="24"></rect>
            </g>
        </g>
    </g>
</svg>