<?xml version="1.0" encoding="UTF-8"?>
<svg width="24px" height="24px" viewBox="0 0 24 24" version="1.1" xmlns="http://www.w3.org/2000/svg" xmlns:xlink="http://www.w3.org/1999/xlink">
    <title>postgresql</title>
    <g id="页面-1" stroke="none" stroke-width="1" fill="none" fill-rule="evenodd">
        <g id="UI_低代码平平台_icon" transform="translate(-692.000000, -174.000000)">
            <g id="编组-3" transform="translate(220.000000, 158.000000)">
                <g id="编组-5备份-2" transform="translate(450.000000, 0.000000)">
                    <g id="postgresql" transform="translate(22.000000, 16.000000)">
                        <g id="postgres_large" transform="translate(1.000000, 1.000000)" fill-rule="nonzero">
                            <path d="M21.2508366,13.0547008 C21.204564,12.9138416 21.0004202,12.4633644 20.271627,12.6110283 C19.6393645,12.7746051 18.9822264,12.819368 18.3336222,12.7430413 C20.6676659,8.82688342 21.8789189,3.84237316 20.7425186,2.39091099 C18.0512233,-1.04959193 13.5634628,0.152814846 12.7223905,0.424326053 C12.7053967,0.427209649 12.6885836,0.431072126 12.6720351,0.4358942 L12.6720351,0.440657555 L12.6223601,0.458350014 C12.0767643,0.322302172 11.5174146,0.249015953 10.955186,0.239916186 C10.0294034,0.201581714 9.11187629,0.427953859 8.31016329,0.892495754 C7.03018188,0.476042474 3.82784669,-0.33781067 1.76939706,1.12862204 C0.490776609,2.04046419 -0.0998793511,3.65183898 0.0137606781,5.91851525 C0.0647966194,6.93923408 1.7353731,15.488775 4.25859003,16.3298473 C4.39959744,16.3773205 4.54735406,16.4016785 4.69613817,16.4019781 C5.15481761,16.3835721 5.58405092,16.1710583 5.87676961,15.8174464 C6.0210312,16.1161768 6.48920091,16.2590774 6.88047645,16.3727175 L7.23636709,16.4407654 C7.63012105,16.5326869 8.0319371,16.5857914 8.43605194,16.599317 C8.89651343,16.6044442 9.34909652,16.4796831 9.74189156,16.2393435 C9.68491636,17.6652785 9.82459269,19.0922669 10.1569839,20.48009 C10.5768754,21.4527539 11.5607256,22.0585141 12.6182772,21.9955172 C12.9387143,21.9936198 13.2580503,21.9578085 13.5709481,21.888682 C15.3184187,21.5130575 16.1411181,20.7196187 16.4126293,19.1483922 C16.5657371,18.2637692 16.765798,16.616329 16.8590237,15.7031259 C17.1092674,15.7530179 17.3639575,15.7771872 17.619119,15.7752567 C18.3541189,15.7807557 19.0830613,15.6420416 19.7646699,15.3669692 C20.711897,14.9266991 21.4767557,13.7379019 21.2508366,13.0547008 L21.2508366,13.0547008 Z M19.8558542,14.4911924 C19.7376685,14.5884026 19.6081084,14.6708914 19.4700224,14.7368454 C19.4298742,14.7552184 19.3822406,14.7695084 19.3393704,14.7865204 L19.2713225,14.8219053 C18.6430747,15.0753097 17.9712602,15.2031533 17.2938499,15.1982103 C17.0049551,15.2036165 16.7167493,15.1681062 16.4378071,15.0927361 C16.3248475,16.1243425 16.0887212,18.0296844 15.9512644,18.8278865 C15.6899604,20.3365089 15.0183274,21.021071 13.4702372,21.3524644 C13.2333484,21.4050131 12.9915702,21.4323843 12.7489292,21.4341219 C12.1453081,21.4565823 11.5635091,21.206776 11.1640931,20.7536427 C11.0161087,20.6083283 10.896969,20.4363145 10.8129658,20.2466856 C10.7336066,20.0949992 10.6629492,19.9389168 10.6013368,19.7791964 C10.3237968,18.322261 10.2234917,16.8371049 10.3026064,15.3560815 C9.76632329,15.8281762 9.07282674,16.0825635 8.35847731,16.0692237 C8.02784664,16.0674214 7.69871174,16.0246796 7.37858724,15.9419741 C7.27991776,15.9174769 6.41638963,15.684753 6.42591634,15.1253991 C6.43680401,14.6150396 7.1574315,14.4660147 7.42826222,14.4102154 C8.36732354,14.2169593 8.42720571,14.1380237 8.72117274,13.7719259 C8.78037443,13.6963927 8.85182475,13.6086109 8.93212129,13.5133438 L8.93212129,13.4963318 C8.51529988,13.4787594 8.10809577,13.3656084 7.74196314,13.1656189 C7.16228257,13.7847324 6.60020933,14.4200998 6.05641612,15.0709607 C5.77463015,15.4812442 5.31951294,15.7388008 4.8227073,15.7691324 C4.6906069,15.7686696 4.55943126,15.747075 4.43415367,15.7051673 C2.14706302,14.9416697 0.691517978,7.09098094 0.644564912,6.11041039 C0.578956707,5.18798246 0.701899991,4.26185604 1.00589938,3.38849352 C1.12017132,3.03072581 1.29485637,2.6951648 1.5223831,2.39635482 C1.70590283,2.14490313 1.92610667,1.92240551 2.17564315,1.73628998 C2.48872746,1.5027393 2.83756452,1.32142676 3.2086106,1.19939188 C5.27250407,0.483527745 7.8841833,1.36610929 8.51634849,1.60291606 C8.68947136,1.48589137 8.87148834,1.38259674 9.06073187,1.29397849 L9.06073187,1.28921514 C9.20880261,1.22465489 9.36059215,1.16898358 9.51529198,1.12249773 C10.0129391,0.957102564 10.5342114,0.87390125 11.0586188,0.876164253 L11.1566079,0.876164253 C11.6753327,0.885482222 12.1912993,0.953973361 12.6944909,1.08030802 L12.740083,1.064657 L12.740083,1.06329604 C12.7551748,1.05853116 12.7706597,1.05511536 12.7863556,1.05308885 C13.864858,0.722607993 14.9970989,0.603838229 16.1207037,0.703322532 C17.7238633,0.786134109 19.2127574,1.558622 20.203579,2.82165433 C20.3208703,2.99060341 20.3983441,3.18393908 20.4301786,3.38713256 C21.0174322,5.26797712 19.7333679,9.72579647 17.5544734,13.0533398 C17.7300371,13.1792285 18.2587694,13.3867747 19.7469775,13.0812395 C20.2600588,12.9744042 20.5683159,13.0710323 20.6656244,13.3629579 C20.7860693,13.7515115 20.3321896,14.1788525 19.8558542,14.4911924 L19.8558542,14.4911924 Z" id="形状" fill="#000000"></path>
                            <path d="M19.8204692,13.4228401 C17.3448859,13.9331995 17.174766,13.0955295 17.174766,13.0955295 C19.7884867,9.21679801 20.8806559,4.29557232 19.9381921,3.09248506 C17.3659807,-0.194229555 12.9136052,1.35998498 12.839433,1.40081373 L12.8156162,1.4048966 C12.2717167,1.29590368 11.7187783,1.23826321 11.1640931,1.23273536 C10.2288944,1.18615583 9.30610257,1.46244081 8.55037245,2.01528646 C8.55037245,2.01528646 0.61190191,-1.25781857 0.977319249,6.12878333 C1.05625484,7.70000984 3.22970546,18.0194772 5.82301175,14.9028823 C6.42320319,14.1835581 7.04452518,13.4821314 7.68616385,12.7995211 C8.14731465,13.1107394 8.70212861,13.2523889 9.2560294,13.2003233 L9.30026055,13.1622165 C9.28717886,13.3102558 9.29312478,13.4593614 9.31795301,13.605889 C8.6504029,14.3544161 8.84638091,14.4837072 7.51128069,14.7586208 C6.15984896,15.0369368 6.95396821,15.5323256 7.47181289,15.6622972 C8.6004177,16.0268004 9.83549037,15.6252645 10.5339694,14.6667561 L10.4945016,14.8239468 C10.7564861,15.0335344 10.9402155,16.1849052 10.9095939,17.2335237 C10.8233412,18.0116293 10.8756391,18.798863 11.0640627,19.5587212 C11.2682064,20.119436 11.4757526,21.381725 13.231389,21.00542 C14.6978217,20.6910386 15.457917,19.8765049 15.5640717,18.5175879 C15.6389245,17.5519879 15.8083638,17.6948886 15.8192514,16.8313604 L15.9553473,16.4230729 C16.112538,15.1131504 15.980525,14.6912533 16.8842014,14.8872313 L17.1039962,14.9069652 C17.8026198,14.93627 18.4996397,14.8189796 19.1501972,14.5626427 C20.2505321,14.0516028 20.9024312,13.2016843 19.8177473,13.4235205 L19.8204692,13.4228401 Z" id="路径" fill="#316192"></path>
                            <path d="M9.01582024,6.84477847 C8.83548215,6.80158481 8.64709491,6.83146318 8.48504645,6.92895963 C8.4408063,6.96260515 8.41141784,7.0152516 8.40406198,7.07402181 C8.40349782,7.17507912 8.43586377,7.27299016 8.49525364,7.34986544 C8.60158657,7.50919934 8.75959332,7.61693082 8.93620417,7.65051244 C9.20049296,7.69077127 9.45478719,7.5234925 9.54863546,7.24764545 C9.57585463,7.03268285 9.2920948,6.88762067 9.01582024,6.84477847 L9.01582024,6.84477847 Z M16.3452619,6.74932304 C16.1945221,6.66146925 16.0206393,6.63486804 15.8539559,6.67416129 C15.5960543,6.71474864 15.3456379,6.84402685 15.3667328,7.01389241 C15.3950345,7.11842648 15.4586172,7.20695362 15.5443378,7.26117457 C15.635205,7.33131122 15.7431074,7.36955447 15.8539559,7.37091073 C15.876728,7.37111864 15.89948,7.3693595 15.9220038,7.3656494 C16.0847921,7.33378067 16.2299835,7.23324627 16.3268889,7.08529607 C16.3769796,7.02028514 16.4055388,6.93837454 16.407866,6.85304626 C16.4007664,6.81044866 16.3781306,6.77294526 16.3452619,6.74932304 L16.3452619,6.74932304 Z" id="形状" fill="#FFFFFF"></path>
                            <path d="M20.6574587,13.360236 C20.5601502,13.0683104 20.2491711,12.9716823 19.7388117,13.0785176 C18.2506037,13.3840527 17.7218713,13.1765066 17.5463077,13.0506179 C19.959287,9.36514248 21.2834996,4.18669564 20.1729575,2.76789648 C17.6912498,-0.403136674 13.5573385,0.798589623 12.7815922,1.05036693 C12.7658964,1.05239345 12.7504114,1.05580925 12.7353196,1.06057412 L12.7353196,1.06329604 L12.6897275,1.07894706 C12.1865359,0.952612402 11.6705693,0.884121264 11.1518445,0.874803295 L11.0538555,0.874803295 C10.1520005,0.854523142 9.26547074,1.11022548 8.5129461,1.60767941 C7.77734806,1.33548772 4.37291054,0.178673056 2.25866161,1.67981021 C1.07939113,2.51543869 0.534327279,4.00772961 0.639801558,6.11517374 C0.688796061,7.09778573 2.14229967,14.9484745 4.42939032,15.7099307 C4.55466791,15.7518384 4.68584355,15.773433 4.81794395,15.7738957 C5.31474959,15.7435642 5.76986679,15.4860075 6.05165277,15.0757241 C6.59455359,14.4240964 7.15664939,13.7887035 7.73719979,13.1703823 C8.10333241,13.3703717 8.51053653,13.4835228 8.92735794,13.5010952 L8.92735794,13.5181071 C8.84706139,13.6133742 8.77561107,13.7011561 8.71640938,13.7766892 C8.42584476,14.145509 8.36596259,14.2217227 7.42349887,14.4149788 C7.15130718,14.470778 6.43204065,14.6191225 6.42115298,15.1301624 C6.40958484,15.6861139 7.27311296,15.9188378 7.37382389,15.9467375 C7.69394839,16.029443 8.02308328,16.0721848 8.35371396,16.0739871 C9.07022514,16.0861228 9.76520854,15.8289644 10.3012455,15.3533596 C10.2221307,16.8343829 10.3224359,18.3195391 10.5999759,19.7764745 C10.8642211,20.7470633 11.7416882,21.4235137 12.7475683,21.4320804 C12.9902092,21.4303428 13.2319875,21.4029717 13.4688762,21.3504229 C15.0169665,21.0190296 15.6885994,20.3344675 15.9499035,18.825845 C16.0859993,18.0276429 16.3234865,16.1223011 16.4364461,15.0906946 C16.7153883,15.1660648 17.0035942,15.201575 17.292489,15.1961689 C17.9698992,15.2011118 18.6417137,15.0732683 19.2699616,14.8198639 C19.8306764,14.5612818 20.842549,13.9243532 20.6574587,13.360236 L20.6574587,13.360236 Z M16.8392898,9.45360478 C17.0030303,10.2211218 16.9447288,11.019403 16.6712114,11.7549855 C16.616481,11.6561292 16.5671863,11.5543596 16.5235474,11.4501308 C16.4827187,11.3501004 16.3792858,11.1622881 16.241829,10.9145937 C15.7110553,9.96192276 14.4664588,7.7306314 15.0999849,6.82559405 C15.4211711,6.36695105 16.2336633,6.3424538 16.9488469,6.42819418 C16.9412955,6.7145675 16.9144693,7.00010735 16.8685504,7.28287608 C16.8106493,7.61933674 16.7740574,7.95911863 16.7589932,8.30019251 C16.7570098,8.68612604 16.78385,9.07166886 16.8392898,9.45360478 L16.8392898,9.45360478 Z M19.6680419,3.26124391 C20.4274567,4.23092679 19.5850234,8.64451499 17.1652393,12.4626839 C17.144825,12.4368257 17.1284935,12.4123284 17.1073986,12.3857897 L17.079499,12.3456415 C17.5588422,11.4341163 17.6996425,10.3822121 17.4768988,9.37671063 C17.4256003,9.02725295 17.4001267,8.67448972 17.4006851,8.32128736 C17.4145188,8.00569222 17.4488419,7.69132923 17.5034375,7.38018461 C17.5768878,6.97807205 17.6079063,6.56935768 17.5959827,6.16076585 C17.6061355,6.12237951 17.6107189,6.08273327 17.6095923,6.04304295 C17.0399253,4.02869682 15.6324837,2.35607434 13.7451508,1.45048871 C15.0938606,1.1694508 17.863411,0.951016967 19.66532,3.25784151 L19.6680419,3.26124391 Z M5.55898582,14.6667561 C5.07380413,15.2492463 4.74241076,15.1383282 4.63217312,15.1029432 C2.97112335,14.5483527 1.36042905,7.70885607 1.2801325,6.08183026 C1.18622637,4.2077905 1.63942553,2.90195088 2.62816183,2.20309873 C4.23137086,1.06533748 6.85802064,1.73697046 7.93181684,2.0860563 L7.9005148,2.11463643 C6.15032226,3.88388239 6.18774861,6.89228101 6.19251197,7.09166142 C6.19251197,7.15630695 6.1979558,7.26450314 6.20680203,7.40740378 C6.2709468,8.24824609 6.24951512,9.09342954 6.14283698,9.92994023 C5.99634737,10.9067437 6.30812769,11.8965584 6.98799217,12.6130698 C7.05711768,12.6793149 7.12956896,12.742 7.20506504,12.800882 C6.63883651,13.4071477 6.08992261,14.029356 5.55898582,14.6667561 L5.55898582,14.6667561 Z M7.45003756,12.1700778 C6.90635078,11.595023 6.65806703,10.801469 6.77704361,10.019083 C6.88935642,9.14040104 6.912156,8.25258541 6.84509154,7.36929694 C6.84091519,7.30855325 6.83751252,7.24775885 6.83488435,7.18692851 C7.48713127,6.69761771 8.29552761,6.46315616 9.10836541,6.52754415 C9.48831029,6.61277306 9.7714715,6.93098711 9.81198092,7.318261 C10.316216,9.65230471 9.88002884,10.6247095 9.52686013,11.4065801 C9.45336837,11.5698951 9.38395949,11.7250444 9.32271636,11.8829156 L9.27712426,12.0060823 C9.16608354,12.2863816 9.07067001,12.5726222 8.99132299,12.8634861 C8.40501872,12.8499006 7.84912239,12.5998086 7.45003756,12.1700778 L7.45003756,12.1700778 Z M7.53237554,15.3206966 C7.39682064,15.2866301 7.26719779,15.2322573 7.14790479,15.159423 C7.27987318,15.1069081 7.41660326,15.0672564 7.55619232,15.0410196 C8.67149775,14.8123786 8.84297852,14.6497441 9.21928352,14.1713672 C9.30298247,14.0658929 9.40165195,13.9406847 9.53706732,13.7896184 C9.73032341,13.573226 9.81402236,13.6072499 9.98073977,13.6759783 C10.1360375,13.7608531 10.2489666,13.9065761 10.2923992,14.0781415 C10.335305,14.2016779 10.3216139,14.337842 10.2549729,14.4503637 C9.63566014,15.304979 8.53258129,15.6576003 7.53237554,15.3206966 L7.53237554,15.3206966 Z M13.3368633,20.7291454 C12.8959176,20.8807077 12.4113986,20.8383221 12.0034665,20.6125002 C11.5955343,20.3866783 11.3023984,19.9985719 11.1967561,19.5444311 C10.9926124,19.0347522 10.8939429,16.73133 10.9640322,14.1856573 C10.9640322,14.1754501 10.9599494,14.1666038 10.9592689,14.1563966 L10.9592689,14.1434675 C10.9582741,14.1144977 10.953,14.0858342 10.9436179,14.0584076 C10.9378929,14.0065603 10.9285706,13.9551737 10.9157182,13.9046193 C10.8208176,13.5451862 10.5716666,13.2462049 10.235239,13.0880443 C10.0473201,12.9982203 9.83574511,12.9703439 9.63097345,13.0084282 C9.70275236,12.7449781 9.78861618,12.4855694 9.88819459,12.2313209 L9.93514766,12.1074737 C9.98754456,11.9652536 10.0515096,11.8237139 10.118877,11.6740085 C10.4883773,10.8533505 10.9953343,9.72783791 10.4455071,7.18760899 C10.369235,6.75101221 10.1187923,6.36416399 9.75166695,6.11586352 C9.38454156,5.86756306 8.93226529,5.77913648 8.49865603,5.8708817 C7.92707701,5.9518937 7.37504049,6.13636706 6.86958879,6.41526508 C6.93085842,5.0032388 7.45718038,3.65106983 8.36664306,2.56919654 C9.08343609,1.86434204 10.0595339,1.48685518 11.0640627,1.52602191 L11.151164,1.52602191 C13.7677126,1.60358326 16.0597629,3.30090566 16.8971305,5.78105845 C15.7403159,5.66401602 14.9856644,5.88925464 14.5835012,6.46153766 C13.7199731,7.69592696 15.0019959,9.99458576 15.6899604,11.2296555 C15.8110857,11.4467284 15.9036309,11.6100434 15.9396963,11.6978252 C16.1090266,12.0924461 16.3365678,12.459448 16.6147317,12.786592 C16.6705309,12.8546399 16.7249693,12.9226878 16.767159,12.9832505 C16.4330437,13.08192 15.8144881,13.3364192 15.8641631,14.4585294 C15.8219734,15.0192443 15.4967043,17.7343564 15.3265845,18.7230927 C15.1006654,19.9772159 14.637259,20.4467465 13.3368633,20.7291454 L13.3368633,20.7291454 Z M19.0025332,14.2441785 C18.2098135,14.5723025 17.3354392,14.649027 16.4976892,14.4639733 C16.4554995,13.7324581 16.7208864,13.6589663 17.0019243,13.5793503 C17.0325459,13.5711845 17.0754161,13.5589359 17.1237301,13.5412434 C17.1489078,13.5616578 17.1768075,13.5813917 17.2067486,13.6018061 C17.7055398,13.931158 18.5888019,13.9692649 19.8340788,13.7168071 C19.5824479,13.9300797 19.3017781,14.1065007 19.0004918,14.2407761 L19.0025332,14.2441785 Z" id="形状" fill="#FFFFFF"></path>
                        </g>
                        <rect id="矩形" x="0" y="0" width="24" height="24"></rect>
                    </g>
                </g>
            </g>
        </g>
    </g>
</svg>