<?xml version="1.0" encoding="UTF-8"?>
<svg width="24px" height="24px" viewBox="0 0 24 24" version="1.1" xmlns="http://www.w3.org/2000/svg" xmlns:xlink="http://www.w3.org/1999/xlink">
    <title>redis</title>
    <g id="页面-1" stroke="none" stroke-width="1" fill="none" fill-rule="evenodd">
        <g id="小号图标" transform="translate(-568.000000, -728.000000)">
            <g id="编组-72" transform="translate(568.000000, 728.000000)">
                <g id="redis_large备份" transform="translate(1.000000, 2.500000)" fill-rule="nonzero">
                    <path d="M21.1361464,14.537054 C19.9606845,15.1491814 13.8808113,17.6494405 12.5863246,18.324407 C11.291838,18.9993735 10.5721448,18.9930896 9.54934511,18.5040531 C8.52654542,18.0150166 2.05522116,15.4009076 0.889369969,14.8445963 C0.306814018,14.5640379 1.1073782e-05,14.3304241 1.1073782e-05,14.1082692 L1.1073782e-05,11.884872 C1.1073782e-05,11.884872 8.42563312,10.0507079 9.78554641,9.56278029 C11.1454597,9.07485271 11.6178623,9.05637061 12.7752117,9.48108938 C13.9325611,9.90580816 20.8541095,11.1537199 21.9981518,11.572894 L21.9981518,13.7648717 C21.9981518,13.9848087 21.7342273,14.2258154 21.1368857,14.537054 L21.1361464,14.537054 Z" id="路径" fill="#A41E11"></path>
                    <path d="M21.1361464,12.3129175 C19.9606845,12.9246752 13.8808113,15.425304 12.5863246,16.1002705 C11.291838,16.775237 10.5721448,16.768953 9.54934511,16.2799165 C8.52654542,15.79088 2.05522116,13.1749229 0.889369969,12.6204597 C-0.276481218,12.0659966 -0.300877596,11.6797206 0.844273633,11.2313447 C1.98942486,10.7829689 8.42563312,8.25757403 9.78591606,7.76964645 C11.146199,7.28171888 11.6178623,7.26397606 12.7752117,7.68795555 C13.9325611,8.11193504 19.9780577,10.5183051 21.1217304,10.9371096 C22.265403,11.3559141 22.3101297,11.7018991 21.1361464,12.3136568 L21.1361464,12.3129175 Z" id="路径" fill="#D82C20"></path>
                    <path d="M21.1361464,10.9112347 C19.9606845,11.5229923 13.8808113,14.0236212 12.5863246,14.6985876 C11.291838,15.3735541 10.5721448,15.3669006 9.54934511,14.8782337 C8.52654542,14.3895668 2.05522116,11.7750883 0.889369969,11.2187769 C0.306814018,10.9400668 0.00222892639,10.705344 0.00222892639,10.4831891 L0.00222892639,8.25868295 C0.00222892639,8.25868295 8.42748133,6.42488849 9.78739462,5.93659127 C11.1473079,5.44829406 11.6197105,5.43092088 12.7770599,5.85490037 C13.9344094,6.27887986 20.8541095,7.52753088 21.9981518,7.9474443 L21.9981518,10.1397916 C21.9977821,10.3586197 21.7349666,10.599996 21.1361464,10.9112347 Z" id="路径" fill="#A41E11"></path>
                    <path d="M21.1361464,8.68672851 C19.9606845,9.29885583 13.8808113,11.7994846 12.5863246,12.4744511 C11.291838,13.1494176 10.5721448,13.142764 9.54934511,12.6537275 C8.52654542,12.164691 2.05522116,9.5505821 0.889369969,8.99427073 C-0.276481218,8.43795937 -0.300877596,8.05390123 0.844273633,7.60515572 C1.98942486,7.15641021 8.42563312,4.63175466 9.78591606,4.14382708 C11.146199,3.65589951 11.6178623,3.63815669 12.7752117,4.06213618 C13.9325611,4.48611567 19.9780577,6.89211611 21.1217304,7.31129025 C22.265403,7.73046439 22.3101297,8.07571011 21.1361464,8.68783743 L21.1361464,8.68672851 Z" id="路径" fill="#D82C20"></path>
                    <path d="M21.1361464,7.15086558 C19.9606845,7.76262325 13.8808113,10.2632521 12.5863246,10.9385882 C11.291838,11.6139243 10.5721448,11.6065315 9.54934511,11.1178646 C8.52654542,10.6291977 2.05522116,8.01471917 0.889369969,7.4584078 C0.306814018,7.17969766 0.00222892639,6.94497493 0.00222892639,6.72282002 L0.00222892639,4.49831386 C0.00222892639,4.49831386 8.42748133,2.6645194 9.78739462,2.17659182 C11.1473079,1.68866425 11.6197105,1.67092143 12.7770599,2.09490092 C13.9344094,2.51888041 20.8559577,3.76753143 22,4.18670557 L22,6.37868323 C22,6.59825064 21.7360755,6.83925729 21.1387339,7.15086558 L21.1361464,7.15086558 Z" id="路径" fill="#A41E11"></path>
                    <path d="M21.1361464,4.92672905 C19.9606845,5.53848673 13.8808113,8.03911555 12.5863246,8.71408202 C11.291838,9.3890485 10.5721448,9.38239494 9.54934511,8.89372808 C8.52654542,8.40506123 2.05522116,5.78873443 0.889369969,5.23427128 C-0.276481218,4.67980813 -0.300877596,4.29353214 0.844273633,3.84515627 C1.98942486,3.3967804 8.42563312,0.871755206 9.78591606,0.383827633 C11.146199,-0.10409994 11.6178623,-0.121842761 12.7752117,0.302136729 C13.9325611,0.726116219 19.9780577,3.1324863 21.1217304,3.5512908 C22.265403,3.9700953 22.3101297,4.3160803 21.1361464,4.92783798 L21.1361464,4.92672905 Z" id="路径" fill="#D82C20"></path>
                    <path d="M13.8815505,2.78502272 L11.9756759,2.98315089 L11.5487392,4.009647 L10.8597264,2.86412613 L8.65850765,2.66636761 L10.3008275,2.07383132 L9.80809458,1.16488139 L11.3458057,1.76628909 L12.795542,1.29166863 L12.4037214,2.2316685 L13.8815505,2.78502272 L13.8815505,2.78502272 Z M11.4348895,7.76631967 L7.87745389,6.29070841 L12.9751881,5.50854572 L11.4348895,7.76631967 Z" id="形状" fill="#FFFFFF"></path>
                    <ellipse id="椭圆形" fill="#FFFFFF" cx="6.50312456" cy="4.41181761" rx="2.72463193" ry="1.05606748"></ellipse>
                    <polygon id="路径" fill="#7A0C00" points="16.1341495 3.06595072 19.1511683 4.25804649 16.136737 5.44903334"></polygon>
                    <polygon id="路径" fill="#AD2115" points="12.796651 4.38594266 16.1341495 3.06595072 16.136737 5.44903334 15.8096037 5.57692951"></polygon>
                </g>
                <rect id="矩形" x="0" y="0" width="24" height="24"></rect>
            </g>
        </g>
    </g>
</svg>