<?xml version="1.0" encoding="UTF-8"?>
<svg width="24px" height="24px" viewBox="0 0 24 24" version="1.1" xmlns="http://www.w3.org/2000/svg" xmlns:xlink="http://www.w3.org/1999/xlink">
    <title>mssql</title>
    <g id="页面-1" stroke="none" stroke-width="1" fill="none" fill-rule="evenodd">
        <g id="UI_低代码平平台_icon" transform="translate(-389.000000, -246.000000)">
            <g id="编组-3备份" transform="translate(220.000000, 230.000000)">
                <g id="编组-5" transform="translate(150.000000, 0.000000)">
                    <g id="mssql" transform="translate(19.000000, 16.000000)">
                        <g id="编组-3备份" transform="translate(3.000000, 1.000000)" fill-rule="nonzero">
                            <g id="mssql">
                                <path d="M11.9853288,10.2706174 L7.82460876,11.7094484 L4.20551568,13.4008914 L3.1914451,13.6836331 C2.65460655,14.2186849 2.09751301,14.7330218 1.52138443,15.2255175 C1.26753545,15.4391347 0.889280141,15.8387429 0.698282268,16.0925919 C0.411770732,16.4708177 0.185577415,16.8741958 0.0875603106,17.1833267 C-0.0858545661,17.7438031 -0.000413574722,18.3092864 0.332603071,18.8320345 C0.759866933,19.4980383 1.61309876,20.1766183 2.60711236,20.641581 C3.11351443,20.8765806 3.96550926,21.1806751 4.60765677,21.3503201 C5.67326881,21.6368316 7.73666433,21.9459625 8.87140081,21.9924676 C9.10136401,22.0025108 9.40922843,22.0025108 9.42180455,21.9924676 C9.44692732,21.9761216 9.62287509,21.6192486 9.82768607,21.1769052 C10.5263819,19.6689497 11.0290435,18.2527381 11.302979,17.0438703 C11.4663506,16.3112454 11.5957638,15.3348443 11.6799678,14.1799919 C11.7025872,13.8570479 11.7113934,12.7750899 11.6925439,12.4081443 C11.6713361,11.8848132 11.6188765,11.3632169 11.5354456,10.8461439 C11.5243991,10.8017986 11.5214261,10.7558267 11.5266688,10.7104279 C11.5392155,10.7003847 11.5769144,10.6865716 12.0896192,10.5307397 L11.9853288,10.2706174 L11.9853288,10.2706174 Z M11.0353169,10.859957 C11.0730158,10.859957 11.1735363,11.8828633 11.1986885,12.5287807 C11.2069161,12.6040073 11.2060657,12.6799505 11.1961556,12.754974 C11.1710329,12.754974 10.6646013,12.4383034 10.3039585,12.1982969 C9.98852483,11.9884202 9.39037899,11.5699625 9.29613177,11.4895579 C9.26473567,11.4656721 9.26850556,11.4631687 9.52609498,11.3689214 C10.0258593,11.1896156 10.5290264,11.0199392 11.0353169,10.8599865 L11.0353169,10.859957 Z M8.91537302,11.5988846 C8.94429514,11.5988846 9.01592302,11.6428569 9.1893379,11.7559535 C9.83775874,12.1857208 10.7186462,12.704699 11.0956351,12.8781139 C11.2125016,12.9308923 11.2250778,12.9108059 10.9574157,13.1043072 C10.3843926,13.517758 9.67061719,13.9236395 8.79600303,14.3332909 C8.70199656,14.3787697 8.60688613,14.4219303 8.51075795,14.4627336 C8.51705457,14.400863 8.5296871,14.3398025 8.54845683,14.2805125 C8.75830415,13.451137 8.87767414,12.6117182 8.88397692,11.9394116 C8.88774681,11.6064244 8.88774681,11.6064244 8.91537302,11.5963518 C8.90909969,11.5988846 8.91286958,11.5988846 8.91537302,11.5988846 L8.91537302,11.5988846 Z M8.47933239,11.774803 C8.49818183,11.7961559 8.48560572,12.5413568 8.46048295,12.7449308 C8.39435024,13.3157471 8.27314925,13.8788267 8.09857364,14.4263011 C8.08599753,14.4426177 7.65499323,13.9965338 7.51297445,13.8231189 C7.28591945,13.549448 7.09190497,13.2499741 6.9349445,12.9308923 C6.86376824,12.7852734 6.80491328,12.6339489 6.75899673,12.4785057 C6.80927173,12.4408068 8.46675628,11.7622269 8.47933239,11.774803 L8.47933239,11.774803 Z M6.42223965,12.6318341 C6.42474309,12.6318341 6.42851298,12.6318341 6.43101642,12.6343376 C6.45097243,12.6728337 6.46697797,12.7132521 6.47878798,12.754974 C6.57930852,13.043989 6.80550184,13.4712528 7.0002696,13.7439513 C7.25445752,14.1006886 7.55017356,14.4259269 7.88118654,14.7128127 C7.90003599,14.7328991 7.90630932,14.7291292 7.39360447,14.9364731 C6.79922851,15.1752425 6.15080767,15.4152489 5.40813961,15.6690979 C5.23118856,15.7293172 5.05441535,15.7900578 4.87782231,15.851319 C4.84892964,15.8613622 4.85897286,15.8450162 4.94067342,15.7093002 C5.30885606,15.0998447 5.86806602,13.9035236 6.18220377,13.0578315 C6.23624866,12.9108059 6.29029355,12.7650172 6.29907032,12.7310882 C6.31164643,12.6846126 6.32799243,12.6682666 6.36819476,12.6443808 C6.39081409,12.6381075 6.41216698,12.6318341 6.42223965,12.6318341 L6.42223965,12.6318341 Z M5.79390524,12.908273 C5.80271147,12.9145758 5.6418727,13.2714487 5.48477437,13.5969256 C5.10795104,14.3716913 4.69318259,15.1274197 4.24197757,15.8613622 C4.22689802,15.8852186 4.22062469,15.8789452 4.17034969,15.7759212 C4.05688392,15.5297066 3.97537614,15.2699903 3.92781037,15.0030941 C3.88258593,14.673321 3.88767033,14.3385943 3.94288993,14.0103469 C3.9843587,13.8042695 3.98058881,13.8067729 4.07610248,13.7577644 C4.47821411,13.5403773 5.78009213,12.8944599 5.79266825,12.908273 L5.79390524,12.908273 Z M11.218775,13.1407691 L11.218775,13.281492 C11.2100771,14.2000851 11.1353309,15.1168636 10.9951145,16.0247339 C10.9951145,16.0247339 10.9033708,15.9995817 10.7965474,15.9656527 C10.2935708,15.7962476 9.80898852,15.576479 9.35017666,15.309692 C9.04481568,15.1337737 8.60120582,14.8422259 8.61378193,14.8296792 C8.61755182,14.8259093 8.74949792,14.753015 8.90282636,14.6663075 C9.51982165,14.3270176 10.1116942,13.9600719 10.624399,13.5981626 C10.8153969,13.4599432 11.1044413,13.2412896 11.1685294,13.1809714 L11.218775,13.1407691 L11.218775,13.1407691 Z M3.41763841,14.1272135 C3.43018507,14.1272135 3.42768163,14.1523362 3.40883219,14.2730021 C3.39288048,14.3915058 3.38114128,14.5105384 3.37363674,14.6298751 C3.34851397,15.1161907 3.42391174,15.4755671 3.65010506,15.9681856 C3.71292672,16.1051385 3.76320172,16.2182352 3.76069828,16.2220051 C3.73931594,16.2408545 1.65710043,16.8880384 1.0023768,17.0765328 L0.625387937,17.1870966 C0.602768605,17.1933994 0.600265164,17.1908665 0.609071388,17.1343181 C0.681936266,16.6442326 1.03380236,16.004618 1.52515432,15.4655239 C1.85186819,15.1061181 2.11325695,14.8962707 2.5593408,14.6261052 C2.87978133,14.4325744 3.37363674,14.1435595 3.41133563,14.1297169 C3.41133563,14.1272135 3.41510552,14.1272135 3.41763841,14.1272135 L3.41763841,14.1272135 Z M8.32476696,15.0571095 C8.38371879,15.0844762 8.44044006,15.1164114 8.49441194,15.1526232 C9.24603579,15.5965466 10.0572134,15.930838 10.9033708,16.1453703 L10.9762651,16.1616869 L10.8757151,16.2220051 C10.4572575,16.4683143 9.08251457,17.0739999 7.67634611,17.62944 L7.2327657,17.8066248 C7.2104639,17.8186937 7.18622244,17.8267675 7.16113782,17.8304811 C7.16113782,17.8267407 7.21768615,17.7098741 7.28931403,17.5665889 C7.68261944,16.7874884 8.07972419,15.8387429 8.28079474,15.1790124 C8.30591751,15.1161907 8.32099707,15.0596424 8.32476696,15.0558725 L8.32476696,15.0571095 Z M7.82463822,15.2292874 C7.81082782,15.2817735 7.79275274,15.3330437 7.77059333,15.3825864 C7.45382771,16.1794442 7.08958657,16.9566002 6.67982907,17.7098741 C6.61075106,17.8440575 6.53826517,17.9764589 6.46244197,18.1069494 C6.45993853,18.1069494 6.36569132,18.0466312 6.25259466,17.9737663 C5.58532437,17.5402291 4.99345186,17.0074084 4.60639032,16.4909336 L4.549842,16.4180393 L4.83635353,16.3351018 C5.78085621,16.067882 6.70411398,15.730592 7.5984449,15.3260381 C7.72031833,15.2719932 7.82086833,15.2292874 7.82463822,15.2292874 L7.82463822,15.2292874 Z M10.9322634,16.377837 C10.9322634,16.377837 10.9347963,16.3816069 10.9322634,16.377837 C10.9347963,16.4545012 10.7751946,17.1406209 10.6432485,17.6369798 C10.4836336,18.2351421 10.3093217,18.8292856 10.1204709,19.4188706 C9.22937041,19.2555013 8.35851507,18.9963905 7.52304713,18.6460435 C7.33513094,18.5672133 7.15065207,18.4804274 6.97011049,18.3859212 C6.96257072,18.3796478 7.15106515,18.2854006 7.39110102,18.1760739 C8.82112581,17.5138399 10.3064619,16.7610992 10.8153969,16.4381552 C10.8507538,16.4117328 10.890244,16.3913508 10.9322634,16.377837 L10.9322634,16.377837 Z M3.75692839,16.6379593 C3.76446817,16.6442326 3.36485997,17.2537176 2.80438356,18.0830931 L2.29798149,18.8395742 C2.21377749,18.965247 2.08433483,19.1662881 2.01270695,19.2856876 L1.88076085,19.5018082 L1.73877153,19.3761649 C1.52704032,19.1809595 1.33121943,18.9691739 1.15317234,18.7428236 C0.902450245,18.4264079 0.723256273,18.0594291 0.627920831,17.6671389 C0.593991833,17.5075371 0.593991833,17.427103 0.625387937,17.4170892 C0.671893047,17.4045131 1.51257821,17.1933994 2.29798149,17.001135 C2.78539292,16.8824093 3.27212867,16.7609266 3.75816538,16.6366928 L3.75692839,16.6379593 Z M4.16030647,16.8013309 L4.26082702,16.9207009 C4.71321365,17.4572916 5.17690995,17.8531299 5.73609047,18.1999596 C5.83664046,18.2590114 5.91203824,18.3130563 5.90573545,18.3168262 C4.66114624,18.7969099 3.41157597,19.2639794 2.15722917,19.7179583 C2.13530824,19.7052215 2.11431533,19.6909507 2.09440751,19.6752525 L2.03785918,19.6312509 L2.1283365,19.491765 C2.42489126,19.0393783 2.79560679,18.5430195 3.60359995,17.51007 L4.16030647,16.8013309 L4.16030647,16.8013309 Z M6.66978585,18.7025918 C6.67355574,18.6988219 6.81177517,18.7528668 6.98142016,18.8194584 C7.39110102,18.98283 7.714045,19.0858835 8.14884864,19.2014836 C8.72828115,19.3520477 9.3179602,19.4599842 9.91315651,19.5244275 C9.9822515,19.5319673 10.0199504,19.5382701 10.0074037,19.5495798 C9.9847844,19.5621264 9.52359154,19.7254981 9.18303511,19.8385947 C7.84967392,20.2676255 6.51214363,20.6835899 5.17063662,21.0864279 C5.13921107,21.0939676 5.03492063,21.0638085 5.03492063,21.0499954 C5.03492063,21.0436926 5.11031841,20.9406687 5.20203273,20.827572 C5.65441936,20.2545489 6.10430256,19.6149049 6.47878798,19.0092192 C6.58181196,18.8420777 6.66978585,18.7063617 6.66978585,18.7026213 L6.66978585,18.7025918 Z M6.11689958,18.7189378 C6.11938211,18.7227077 5.89695868,19.1022 5.50615671,19.7543907 L5.08769907,20.4543825 C5.02484796,20.5611764 4.93060075,20.7270515 4.87782231,20.8200617 L4.78610798,20.9909437 L4.73960287,20.9771306 C4.62650621,20.9432016 3.82982272,20.6478838 3.61994595,20.5574359 C3.36910229,20.4517143 3.1241277,20.3325746 2.88608412,20.2005335 C2.63473857,20.0572777 2.32060082,19.8448975 2.3457236,19.8386242 C2.35199693,19.8348543 2.78303068,19.711685 3.30077187,19.5621559 C4.18649033,19.3141943 5.06753882,19.0498444 5.94346379,18.7692423 C5.99992877,18.7481666 6.05789672,18.7313611 6.11689958,18.7189673 L6.11689958,18.7189378 Z M10.0325265,19.6915691 L10.0350299,19.6915691 C10.0476061,19.7242611 9.53867109,21.2233809 9.3526801,21.6958834 C9.31247778,21.8027067 9.29613177,21.8290959 9.27477889,21.8265925 C8.0448151,21.6577367 6.8209787,21.4469123 5.60541081,21.1944882 L5.52877604,21.1769052 L5.99747923,21.0638085 C7.0028025,20.8237727 7.48785168,20.6943595 7.97920365,20.5335207 C8.59870238,20.3337166 9.21069078,20.0849039 9.83145596,19.7782765 C9.89623105,19.7444163 9.96344091,19.7154334 10.0325265,19.6915691 Z M7.69519556,0.000174344192 C7.62607111,-0.00986887472 6.51018408,0.41612854 5.79013535,0.726525854 C4.81750409,1.14622049 4.06352636,1.54582868 3.59732662,1.89142144 C3.42517819,2.02210109 3.20776164,2.2520643 3.17259565,2.34127518 C3.1596949,2.37756821 3.15331351,2.41585657 3.15372559,2.45437184 L3.57597374,2.87786581 L4.57876411,3.21715579 L6.9663406,3.66954242 L9.69573997,4.16590127 L9.72466208,3.91708863 C9.71458941,3.91708863 9.70831608,3.91331874 9.69950986,3.91331874 L9.34013344,3.85300052 L9.26850556,3.71728453 C8.89714697,3.02244733 8.55709414,2.31132682 8.24936918,1.58606046 C8.06845517,1.14864153 7.91485136,0.700420567 7.78944277,0.24398011 C7.73666433,0.0177867926 7.730391,0.00394423282 7.69519556,0.000174344192 L7.69519556,0.000174344192 Z M7.64492056,0.169819332 L7.64869044,0.169819332 C7.65122334,0.173589221 7.66377,0.266599442 7.67634611,0.377163207 C7.730391,0.842125954 7.82714166,1.29200915 7.98170709,1.77832478 C8.09857364,2.14524097 8.09857364,2.12515453 7.96285765,2.08115287 C7.64241711,1.9881721 6.20485255,1.72554634 5.16433384,1.5722179 C5.06066551,1.55956961 4.95754057,1.54280788 4.85520297,1.52197235 C4.84265631,1.50939624 5.60667726,1.08590227 5.94346379,0.918790174 C6.37446809,0.710179853 7.55697612,0.186165334 7.64492056,0.169819332 L7.64492056,0.169819332 Z M4.61395955,1.66148769 L4.73586244,1.7054599 C5.40186628,1.94422933 7.07946671,2.28478576 8.00308943,2.36519041 L8.19912364,2.3853063 C8.20165653,2.38780974 8.11368264,2.43808474 8.00058599,2.49463307 C7.55447268,2.73086961 7.06312071,3.02115103 6.72383074,3.24357446 C6.65944444,3.29004372 6.59087936,3.33042948 6.51901976,3.3642109 C6.50644364,3.3642109 6.44111854,3.35163478 6.3719941,3.34035457 L6.24632133,3.32023868 L5.93218358,2.99349536 C5.54915715,2.59954707 5.16377731,2.2078938 4.77606476,1.81855656 L4.61272256,1.66148769 L4.61395955,1.66148769 Z M4.48831623,1.76577812 L4.9306302,2.3513773 C5.17316952,2.67432128 5.41821228,2.99099192 5.47099072,3.06011636 C5.52503561,3.1304778 5.56900782,3.18702613 5.56650438,3.19079602 C5.00182265,3.09630847 4.44394027,2.96491529 3.89644372,2.79746116 L3.72302884,2.73714294 L3.72302884,2.69066728 C3.72679873,2.46824385 3.99446082,2.1352272 4.44684746,1.79467078 L4.48704979,1.76577812 L4.48831623,1.76577812 Z M8.25567197,2.56499451 C8.26824808,2.56499451 8.28332763,2.59388717 8.32102652,2.6843645 C8.42911629,2.93444359 8.76083704,3.60675022 8.84380404,3.73616342 C8.86892682,3.78016509 8.91289903,3.78393498 8.46931862,3.70727076 C7.40367714,3.52378321 7.06061727,3.46349445 7.06061727,3.45595467 C7.08220754,3.43650582 7.10629598,3.42002425 7.13224516,3.40694612 C7.46275836,3.21341535 7.79574555,2.96710614 8.09232976,2.70448039 L8.2431253,2.57126784 C8.24562875,2.56499451 8.25190208,2.56122462 8.25567197,2.56499451 L8.25567197,2.56499451 Z" id="形状" fill="#CCCCCC"></path>
                                <path d="M3.19521498,2.29479952 C3.19521498,2.29479952 3.12609054,2.41166607 3.1914451,2.5838145 C3.23291387,2.69063783 3.35228386,2.82131748 3.48799985,2.95453003 C3.48799985,2.95453003 4.88662853,4.39963437 5.05627352,4.60574125 C5.83036713,5.55198329 6.16712422,6.48438278 6.19854977,7.7699148 C6.21739921,8.59552041 6.06910711,9.32187192 5.70219092,10.1637941 C5.04746729,11.6755194 3.66645106,13.3443431 1.53770098,15.1953584 L1.84936475,15.0860316 C2.05040584,14.9264299 2.32437071,14.7567849 2.96525178,14.3822994 C4.44681801,13.5240313 6.11310878,12.7348581 8.15762541,11.9218286 C11.1019084,10.7506597 15.9424454,9.37842025 18.696997,8.9310405 L18.9835085,8.88456484 L18.9395069,8.81167051 C18.746326,8.48611675 18.535313,8.17148027 18.307432,7.86919835 C17.6985711,7.07386127 16.939973,6.40534169 16.0743915,5.90131649 C14.8416379,5.17246154 13.2469751,4.60320835 11.2275812,4.17974383 C10.5972716,4.05355402 9.96465389,3.93918068 9.33006077,3.83668397 C8.19644991,3.65212698 7.06459885,3.45691863 5.93465757,3.25108479 C5.50529791,3.17614871 5.07753062,3.09235884 4.65162899,2.99976869 C4.36935596,2.93698056 4.09079746,2.85852598 3.81724661,2.76476915 C3.59105329,2.67052194 3.26430997,2.57754117 3.19521498,2.29479952 L3.19521498,2.29479952 Z M4.00694858,3.12791546 C4.00948147,3.12414557 4.05972702,3.144232 4.12634802,3.16685134 C4.24571801,3.21085301 4.399017,3.25986156 4.58250455,3.31387699 L4.99719229,3.43074354 C5.18568673,3.48101854 5.3427556,3.52752365 5.34652549,3.52752365 C5.36787837,3.55014298 5.68581547,4.62579823 5.79263879,5.03924899 C5.83410757,5.19505142 5.86550367,5.32826397 5.86173378,5.32826397 C5.83102959,5.28815052 5.80490063,5.24473397 5.78383257,5.19882131 C5.41564993,4.51270158 4.83382064,3.81653863 4.16027702,3.25732866 C4.07230313,3.19073712 4.00694858,3.13168534 4.00694858,3.12791546 L4.00694858,3.12791546 Z M5.55260292,3.58030209 C5.56894892,3.58030209 5.63931036,3.59034531 5.72351435,3.6104612 C6.25883854,3.73610452 7.21762724,3.92963529 7.83088209,4.0402285 C7.89444422,4.04648846 7.95694675,4.0608398 8.01687308,4.08293427 C8.01687308,4.08923705 7.9791742,4.11309338 7.93140264,4.1394826 C7.70629653,4.27171131 7.48584166,4.41170339 7.27043514,4.55920669 C6.95053156,4.78114623 6.65260817,5.0331996 6.38074142,5.31191796 C6.29026409,5.40869807 6.21109643,5.48786573 6.21109643,5.48786573 C6.21109643,5.48786573 6.19224699,5.43131741 6.17590099,5.36219296 C6.03049216,4.8044062 5.8422739,4.25866681 5.61292114,3.72983119 C5.58912561,3.67994861 5.56815199,3.62876826 5.55009948,3.5765322 C5.55009948,3.58407198 5.55009948,3.58030209 5.55386936,3.58030209 L5.55260292,3.58030209 Z M8.2769954,4.12943938 C8.29584484,4.13571271 8.32724094,4.25007582 8.39009206,4.49888847 C8.53008716,5.09205309 8.57504084,5.70367968 8.52327515,6.31093845 L8.51323193,6.34363045 L8.34986028,6.28708212 C8.01310319,6.17398546 7.46646934,6.00434048 6.99773671,5.8648546 C6.83361705,5.82176607 6.67172677,5.7705942 6.51265807,5.71152616 C6.51265807,5.69143972 6.90222304,5.27798897 7.06936459,5.12092009 C7.38730168,4.82560233 8.24933973,4.11939616 8.2769954,4.12943938 L8.2769954,4.12943938 Z M8.49438249,4.16336838 C9.12653137,4.26638275 9.75663251,4.38159199 10.3843337,4.50893169 C10.8216702,4.59940901 11.457515,4.73889489 11.4952138,4.75524089 C11.5140633,4.76278067 11.4474717,4.80174601 11.237595,4.90226655 C10.4069825,5.29810486 9.78995773,5.65497783 9.17673233,6.08727803 C9.01713056,6.20037468 8.88141457,6.2946219 8.87764468,6.2946219 C8.87159364,6.22357776 8.8694993,6.15225203 8.87137135,6.08097524 C8.87422713,5.4609062 8.75908318,4.84595555 8.53208138,4.26892526 C8.51577729,4.23518866 8.50313871,4.19980064 8.49438249,4.16336838 L8.49438249,4.16336838 Z M11.8370073,4.86206422 C11.8273719,5.01037868 11.8046644,5.15755325 11.7691493,5.30187475 C11.6560526,5.7982336 11.3506916,6.53336188 10.9762357,7.22702139 C10.9363591,7.30474029 10.8923129,7.38024809 10.8442896,7.4532147 C10.7786317,7.42285395 10.715587,7.38713516 10.6557951,7.34642083 C10.2597645,7.10488571 9.84743177,6.89115645 9.42177509,6.70677676 C9.29610232,6.65022843 9.18677555,6.60375277 9.18300566,6.59744999 C9.16165278,6.57736355 10.1744864,5.86862449 10.7085736,5.52933451 C11.1333045,5.25536963 11.8256976,4.84948811 11.8382737,4.86330122 L11.8370073,4.86206422 Z M12.0757767,4.90226655 C12.1046693,4.90226655 12.6776924,5.0694081 12.9767801,5.16238887 C13.7156782,5.39485551 14.5651402,5.72536872 15.1180768,5.99176436 L15.34804,6.10109113 L15.1872012,6.14129346 C13.946839,6.43413321 12.7335985,6.83182379 11.5605684,7.33007483 C11.5021536,7.35691176 11.4426152,7.3812322 11.3821172,7.40296916 C11.3758438,7.40296916 11.40724,7.32757138 11.4474717,7.23332417 C11.7842288,6.47681355 12.0003789,5.68766983 12.0544238,5.01536321 C12.0581937,4.95254155 12.0669705,4.90226655 12.0770431,4.90226655 L12.0757767,4.90226655 Z M6.37823798,6.28708212 C6.38701475,6.27700945 6.82432183,6.38760267 7.06055837,6.45796411 C7.41869779,6.56352099 8.17897829,6.83371597 8.17897829,6.85380241 C8.17897829,6.8575723 8.0947743,6.93423652 7.99425375,7.02721729 C7.58206944,7.39039304 7.18623114,7.77241824 6.71122517,8.25873387 C6.62553748,8.34900414 6.53624423,8.43578209 6.44356308,8.51885619 C6.43728975,8.51885619 6.43475686,8.4987403 6.43728975,8.47235108 C6.51015463,7.91314112 6.49383808,7.19309239 6.39328808,6.46426689 C6.38451131,6.37125667 6.37443864,6.29085201 6.37820853,6.28831912 L6.37823798,6.28708212 Z M15.5641901,6.29712534 C15.5704634,6.30466512 15.3631196,6.65025788 15.2311735,6.84752908 C15.042679,7.13404062 14.7662107,7.51353292 14.1404092,8.34544131 L13.31607,9.44748579 C13.1903973,9.61462733 13.0861068,9.75411321 13.0836034,9.75411321 C13.0512279,9.71180083 13.0218325,9.66728939 12.9956295,9.62090066 C12.6453724,9.06572353 12.2161268,8.56451702 11.7214072,8.1330611 C11.6453108,8.06444434 11.5678054,7.99740653 11.4889405,7.93199056 C11.4659013,7.91608327 11.4448069,7.89752929 11.4260894,7.87670868 C11.4260894,7.86666546 11.9601766,7.62285969 12.3660581,7.44944481 C13.1553255,7.11351092 13.9581651,6.81040356 14.7725135,6.54090166 C15.1532722,6.41525834 15.5578873,6.29085201 15.5641901,6.29712534 L15.5641901,6.29712534 Z M15.8067,6.36371689 C15.8192761,6.36121345 15.8946739,6.40141578 15.9864176,6.45796411 C16.9992692,7.07174928 17.9036718,7.84877127 18.6630386,8.75759617 L18.3488714,8.78525183 C17.0244035,8.89207516 15.3291906,9.18736347 13.6993322,9.60458411 C13.5900055,9.63097333 13.4919884,9.65482966 13.485715,9.65482966 C13.4794417,9.65482966 13.6025816,9.52415 13.7558806,9.36831812 C14.7121953,8.39191697 15.1507394,7.77618813 15.6659771,6.67661765 C15.737605,6.51327544 15.8004266,6.37502656 15.8067,6.36371689 C15.8041965,6.36371689 15.8041965,6.36371689 15.8067,6.36371689 L15.8067,6.36371689 Z M8.80224691,7.1239974 C8.84624858,7.13404062 9.25463355,7.3376146 9.56376441,7.50098626 C9.84650606,7.64924891 10.2712665,7.89052178 10.2926194,7.90937123 C10.1843107,7.97530557 10.0732013,8.03652527 9.95960272,8.09285877 C9.36899665,8.40575953 8.86256513,8.70231428 8.33354373,9.04160426 C8.18274818,9.13835492 8.05707541,9.21752258 8.05457197,9.21752258 C8.04199586,9.21752258 8.0444993,9.20497592 8.12996974,9.04160426 C8.41271139,8.49497041 8.63890471,7.84277968 8.76831791,7.20693495 C8.78089403,7.15665995 8.79347014,7.1239974 8.80224691,7.1239974 L8.80224691,7.1239974 Z M8.39386195,7.20316506 C8.34942978,7.4200482 8.29491342,7.63474264 8.23049029,7.84654957 C8.08431753,8.31249385 7.89806248,8.76490215 7.67381322,9.19870259 L7.50667167,9.50403411 L7.42877046,9.63724666 L7.25282269,9.45755846 C7.08335314,9.27509321 6.88563814,9.121074 6.66725296,9.00140193 C6.61383845,8.97582135 6.56329009,8.94464328 6.51645741,8.90839171 C6.51645741,8.88200249 7.05428504,8.36552775 7.46646934,7.99230878 C7.76175765,7.72340969 8.38378927,7.19309239 8.39386195,7.20316506 L8.39386195,7.20316506 Z M10.8945351,8.29266287 L11.0478635,8.39945675 C11.6529329,8.81441744 12.2156814,9.28793707 12.7279674,9.81316498 L12.7656663,9.85716665 L12.5105803,9.93380142 C11.2069975,10.3102998 9.92137097,10.7463963 8.65775415,11.2407158 C8.56677712,11.2777653 8.47456785,11.3117139 8.38128583,11.3425028 C8.36243639,11.3425028 8.34609039,11.3588193 8.67030081,11.0434151 C9.47177692,10.2708898 10.1810615,9.40811764 10.7839713,8.47235108 L10.8945351,8.29266287 L10.8945351,8.29266287 Z M10.2373375,8.46607775 C10.2436108,8.47235108 9.81257706,9.11449859 9.55498764,9.47764489 C9.24585677,9.91118209 8.69922292,10.6362671 8.32096761,11.1100067 C8.22454756,11.2333775 8.1252465,11.3544694 8.02314641,11.4731824 C8.01310319,11.4756859 8.0105703,11.4254403 8.0105703,11.3500425 C8.0105703,10.9466645 7.9125532,10.5168972 7.74290821,10.1499515 C7.67004333,9.99788952 7.65746722,9.96145709 7.67381322,9.94387409 C7.73286499,9.88732576 8.64894792,9.33438913 9.22700733,9.00517182 C9.55844727,8.81524627 9.89536786,8.63504915 10.2373375,8.4648113 L10.2373375,8.46607775 Z M6.26134198,9.49776078 C6.51444595,9.62574255 6.75080612,9.78444039 6.96507416,9.97026331 C6.91182305,10.0313354 6.85101639,10.0853824 6.7841195,10.1311021 C6.48503185,10.3572954 6.03137877,10.7204417 5.76748657,10.9428946 C5.4910477,11.1766277 5.48097503,11.182901 5.51240059,11.132626 C5.72101091,10.7971059 5.8240349,10.6073745 5.93462812,10.3635687 C6.03137877,10.1474481 6.12939588,9.89109565 6.19852032,9.66740577 C6.21050753,9.60793351 6.23170313,9.55069643 6.26134198,9.49776078 L6.26134198,9.49776078 Z M7.32194713,10.3774113 C7.33702668,10.3736414 7.35587613,10.4025341 7.44131712,10.5369836 C7.61976833,10.8197252 7.75798776,11.199247 7.79318321,11.505845 L7.79945654,11.572466 L7.36845224,11.7483843 C6.59812851,12.0650549 5.88688601,12.3779557 5.40557726,12.6116888 C5.13572354,12.7447277 4.86762606,12.8812998 4.60135399,13.0213697 C4.60135399,13.0175703 4.69810465,12.9409355 4.81747464,12.8479253 C5.7587098,12.1253732 6.57300574,11.3324301 7.18246125,10.5407535 C7.2490528,10.4565789 7.30813402,10.3799147 7.3156738,10.3774113 L7.32194713,10.3774113 L7.32194713,10.3774113 Z M6.83436505,10.5030546 C6.84694116,10.5168972 6.4875353,10.9466645 6.24375898,11.2092902 C5.66270737,11.8429678 5.00650151,12.4033742 4.28969023,12.8780844 L4.1011958,13.0037572 C4.07857646,13.0175998 4.10749858,12.9849078 4.43421244,12.6079189 C4.6263856,12.389292 4.80797069,12.1615809 4.97834285,11.9255691 C5.06018034,11.7995455 5.16711833,11.6917453 5.2924806,11.6088984 C5.75493991,11.2570323 6.82181839,10.4905079 6.83436505,10.5030546 L6.83436505,10.5030546 Z" id="形状" fill="#E7332B"></path>
                            </g>
                        </g>
                        <rect id="矩形备份-28" x="0" y="0" width="24" height="24"></rect>
                    </g>
                </g>
            </g>
        </g>
    </g>
</svg>