<?xml version="1.0" encoding="UTF-8"?>
<svg width="24px" height="24px" viewBox="0 0 24 24" version="1.1" xmlns="http://www.w3.org/2000/svg" xmlns:xlink="http://www.w3.org/1999/xlink">
    <title>http</title>
    <g id="页面-1" stroke="none" stroke-width="1" fill="none" fill-rule="evenodd">
        <g id="画板" transform="translate(-544.000000, -59.000000)">
            <g id="编组-4备份-2" transform="translate(528.000000, 43.000000)">
                <g id="http" transform="translate(16.000000, 16.000000)">
                    <rect id="矩形备份-6" x="0" y="0" width="24" height="24"></rect>
                    <g id="下载" transform="translate(0.000000, 9.000000)" fill="#D40000" fill-rule="nonzero">
                        <g id="编组-7">
                            <path d="M0.0776196593,0 L3.84993532,0 L3.84993532,0.522875814 L0.807244503,4.42810458 L3.92755499,4.42810458 L3.92755499,5 L0,5 L0,4.47712417 L3.04269081,0.571895422 L0.0776196593,0.571895422 L0.0776196593,0 Z M6.47347994,0.669934643 L5.58861578,3.15359476 L7.3583441,3.15359476 L6.47347994,0.669934643 L6.47347994,0.669934643 Z M6.10090556,0 L6.83053041,0 L8.66235447,5 L7.99482535,5 L7.56015524,3.7254902 L5.38680465,3.7254902 L4.95213454,5 L4.26908149,5 L6.10090556,0 Z M10.0129366,2.61437909 L10.0129366,4.44444445 L11.0530401,4.44444445 C11.4100906,4.44444445 11.6584735,4.36274509 11.8292367,4.21568628 C12,4.06862745 12.0776197,3.83986928 12.0776197,3.52941176 C12.0776197,3.21895426 12,2.99019607 11.8292367,2.84313726 C11.6584735,2.69607843 11.3945666,2.61437909 11.0530401,2.61437909 L10.0129366,2.61437909 Z M10.0129366,0.555555551 L10.0129366,2.05882353 L10.9754204,2.05882353 C11.2858991,2.05882353 11.534282,1.99346405 11.6895213,1.87908496 C11.8447607,1.74836601 11.9223803,1.56862745 11.9223803,1.30718954 C11.9223803,1.0620915 11.8447607,0.866013068 11.6895213,0.735294113 C11.534282,0.604575156 11.301423,0.555555551 10.9754204,0.555555551 L10.0129366,0.555555551 Z M9.36093144,0 L11.0219922,0 C11.5187581,0 11.8913325,0.114379084 12.1707633,0.326797382 C12.4346701,0.539215679 12.5743855,0.849673196 12.5743855,1.24183006 C12.5743855,1.55228758 12.5122898,1.79738562 12.3725744,1.97712418 C12.232859,2.15686275 12.0310479,2.27124183 11.767141,2.32026144 C12.0931436,2.38562091 12.3415265,2.53267974 12.5122898,2.7614379 C12.683053,2.99019607 12.7761966,3.26797387 12.7761966,3.61111112 C12.7761966,4.05228759 12.6364812,4.39542484 12.3415265,4.64052287 C12.0465718,4.88562092 11.6429495,5 11.0996119,5 L9.36093144,5 L9.36093144,0 Z M14.4683053,2.61437909 L14.4683053,4.44444445 L15.5084088,4.44444445 C15.8499353,4.44444445 16.1138422,4.36274509 16.2846054,4.21568628 C16.4553687,4.06862745 16.5329883,3.83986928 16.5329883,3.52941176 C16.5329883,3.21895426 16.4553687,2.99019607 16.2846054,2.84313726 C16.1138422,2.69607843 15.8499353,2.61437909 15.5084088,2.61437909 L14.4683053,2.61437909 Z M14.4683053,0.555555551 L14.4683053,2.05882353 L15.4307891,2.05882353 C15.7412678,2.05882353 15.9896507,1.99346405 16.14489,1.87908496 C16.3001294,1.74836601 16.377749,1.56862745 16.377749,1.30718954 C16.377749,1.0620915 16.3001294,0.866013068 16.14489,0.735294113 C15.9896507,0.604575156 15.7567917,0.555555551 15.4307891,0.555555551 L14.4683053,0.555555551 Z M13.8163001,0 L15.4773609,0 C15.9741268,0 16.3467012,0.114379084 16.626132,0.326797382 C16.8900388,0.539215679 17.0297542,0.849673196 17.0297542,1.24183006 C17.0297542,1.55228758 16.9676585,1.79738562 16.8279431,1.97712418 C16.6882277,2.15686275 16.4864166,2.27124183 16.2225097,2.32026144 C16.5485123,2.38562091 16.7968952,2.53267974 16.9676585,2.7614379 C17.1384217,2.99019607 17.2315653,3.26797387 17.2315653,3.61111112 C17.2315653,4.05228759 17.0918499,4.39542484 16.7968952,4.64052287 C16.5019405,4.88562092 16.0983182,5 15.5549806,5 L13.8163001,5 L13.8163001,0 Z M20.1345408,0 L20.8486416,0 L21.9818887,1.79738562 L23.1306598,0 L23.8137129,0 L22.3234152,2.33660131 L24,5 L23.2858992,5 L21.9663648,2.90849673 L20.6468305,5 L19.9482536,5 L21.6248383,2.35294118 L20.1345408,0 Z M18.2561449,0 L18.9081501,0 L18.9081501,5 L18.2561449,5 L18.2561449,0 Z" id="形状"></path>
                        </g>
                    </g>
                </g>
            </g>
        </g>
    </g>
</svg>