<?xml version="1.0" encoding="UTF-8"?>
<svg width="17px" height="17px" viewBox="0 0 17 17" version="1.1" xmlns="http://www.w3.org/2000/svg" xmlns:xlink="http://www.w3.org/1999/xlink">
    <!-- Generator: Sketch 43.1 (39012) - http://www.bohemiancoding.com/sketch -->
    <title>Shape</title>
    <desc>Created with Sketch.</desc>
    <defs></defs>
    <g id="Page-1" stroke="none" stroke-width="1" fill="none" fill-rule="evenodd">
        <g id="1查询检索-01默认页面" transform="translate(-1195.000000, -17.000000)" fill="#9FCBF1">
            <g id="Group-3" transform="translate(1195.000000, 17.000000)">
                <path d="M16.8708686,8.18632169 L13.358479,4.67142404 C13.1863168,4.49913982 12.907151,4.49913982 12.7348916,4.67142404 L12.0249119,5.38188725 C11.8527497,5.55417146 11.8527497,5.83363227 12.0249119,6.00591648 L13.5742748,7.55637712 L6.51212312,7.55637712 C6.26865763,7.55637712 6.07129523,7.75387936 6.07129523,7.99751734 L6.07129523,9.00238536 C6.07129523,9.24608172 6.26865763,9.44362286 6.51212312,9.44362286 L13.570872,9.44362286 L12.0215091,10.9940835 C11.8493469,11.1663677 11.8493469,11.4458285 12.0215091,11.6181127 L12.7315665,12.3285954 C12.9037288,12.5008602 13.1829528,12.5008602 13.3551151,12.3285954 L16.1607917,9.52093087 C16.1607917,9.52083357 16.160889,9.52083357 16.160889,9.52083357 L16.8709464,8.81027307 C17.0430308,8.63794995 17.0430308,8.3586059 16.8708686,8.18632169 L16.8708686,8.18632169 L16.8708686,8.18632169 Z M10.8197957,0 L1.3226781,0 C0.592223317,0 0,0.592642914 0,1.32361523 L0,15.6763848 C0,16.4074544 0.592223317,17 1.3226781,17 L10.8197957,17 C11.5502505,17 12.1424738,16.4074544 12.1424738,15.6763848 L12.1424738,13.8140846 C12.1424738,13.5704661 11.9451114,13.3728471 11.7015487,13.3728471 L10.7459064,13.3728471 C10.5024409,13.3728471 10.3049618,13.5704661 10.3049618,13.8140846 L10.3049618,14.5225436 C10.3049618,15.1753128 10.3049618,15.1753128 9.64386582,15.1753128 L2.48025234,15.1753128 C1.81896189,15.1753128 1.81896189,15.1754296 1.81896189,14.5134566 L1.81896189,2.47117132 C1.81896189,1.8075249 1.81754245,1.80939289 2.48025234,1.80939289 L9.64384638,1.80939289 C10.3050785,1.80939289 10.3049424,1.81482176 10.3049424,2.46218155 L10.3049424,3.19148044 C10.3049424,3.43517679 10.5024214,3.63271793 10.7458869,3.63271793 L11.7015293,3.63271793 C11.945092,3.63271793 12.1424544,3.43517677 12.1424544,3.19148044 L12.1424544,1.32361523 C12.1424738,0.592642914 11.5502505,0 10.8197957,0 L10.8197957,0 L10.8197957,0 Z" id="Shape"></path>
            </g>
        </g>
    </g>
</svg>