<?xml version="1.0" encoding="UTF-8"?>
<svg width="108px" height="26px" viewBox="0 0 108 26" version="1.1" xmlns="http://www.w3.org/2000/svg" xmlns:xlink="http://www.w3.org/1999/xlink">
    <title>编组 13备份 6</title>
    <defs>
        <path d="M10.6892683,1.234375 C11.007457,1.234375 11.2653999,1.49284978 11.2653999,1.81169459 C11.260287,1.96333027 11.1986135,2.10753182 11.0925604,2.2158183 L10.9197209,2.38901418 L10.3435892,2.96633376 C9.96910365,3.34159149 9.76745756,3.86117912 9.76745756,4.43849871 C9.76745756,5.0158183 10.0267168,5.50653995 10.3723958,5.88179768 C10.7180748,6.25705541 11.2365934,6.48798325 11.8127251,6.48798325 C12.3888567,6.48798325 12.9073753,6.28592139 13.2818609,5.91066366 L13.8579925,5.33334407 L14.030832,5.1601482 C14.1388957,5.05387652 14.2828005,4.99207585 14.4341242,4.98695232 C14.752313,4.98695232 15.0102559,5.2454271 15.0102559,5.56427191 L15.0390625,5.62200387 C14.9814493,6.57458119 14.5781572,7.46942655 13.8579925,8.19107603 C12.8181017,9.21189134 11.3228438,9.61655275 9.91149048,9.25911727 L9.27774563,9.89416881 L10.2859761,10.9044781 C10.7984723,10.7586116 11.3496127,10.9022036 11.7263053,11.2797358 L13.1666345,12.7230348 C13.7379734,13.2975362 13.7379734,14.2268839 13.1666345,14.8013853 C12.5905028,15.3787049 11.6686921,15.3787049 11.0925604,14.8013853 L9.65223122,13.3580863 C9.27547579,12.9806171 9.13217929,12.4283403 9.27774563,11.9147874 L8.26951517,10.9044781 L4.55346579,14.6281894 C4.1789802,15.0034472 3.66046168,15.205509 3.08432999,15.205509 C1.95475995,15.205509 1.0390625,14.2879235 1.0390625,13.1560245 C1.0390625,12.5787049 1.24070859,12.0591173 1.61519419,11.6838595 L5.36005015,7.98901418 L2.65223122,5.30447809 L1.90326003,5.30447809 L1.0390625,3.54365335 L1.90326003,2.67767397 L3.66046168,3.54365335 L3.66046168,4.29416881 L6.36828061,6.9787049 L7.00202546,6.34365335 C6.65603765,4.93841693 7.05911332,3.45378669 8.06786908,2.41788015 C8.78803369,1.69623067 9.70984439,1.29210696 10.6316551,1.234375 L10.6892683,1.234375 Z M3.22836291,12.2900451 C2.83062698,12.2900451 2.5081983,12.6131386 2.5081983,13.0116946 C2.5081983,13.4102506 2.83062698,13.7333441 3.22836291,13.7333441 C3.62609884,13.7333441 3.94852752,13.4102506 3.94852752,13.0116946 C3.94852752,12.6131386 3.62609884,12.2900451 3.22836291,12.2900451 Z" id="path-1"></path>
        <filter x="-25.0%" y="-17.9%" width="150.0%" height="150.0%" filterUnits="objectBoundingBox" id="filter-2">
            <feOffset dx="0" dy="1" in="SourceAlpha" result="shadowOffsetOuter1"></feOffset>
            <feGaussianBlur stdDeviation="1" in="shadowOffsetOuter1" result="shadowBlurOuter1"></feGaussianBlur>
            <feColorMatrix values="0 0 0 0 0   0 0 0 0 0   0 0 0 0 0  0 0 0 0.0953377677 0" type="matrix" in="shadowBlurOuter1"></feColorMatrix>
        </filter>
        <text id="text-3" font-family="PingFangSC-Regular, PingFang SC" font-size="14" font-weight="normal" line-spacing="22" fill="#FFFFFF">
            <tspan x="28" y="16">Developing</tspan>
        </text>
        <filter x="-4.9%" y="-11.4%" width="109.7%" height="131.8%" filterUnits="objectBoundingBox" id="filter-4">
            <feOffset dx="0" dy="1" in="SourceAlpha" result="shadowOffsetOuter1"></feOffset>
            <feGaussianBlur stdDeviation="1" in="shadowOffsetOuter1" result="shadowBlurOuter1"></feGaussianBlur>
            <feColorMatrix values="0 0 0 0 0   0 0 0 0 0   0 0 0 0 0  0 0 0 0.0953377677 0" type="matrix" in="shadowBlurOuter1"></feColorMatrix>
        </filter>
    </defs>
    <g id="页面-1" stroke="none" stroke-width="1" fill="none" fill-rule="evenodd">
        <g id="画板" transform="translate(-135.000000, -647.000000)">
            <g id="编组-13备份-6" transform="translate(135.000000, 647.000000)">
                <path d="M0,0 L96,0 C102.627417,-1.21743675e-15 108,5.372583 108,12 C108,18.627417 102.627417,24 96,24 L0,24 L0,24 L0,0 Z" id="矩形" fill="#1890FF"></path>
                <g id="编组-10" transform="translate(8.000000, 4.000000)">
                    <rect id="矩形" stroke="#979797" fill="#D8D8D8" opacity="0" x="0.5" y="0.5" width="15" height="15"></rect>
                    <g id="形状结合" fill-rule="nonzero">
                        <use fill="black" fill-opacity="1" filter="url(#filter-2)" xlink:href="#path-1"></use>
                        <use fill="#FFFFFF" xlink:href="#path-1"></use>
                    </g>
                </g>
                <g id="Developing" fill="#FFFFFF" fill-opacity="1">
                    <use filter="url(#filter-4)" xlink:href="#text-3"></use>
                    <use xlink:href="#text-3"></use>
                </g>
            </g>
        </g>
    </g>
</svg>