<?xml version="1.0" encoding="UTF-8"?>
<svg width="136px" height="32px" viewBox="0 0 136 32" version="1.1" xmlns="http://www.w3.org/2000/svg" xmlns:xlink="http://www.w3.org/1999/xlink">
    <!-- Generator: Sketch 64 (93537) - https://sketch.com -->
    <title>智慧运营中心logo</title>
    <desc>Created with Sketch.</desc>
    <g id="典型页面及标注" stroke="none" stroke-width="1" fill="none" fill-rule="evenodd">
        <g id="样例-门户首页" transform="translate(-62.000000, -14.000000)" fill="#FFFFFF">
            <g id="header">
                <g id="logo" transform="translate(62.000000, 14.000000)">
                    <g id="智慧运营中心logo">
                        <path d="M14.8281188,24.063066 C18.512243,26.4996456 23.0233724,27.4822087 27.3811651,26.7561651 L18.9714753,31.6109015 L9.58844632,26.1934371 C11.2267285,25.6253644 12.9919397,24.907303 14.8281188,24.063066 Z M5.27391341,18.5759896 L5.27403247,19.601547 L5.06676894,19.7864483 C1.88678686,22.6427085 0.228493903,25.0416441 0.882155788,26.1738197 C1.54592199,27.3234965 4.53290496,27.0616958 8.69535845,25.681261 L9.584488,26.1948094 C4.71877245,27.875572 1.14014532,28.1502304 0.219836989,26.5562097 C-0.705096677,24.9541776 1.34715447,21.9705299 5.27391341,18.5759896 Z M7.26755347,6.757 L7.17890394,6.90515438 C6.62042152,10.6759094 7.28718087,14.6634494 9.34714424,18.2314106 C10.5839034,20.3735402 12.21019,22.1555237 14.0836354,23.5405549 C12.1731131,24.400514 10.3467962,25.1240096 8.70554405,25.6744284 C8.74274744,25.6992109 8.77877714,25.7231098 8.81363316,25.746125 L5.28355347,23.7081761 L5.28355347,7.90272537 L7.26755347,6.757 Z M21.6992777,20.490375 C24.5403125,22.9058201 28.1409138,24.211107 31.794157,24.2161467 L31.7785535,24.216 L29.8685535,25.318 L29.5286109,25.3276363 C25.7847929,25.3883189 22.0593836,24.224811 18.985989,21.9976478 C19.8605312,21.5320437 20.7412736,21.043529 21.6228669,20.5345409 C21.6483524,20.5198269 21.6738227,20.5051049 21.6992777,20.490375 Z M18.9714753,0 L28.155,5.302 L28.4093023,5.21556961 C31.4534382,4.19419002 33.9665267,3.74266687 35.5990631,3.9789031 C35.8891927,3.72367956 36.2709673,3.56897275 36.6888757,3.56897275 C37.6040243,3.56897275 38.3458988,4.31084724 38.3458988,5.22599581 C38.3458988,5.83372147 38.0187372,6.36503443 37.5309295,6.65341904 C37.0919875,8.27018995 35.3685633,10.4323085 32.6582854,12.8017633 L32.6593972,23.7081761 L32.5413908,23.7766066 C29.5569511,22.8908936 26.8028299,21.1574791 24.6842697,18.6830226 C25.364331,18.2529992 26.0275319,17.8195487 26.6724095,17.3844495 C28.1511444,19.6236865 30.2736966,21.217883 32.650178,22.061911 C31.6736466,21.1082521 30.8089017,20.0052882 30.0916669,18.7630012 C29.5546708,17.8328966 29.1266539,16.8702316 28.8036971,15.8901493 C30.214995,14.8651932 31.5073114,13.8425189 32.6495161,12.8474955 L32.650178,12.8088493 L32.650178,12.8088493 L32.65,11.824 L32.5710747,11.8957097 C32.5436641,11.9200781 32.5180601,11.9428386 32.4942627,11.9639913 L32.42829,12.0226259 L31.9645173,12.429073 C30.9442828,13.308081 29.805866,14.2088561 28.5726952,15.1137079 C28.2569374,13.9567351 28.0858165,12.7816227 28.0509428,11.6123894 L28.0462863,11.4180453 C26.8920712,11.6535997 25.8093294,12.0890256 24.8347877,12.6871311 C25.0586466,14.0731268 25.5317143,15.4426185 26.2709658,16.7319547 C25.6004731,17.1855219 24.9084677,17.6374635 24.1990626,18.0855367 C23.7324552,17.4894732 23.3032842,16.8536966 22.9145102,16.1803204 C21.4928517,13.7179356 20.7734304,11.0444572 20.6944786,8.39492429 L20.6872396,7.95359748 L20.6875922,7.83142985 L20.4935689,7.89522599 C18.94614,8.41617413 17.5135668,9.19034175 16.24418,10.168978 C16.4686595,12.2893377 17.1319609,14.4010027 18.2689533,16.3703312 C19.0544076,17.7307781 20.0128281,18.9293849 21.099618,19.9541412 C20.1753813,20.484449 19.2419767,20.9959242 18.310987,21.4832948 C16.680117,20.1747175 15.2596425,18.5500391 14.1541947,16.6353472 C11.8517626,12.6474179 11.3025261,8.1315174 12.2684282,3.98938326 L12.3005535,3.851 L18.9714753,0 Z M29.0458201,5.8162342 L32.6593972,7.90272537 L32.658,11.772 L32.8545368,11.5949278 C34.881713,9.75276021 36.2122007,8.10767165 36.6964716,6.88280687 C35.7737272,6.88301887 35.0318527,6.14114437 35.0318527,5.22599581 C35.0318527,5.023093 35.0683216,4.82870797 35.1350623,4.64903793 C33.7539796,4.55379302 31.6306589,4.96674037 29.0458201,5.8162342 Z" id="图形"></path>
                        <path d="M44.1916719,12.6419753 C45.5476041,12.00844 46.4214271,11.239147 46.9638,10.4698541 C47.6417661,10.9374635 48.4854572,11.5559147 48.9073028,11.9330191 L50.1728395,10.7866218 C49.7811258,10.5301908 48.2745344,9.67039282 47.6417661,9.33854097 L50.1276418,9.33854097 L50.1276418,7.93571268 L47.8074911,7.93571268 C47.8187905,7.85652076 47.8216154,7.78581369 47.8223216,7.7108642 L47.822557,6.9552413 L49.7811258,6.9552413 L49.7811258,5.56749719 L46.0447792,5.56749719 C46.1653065,5.26581369 46.255702,4.96413019 46.3460975,4.67753086 L44.7641766,4.34567901 C44.4628583,5.46190797 43.8752877,6.56305275 43.1069261,7.28709315 C43.4082444,7.4379349 43.8903536,7.70945006 44.2519356,7.93571268 L43.2425194,7.93571268 L43.2425194,9.33854097 L45.743461,9.33854097 C45.3668131,10.0927497 44.5984516,10.8318743 43.0617284,11.4352413 C43.4534421,11.7218406 43.9506173,12.2799551 44.1916719,12.6419753 Z M56.4938272,11.4567901 L56.4938272,5.5308642 L50.5679012,5.5308642 L50.5679012,11.4567901 L56.4938272,11.4567901 Z M46.2057613,7.90123457 L44.6419753,7.90123457 C44.9053498,7.55479582 45.1687243,7.15365622 45.399177,6.71604938 L46.2222222,6.71604938 L46.2222222,7.50009497 C46.2222222,7.62773029 46.2222222,7.75536562 46.2057613,7.90123457 Z M54.5185185,9.87654321 L52.1481481,9.87654321 L52.1481481,7.11111111 L54.5185185,7.11111111 L54.5185185,9.87654321 Z M46.8093615,18.5679012 L46.8093615,18.073606 L53.0655154,18.073606 L53.0655154,18.5529226 L54.9135802,18.5529226 L54.9135802,12.2469136 L45.037037,12.2469136 L45.037037,18.5679012 L46.8093615,18.5679012 Z M53.3333333,14.617284 L47.0123457,14.617284 L47.0123457,13.8271605 L53.3333333,13.8271605 L53.3333333,14.617284 Z M53.3333333,16.5925926 L47.0123457,16.5925926 L47.0123457,15.8024691 L53.3333333,15.8024691 L53.3333333,16.5925926 Z M69.6254953,9.87654321 L69.6254953,9.26548456 L72.2962963,9.26548456 L72.2962963,8.16871262 L69.6254953,8.16871262 L69.6254953,7.65166299 L71.7496411,7.65166299 L71.7496411,6.57055923 L69.6254953,6.57055923 L69.6254953,6.08484594 L71.9995406,6.08484594 L71.9995406,5.00374217 L69.6254953,5.00374217 L69.6254953,4.34567901 L67.8918174,4.34567901 L67.8918174,5.00374217 L65.7051967,5.00374217 L65.7051967,6.08484594 L67.8918174,6.08484594 L67.8918174,6.57055923 L66.0175711,6.57055923 L66.0175711,7.65166299 L67.8918174,7.65166299 L67.8918174,8.16871262 L65.5802469,8.16871262 L65.5802469,9.26548456 L67.8918174,9.26548456 L67.8918174,9.87654321 L69.6254953,9.87654321 Z M63.0012916,9.87654321 L63.0012916,9.26548456 L65.1851852,9.26548456 L65.1851852,8.16871262 L63.0012916,8.16871262 L63.0012916,7.65166299 L64.862215,7.65166299 L64.862215,6.57055923 L63.0012916,6.57055923 L63.0012916,6.08484594 L65.0313899,6.08484594 L65.0313899,5.00374217 L63.0012916,5.00374217 L63.0012916,4.34567901 L61.3249227,4.34567901 L61.3249227,5.00374217 L59.0641314,5.00374217 L59.0641314,6.08484594 L61.3249227,6.08484594 L61.3249227,6.57055923 L59.4332402,6.57055923 L59.4332402,7.65166299 L61.3249227,7.65166299 L61.3249227,8.16871262 L58.8641975,8.16871262 L58.8641975,9.26548456 L61.3249227,9.26548456 L61.3249227,9.87654321 L63.0012916,9.87654321 Z M66.414084,16.5925926 L67.5615662,15.5509831 C67.2708707,15.1934156 66.7047795,14.7425697 66.1692878,14.3850023 L71.1111111,14.3850023 L71.1111111,9.87654321 L60.1411813,9.87654321 L60.1411813,11.0269776 L69.3210389,11.0269776 L69.3210389,11.571102 L60.6613732,11.571102 L60.6613732,12.6438043 L69.3210389,12.6438043 L69.3210389,13.2190215 L60.0493827,13.2190215 L60.0493827,14.3850023 L65.3889999,14.3850023 L64.6240117,15.0690444 C65.2819015,15.473251 66.0774892,16.1262003 66.414084,16.5925926 Z M70.8721469,18.1728395 L72.691358,17.6626946 C72.4601024,16.812453 71.8280036,15.5602791 71.2267389,14.617284 L69.5308642,15.0655931 C70.1012948,16.0395062 70.6717254,17.3535158 70.8721469,18.1728395 Z M67.617526,18.5679012 C69.2132656,18.5679012 69.7090293,18.1101044 69.9259259,16.3552164 C69.4301622,16.2636571 68.7175018,16.0500185 68.3301864,15.7906003 C68.2543715,16.8958063 68.1340354,17.0801133 67.5043905,17.0874558 L64.8753328,17.0876914 C64.0077463,17.0876914 63.8528201,17.0266518 63.8528201,16.6146347 L63.8528201,15.0123457 L62.0246914,15.0123457 L62.0246914,16.6451545 C62.0246914,18.1101044 62.5669329,18.5679012 64.6894214,18.5679012 L67.617526,18.5679012 Z M60.394011,18.5679012 C60.9235619,17.8059965 61.320725,16.6472663 61.6296296,15.7107584 L60.1145259,15.0123457 C59.8644602,15.9329806 59.3937484,16.9647266 58.8641975,17.6472663 L60.394011,18.5679012 Z M76.9259259,8.2962963 L78.2222222,7.04679874 C77.5895062,6.53229974 76.308642,5.69440138 75.4753086,5.13580247 L74.2716049,6.23830032 C75.1203704,6.87039908 76.3549383,7.76709733 76.9259259,8.2962963 Z M87.308642,6.71604938 L87.308642,5.13580247 L79.4074074,5.13580247 L79.4074074,6.71604938 L87.308642,6.71604938 Z M86.3296027,15.8024691 L87.9756932,14.9441749 C87.4064844,13.7737738 86.2065305,11.8231052 85.3604092,10.3874131 L83.8373909,11.0896538 C84.1912234,11.6982624 84.56044,12.3848977 84.9450406,13.0715331 L81.2374909,13.3680347 C81.9143879,12.3692924 82.622053,11.1832858 83.1451098,10.02849 L88.0987654,10.02849 L88.0987654,8.2962963 L78.2222222,8.2962963 L78.2222222,10.02849 L80.9298104,10.02849 C80.4221376,11.323734 79.7606246,12.4941352 79.4990962,12.8530582 C79.1914157,13.290008 78.9298873,13.5709042 78.6068228,13.6645363 C78.8375832,14.1795128 79.1606477,15.1002284 79.2529518,15.5059675 C79.2529518,15.4591515 79.2683358,15.4279408 79.2991039,15.3811247 L79.2991039,15.5059675 L79.3344527,15.4911691 C79.9168217,15.2523743 80.7710473,15.1526624 85.8065459,14.6632787 C86.0065382,15.0846231 86.1911465,15.4747568 86.3296027,15.8024691 Z M75.135595,18.5679012 C75.7804752,17.6667687 76.5174811,16.7355984 76.9934641,16.7355984 C77.3159041,16.7355984 77.83795,17.1861647 78.4521216,17.5165799 C79.5422762,18.117335 80.7706194,18.2975615 82.6899056,18.2975615 C84.3635232,18.2975615 86.789501,18.2074482 87.9410727,18.1473727 C87.956427,17.6217121 88.2788671,16.6905418 88.4938272,16.1799 C86.896981,16.4051831 84.3174603,16.540353 82.766677,16.540353 C81.0930594,16.540353 79.7265276,16.4652586 78.6977902,15.8645036 C78.2832244,15.6242016 77.9607843,15.3989185 77.6997614,15.2487297 L77.6997614,9.48148148 L74.0300861,9.48148148 L74.0300861,11.1335578 L75.9033095,11.1335578 L75.9033095,15.338843 C75.243075,15.6542394 74.5367777,16.1799 73.8765432,16.8257117 L75.135595,18.5679012 Z M94.8344341,7.90123457 L94.8344341,7.13591319 L98.6396901,7.13591319 L98.6396901,7.90123457 L100.443776,7.90123457 L100.443776,7.13591319 L103.506173,7.13591319 L103.506173,5.44582849 L100.443776,5.44582849 L100.443776,4.34567901 L98.6396901,4.34567901 L98.6396901,5.44582849 L94.8344341,5.44582849 L94.8344341,4.34567901 L93.0606694,4.34567901 L93.0606694,5.44582849 L90.0740741,5.44582849 L90.0740741,7.13591319 L93.0606694,7.13591319 L93.0606694,7.90123457 L94.8344341,7.90123457 Z M91.7478515,11.4567901 L91.7478515,9.67709457 L101.345199,9.67709457 L101.345199,11.4567901 L103.111111,11.4567901 L103.111111,8.2962963 L90.0740741,8.2962963 L90.0740741,11.4567901 L91.7478515,11.4567901 Z M100.740741,13.4320988 L100.740741,10.2716049 L92.8395062,10.2716049 L92.8395062,13.4320988 L100.740741,13.4320988 Z M98.7654321,12.2469136 L94.4197531,12.2469136 L94.4197531,11.4567901 L98.7654321,11.4567901 L98.7654321,12.2469136 Z M93.0013796,18.5679012 L93.0013796,18.1397053 L100.107397,18.1397053 L100.107397,18.5679012 L101.925926,18.5679012 L101.925926,13.8271605 L91.2592593,13.8271605 L91.2592593,18.5679012 L93.0013796,18.5679012 Z M100.345679,16.5925926 L93.2345679,16.5925926 L93.2345679,15.4074074 L100.345679,15.4074074 L100.345679,16.5925926 Z M113.120303,18.5679012 L113.120303,13.817009 L116.596077,13.817009 L116.596077,14.5783699 L118.518519,14.5783699 L118.518519,6.97998784 L113.120303,6.97998784 L113.120303,4.34567901 L111.182482,4.34567901 L111.182482,6.97998784 L105.876543,6.97998784 L105.876543,14.654506 L107.722087,14.654506 L107.722087,13.817009 L111.182482,13.817009 L111.182482,18.5679012 L113.120303,18.5679012 Z M116.54321,11.8518519 L112.987654,11.8518519 L112.987654,8.69135802 L116.54321,8.69135802 L116.54321,11.8518519 Z M111.407407,11.8518519 L107.851852,11.8518519 L107.851852,8.69135802 L111.407407,8.69135802 L111.407407,11.8518519 Z M129.40589,9.08641975 L130.765432,7.61679012 C129.838472,6.63703704 127.876405,5.24641975 126.485965,4.34567901 L125.234568,5.62567901 C126.671357,6.62123457 128.571626,8.12246914 129.40589,9.08641975 Z M129.813657,18.1728395 C131.656489,18.1728395 132.135926,17.2848912 132.345679,14.4253968 C131.85126,14.3049971 131.087159,13.9889477 130.667652,13.6728983 C130.562776,16.0206937 130.427934,16.5022928 129.678815,16.5022928 L127.536335,16.5022928 C126.81718,16.5022928 126.697321,16.381893 126.697321,15.6745444 L126.697321,8.69135802 L124.839506,8.69135802 L124.839506,15.6745444 C124.839506,17.5708407 125.378872,18.1728395 127.326581,18.1728395 L129.813657,18.1728395 Z M133.318519,15.4074074 L135.111111,14.6584752 C134.8,13.1156749 134.02963,10.8688784 133.2,9.08641975 L131.555556,9.76045872 C132.325926,11.51296 133.096296,13.8795857 133.318519,15.4074074 Z M122.608329,16.1975309 C123.095503,14.4608865 123.45372,11.8021301 123.654321,9.81958923 L121.992196,9.48148148 C121.805923,11.5254965 121.390392,13.8307766 120.888889,15.4598412 L122.608329,16.1975309 Z" id="智慧运营中心" fill-rule="nonzero"></path>
                        <path d="M43.765129,27.1981481 L43.765129,23.0223969 L42.9350879,23.0223969 L42.9350879,27.1981481 L43.765129,27.1981481 Z M45.5455365,27.1981481 L45.5455365,25.5222048 C45.5455365,25.0425577 45.4838443,24.5177673 45.4445856,24.0663347 L45.4726275,24.0663347 L45.8932565,24.963557 L47.093451,27.1981481 L47.9347089,27.1981481 L47.9347089,23.0223969 L47.1495349,23.0223969 L47.1495349,24.6870545 C47.1495349,25.1610587 47.2112271,25.7140636 47.2560942,26.1485674 L47.2280523,26.1485674 L46.8130317,25.2457023 L45.6072288,23.0223969 L44.7603625,23.0223969 L44.7603625,27.1981481 L45.5455365,27.1981481 Z M50.5900246,27.1981481 L50.5900246,23.7164745 L51.7677856,23.7164745 L51.7677856,23.0223969 L48.5934393,23.0223969 L48.5934393,23.7164745 L49.7599835,23.7164745 L49.7599835,27.1981481 L50.5900246,27.1981481 Z M55.0231986,27.1981481 L55.0231986,26.4984277 L53.2453403,26.4984277 L53.2453403,25.3811321 L54.7035206,25.3811321 L54.7035206,24.6814116 L53.2453403,24.6814116 L53.2453403,23.7164745 L54.9615064,23.7164745 L54.9615064,23.0223969 L52.4152992,23.0223969 L52.4152992,27.1981481 L55.0231986,27.1981481 Z M58.3515206,27.1981481 L58.3515206,26.4984277 L56.6690049,26.4984277 L56.6690049,23.0223969 L55.8389638,23.0223969 L55.8389638,27.1981481 L58.3515206,27.1981481 Z M61.5620665,27.1981481 L61.5620665,26.4984277 L59.8795508,26.4984277 L59.8795508,23.0223969 L59.0495097,23.0223969 L59.0495097,27.1981481 L61.5620665,27.1981481 Z M63.0900967,27.1981481 L63.0900967,23.0223969 L62.2600556,23.0223969 L62.2600556,27.1981481 L63.0900967,27.1981481 Z M65.8687969,27.2771488 C66.4464607,27.2771488 66.9343902,27.0514326 67.2148095,26.7749301 L67.2148095,24.8901992 L65.739804,24.8901992 L65.739804,25.5729909 L66.4745026,25.5729909 L66.4745026,26.3968553 C66.3567265,26.4984277 66.1548246,26.5548567 65.9529227,26.5548567 C65.1397068,26.5548567 64.7246862,26.0074948 64.7246862,25.0989867 C64.7246862,24.2017645 65.2070074,23.6600454 65.8968388,23.6600454 C66.2726007,23.6600454 66.5081529,23.8124039 66.7100548,24.0099057 L67.1531173,23.4794724 C66.8839147,23.20297 66.4688942,22.9433962 65.8687969,22.9433962 C64.7639449,22.9433962 63.87782,23.7503319 63.87782,25.1272013 C63.87782,26.5209993 64.735903,27.2771488 65.8687969,27.2771488 Z M70.6889495,27.1981481 L70.6889495,26.4984277 L68.9110913,26.4984277 L68.9110913,25.3811321 L70.3692716,25.3811321 L70.3692716,24.6814116 L68.9110913,24.6814116 L68.9110913,23.7164745 L70.6272573,23.7164745 L70.6272573,23.0223969 L68.0810502,23.0223969 L68.0810502,27.1981481 L70.6889495,27.1981481 Z M72.2898887,27.1981481 L72.2898887,25.5222048 C72.2898887,25.0425577 72.2281965,24.5177673 72.1889378,24.0663347 L72.2169797,24.0663347 L72.6376087,24.963557 L73.8378032,27.1981481 L74.6790611,27.1981481 L74.6790611,23.0223969 L73.8938871,23.0223969 L73.8938871,24.6870545 C73.8938871,25.1610587 73.9555793,25.7140636 74.0004464,26.1485674 L73.9724045,26.1485674 L73.5573839,25.2457023 L72.351581,23.0223969 L71.5047147,23.0223969 L71.5047147,27.1981481 L72.2898887,27.1981481 Z M77.3343768,27.1981481 L77.3343768,23.7164745 L78.5121378,23.7164745 L78.5121378,23.0223969 L75.3377915,23.0223969 L75.3377915,23.7164745 L76.5043357,23.7164745 L76.5043357,27.1981481 L77.3343768,27.1981481 Z M82.0561277,27.2771488 C83.1553713,27.2771488 83.9125034,26.4476415 83.9125034,25.0933438 C83.9125034,23.7390461 83.1553713,22.9433962 82.0561277,22.9433962 C80.9568841,22.9433962 80.1997521,23.7334032 80.1997521,25.0933438 C80.1997521,26.4476415 80.9568841,27.2771488 82.0561277,27.2771488 Z M82.0561277,26.5548567 C81.4392053,26.5548567 81.0466183,25.9849231 81.0466183,25.0933438 C81.0466183,24.1961216 81.4392053,23.6600454 82.0561277,23.6600454 C82.6730502,23.6600454 83.0656372,24.1961216 83.0656372,25.0933438 C83.0656372,25.9849231 82.6730502,26.5548567 82.0561277,26.5548567 Z M85.5302678,27.1981481 L85.5302678,25.7140636 L86.085498,25.7140636 C86.9772313,25.7140636 87.6894963,25.2852027 87.6894963,24.3315514 C87.6894963,23.3440426 86.9828397,23.0223969 86.0630644,23.0223969 L84.7002267,23.0223969 L84.7002267,27.1981481 L85.5302678,27.1981481 Z M86.0294141,25.0538435 L85.5302678,25.0538435 L85.5302678,23.6826171 L86.0013722,23.6826171 C86.5734275,23.6826171 86.8762804,23.8462614 86.8762804,24.3315514 C86.8762804,24.8111985 86.6014695,25.0538435 86.0294141,25.0538435 Z M91.0234267,27.1981481 L91.0234267,26.4984277 L89.2455684,26.4984277 L89.2455684,25.3811321 L90.7037487,25.3811321 L90.7037487,24.6814116 L89.2455684,24.6814116 L89.2455684,23.7164745 L90.9617344,23.7164745 L90.9617344,23.0223969 L88.4155273,23.0223969 L88.4155273,27.1981481 L91.0234267,27.1981481 Z M92.669233,27.1981481 L92.669233,25.6181342 L93.2468967,25.6181342 L94.0993713,27.1981481 L95.024755,27.1981481 L94.0545043,25.4883473 C94.531217,25.3021314 94.8452866,24.9127708 94.8452866,24.2864081 C94.8452866,23.3271139 94.1554552,23.0223969 93.2861554,23.0223969 L91.8391919,23.0223969 L91.8391919,27.1981481 L92.669233,27.1981481 Z M93.207638,24.957914 L92.669233,24.957914 L92.669233,23.6826171 L93.207638,23.6826171 C93.7404347,23.6826171 94.0320707,23.8349755 94.0320707,24.2864081 C94.0320707,24.7321978 93.7404347,24.957914 93.207638,24.957914 Z M95.9022124,27.1981481 L96.1938485,26.1259958 L97.5398611,26.1259958 L97.8314971,27.1981481 L98.7007969,27.1981481 L97.3660011,23.0223969 L96.390142,23.0223969 L95.0609546,27.1981481 L95.9022124,27.1981481 Z M97.3603927,25.4770615 L96.3733168,25.4770615 L96.4967013,25.019986 C96.6200858,24.5854822 96.7434703,24.111478 96.8500296,23.6544025 L96.8724632,23.6544025 C96.9958477,24.1058351 97.1080154,24.5854822 97.2370082,25.019986 L97.3603927,25.4770615 Z M100.385862,27.1981481 L100.385862,23.7164745 L101.563623,23.7164745 L101.563623,23.0223969 L98.3892766,23.0223969 L98.3892766,23.7164745 L99.5558208,23.7164745 L99.5558208,27.1981481 L100.385862,27.1981481 Z M103.041178,27.1981481 L103.041178,23.0223969 L102.211137,23.0223969 L102.211137,27.1981481 L103.041178,27.1981481 Z M105.685277,27.2771488 C106.78452,27.2771488 107.541652,26.4476415 107.541652,25.0933438 C107.541652,23.7390461 106.78452,22.9433962 105.685277,22.9433962 C104.586033,22.9433962 103.828901,23.7334032 103.828901,25.0933438 C103.828901,26.4476415 104.586033,27.2771488 105.685277,27.2771488 Z M105.685277,26.5548567 C105.068354,26.5548567 104.675767,25.9849231 104.675767,25.0933438 C104.675767,24.1961216 105.068354,23.6600454 105.685277,23.6600454 C106.302199,23.6600454 106.694786,24.1961216 106.694786,25.0933438 C106.694786,25.9849231 106.302199,26.5548567 105.685277,26.5548567 Z M109.11455,27.1981481 L109.11455,25.5222048 C109.11455,25.0425577 109.052857,24.5177673 109.013599,24.0663347 L109.041641,24.0663347 L109.462269,24.963557 L110.662464,27.1981481 L111.503722,27.1981481 L111.503722,23.0223969 L110.718548,23.0223969 L110.718548,24.6870545 C110.718548,25.1610587 110.78024,25.7140636 110.825107,26.1485674 L110.797065,26.1485674 L110.382045,25.2457023 L109.176242,23.0223969 L108.329376,23.0223969 L108.329376,27.1981481 L109.11455,27.1981481 Z M115.445907,27.2771488 C115.984312,27.2771488 116.427375,27.0627184 116.769486,26.662072 L116.332032,26.1429245 C116.107697,26.3855695 115.827277,26.5548567 115.473949,26.5548567 C114.817768,26.5548567 114.391531,26.0074948 114.391531,25.0989867 C114.391531,24.2017645 114.862635,23.6600454 115.490774,23.6600454 C115.804844,23.6600454 116.046004,23.806761 116.253515,24.0099057 L116.690969,23.4794724 C116.421766,23.197327 116.001137,22.9433962 115.473949,22.9433962 C114.425181,22.9433962 113.544664,23.7503319 113.544664,25.1272013 C113.544664,26.5209993 114.397139,27.2771488 115.445907,27.2771488 Z M120.019291,27.1981481 L120.019291,26.4984277 L118.241433,26.4984277 L118.241433,25.3811321 L119.699613,25.3811321 L119.699613,24.6814116 L118.241433,24.6814116 L118.241433,23.7164745 L119.957599,23.7164745 L119.957599,23.0223969 L117.411391,23.0223969 L117.411391,27.1981481 L120.019291,27.1981481 Z M121.62023,27.1981481 L121.62023,25.5222048 C121.62023,25.0425577 121.558538,24.5177673 121.519279,24.0663347 L121.547321,24.0663347 L121.96795,24.963557 L123.168145,27.1981481 L124.009402,27.1981481 L124.009402,23.0223969 L123.224228,23.0223969 L123.224228,24.6870545 C123.224228,25.1610587 123.285921,25.7140636 123.330788,26.1485674 L123.302746,26.1485674 L122.887725,25.2457023 L121.681922,23.0223969 L120.835056,23.0223969 L120.835056,27.1981481 L121.62023,27.1981481 Z M126.664718,27.1981481 L126.664718,23.7164745 L127.842479,23.7164745 L127.842479,23.0223969 L124.668133,23.0223969 L124.668133,23.7164745 L125.834677,23.7164745 L125.834677,27.1981481 L126.664718,27.1981481 Z M131.097892,27.1981481 L131.097892,26.4984277 L129.320034,26.4984277 L129.320034,25.3811321 L130.778214,25.3811321 L130.778214,24.6814116 L129.320034,24.6814116 L129.320034,23.7164745 L131.0362,23.7164745 L131.0362,23.0223969 L128.489993,23.0223969 L128.489993,27.1981481 L131.097892,27.1981481 Z M132.743698,27.1981481 L132.743698,25.6181342 L133.321362,25.6181342 L134.173837,27.1981481 L135.09922,27.1981481 L134.12897,25.4883473 C134.605682,25.3021314 134.919752,24.9127708 134.919752,24.2864081 C134.919752,23.3271139 134.229921,23.0223969 133.360621,23.0223969 L131.913657,23.0223969 L131.913657,27.1981481 L132.743698,27.1981481 Z M133.282103,24.957914 L132.743698,24.957914 L132.743698,23.6826171 L133.282103,23.6826171 C133.8149,23.6826171 134.106536,23.8349755 134.106536,24.2864081 C134.106536,24.7321978 133.8149,24.957914 133.282103,24.957914 Z" id="INTELLIGENTOPERATIONCENTER" fill-rule="nonzero"></path>
                    </g>
                </g>
            </g>
        </g>
    </g>
</svg>