<?xml version="1.0" encoding="UTF-8"?>
<svg width="16px" height="18px" viewBox="0 0 16 18" version="1.1" xmlns="http://www.w3.org/2000/svg" xmlns:xlink="http://www.w3.org/1999/xlink">
    <!-- Generator: Sketch 43.1 (39012) - http://www.bohemiancoding.com/sketch -->
    <title>Shape</title>
    <desc>Created with Sketch.</desc>
    <defs></defs>
    <g id="Page-1" stroke="none" stroke-width="1" fill="none" fill-rule="evenodd">
        <g id="1查询检索-01默认页面" transform="translate(-1007.000000, -16.000000)" fill="#9FCBF1">
            <g id="Shape" transform="translate(1007.000000, 16.000000)">
                <g id="Group-5">
                    <path d="M15.783455,14.076002 C15.8402667,14.2580048 15.8906533,14.4899939 15.9346148,14.7690005 C15.9764279,15.0479886 16,15.3319864 16,15.6169862 C16,15.9039899 15.9753537,16.1739975 15.9249671,16.4299963 C15.8745805,16.6839912 15.7973794,16.8729891 15.6987546,17.0039851 C15.6279985,17.0959978 15.4457474,17.1840026 15.1520012,17.2679996 C14.8571809,17.3519966 14.488382,17.4319858 14.0445303,17.5019926 C13.6006985,17.5739847 13.1064802,17.6429895 12.5618553,17.7069846 C12.0172304,17.7709982 11.4726254,17.8279982 10.9290747,17.8729933 C10.3866181,17.9179883 9.85486336,17.9509971 9.34240395,17.970999 C8.8235194,17.989999 8.37216842,18 7.98622256,18 C7.60027669,18 7.15322239,17.9859912 6.6439855,17.9609981 C6.13582278,17.9359864 5.61264155,17.9019942 5.07661004,17.8629923 C4.53950436,17.8239904 4.00560131,17.7769914 3.47599494,17.7259846 C2.94638857,17.6729924 2.46289201,17.6149905 2.02548537,17.5499935 C1.589133,17.4859984 1.2160573,17.4229868 0.908366822,17.3640015 C0.599622064,17.3070015 0.410925924,17.2429879 0.339095673,17.1779909 C0.210453682,17.0859968 0.109680474,16.7969892 0.0389243952,16.3109866 C-0.0339800273,15.8209948 -0.00396289945,15.1859982 0.124679092,14.4069988 C0.196509343,13.9639874 0.393778963,13.6259955 0.715393889,13.3910006 C1.03808299,13.156989 1.40903024,12.9730009 1.83249254,12.8339893 C2.25490056,12.6970001 2.69873234,12.5760051 3.16402766,12.4729895 C3.62930309,12.3699926 4.03347009,12.2130015 4.37867701,12.0040016 C4.64992522,11.8499978 4.86111929,11.6989999 5.0122791,11.5549971 C5.16238463,11.4119962 5.2685088,11.2699973 5.33283974,11.1249925 C5.39715079,10.9819917 5.43039044,10.8319957 5.43039044,10.6779919 C5.43039044,10.5220028 5.42289113,10.3459931 5.40894679,10.1510021 C5.38000383,9.86399837 5.27708228,9.64299365 5.09805369,9.48700451 C4.90359241,9.32173135 4.70630409,9.15937567 4.50626472,9 C4.39154717,8.92199615 4.29507065,8.80899819 4.2157212,8.65800026 C4.13746581,8.50900623 4.06243294,8.3560044 3.98952852,8.1999967 C3.91877244,8.03100074 3.85551567,7.84200283 3.79762975,7.63300299 C3.76866691,7.60800985 3.7257995,7.56199426 3.66896787,7.49699724 C3.62608058,7.43200021 3.5746198,7.3439954 3.51780806,7.23300134 C3.46099632,7.12200729 3.39666538,6.96299373 3.32376095,6.75499585 C3.25300488,6.54699796 3.20691496,6.36100591 3.18547131,6.19900506 C3.16295349,6.03600225 3.16617601,5.89600724 3.19511896,5.77900147 C3.21011758,5.6360006 3.24443139,5.51199972 3.30231731,5.40800078 C3.30231731,4.95200112 3.33126026,4.49700342 3.3880919,4.04100377 C3.44597781,3.66400991 3.53817754,3.25400729 3.66896787,2.81099591 C3.79762975,2.36900504 4.00452713,1.97200924 4.29077397,1.62101049 C4.54915201,1.29500488 4.82787964,1.02499727 5.12914499,0.810004268 C5.42931626,0.595011267 5.74130343,0.430004556 6.06291836,0.312015388 C6.38560745,0.195009618 6.71046478,0.113999913 7.04065319,0.068002878 C7.37086149,0.023007795 7.68497711,1.77635684e-15 7.98622256,1.77635684e-15 C8.31535668,0.0260136521 8.58445655,0.0620097185 8.79135393,0.107004802 C8.99934538,0.153001837 9.16872632,0.208999841 9.29631403,0.273013465 C9.42388185,0.338010485 9.53537688,0.416014332 9.62972495,0.508008403 C9.72085051,0.599000522 9.81947537,0.690011195 9.92024858,0.781003313 L10.3265639,0.781003313 C10.4563,0.781003313 10.5817195,0.796997442 10.7039363,0.830006206 C10.8272273,0.862013017 10.9473157,0.924004181 11.0684584,1.01501485 C11.1896011,1.10600697 11.323614,1.23700297 11.4662003,1.40599893 C11.7974629,1.79599961 12.0397482,2.22199636 12.1973531,2.68400773 C12.354938,3.14600054 12.4696556,3.58500411 12.5404116,4.00200184 C12.6111677,4.48399659 12.6551292,4.95899623 12.6701278,5.42700076 C12.6969423,5.49199778 12.718386,5.57100358 12.7355329,5.6619957 C12.7505315,5.75300637 12.7580507,5.86400043 12.7666242,5.99399447 C12.7730494,6.12400707 12.7623275,6.28700987 12.7355329,6.48200094 C12.70659,6.74200757 12.6626285,6.94699961 12.6058168,7.09699559 C12.5468368,7.24701012 12.4846741,7.36101003 12.4106955,7.43799337 C12.3399394,7.530006 12.2595357,7.59500302 12.1759094,7.63300299 C12.1169493,7.84200283 12.0526184,8.03100074 11.9829365,8.1999967 C11.9100321,8.3560044 11.8339051,8.50900623 11.7567239,8.65900221 C11.6773943,8.80899819 11.5787695,8.92299811 11.4662003,9 C11.2228209,9.18200279 11.0223486,9.33400268 10.8647637,9.45900551 C10.7060847,9.58200444 10.5988863,9.79200623 10.5399262,10.0909962 C10.4981131,10.2750029 10.4852429,10.4560038 10.4981131,10.6399919 C10.5131117,10.8219947 10.5667208,11.0070034 10.6589206,11.1949993 C10.7532686,11.3839972 10.9044284,11.5639961 11.1091974,11.7319901 C11.3182431,11.9020066 11.6077124,12.0520026 11.9818623,12.1829986 C12.3109964,12.2980004 12.671202,12.4059886 13.064667,12.5029925 C13.4602606,12.6009982 13.8376329,12.7099884 14.2042835,12.8349912 C14.5709341,12.9579902 14.8957715,13.1180057 15.1820183,13.3139987 C15.4682652,13.5099917 15.6676633,13.7640052 15.783455,14.076002 L15.783455,14.076002 Z M8.88785035,13.4319878 C8.92966347,13.3540026 8.93394026,13.2719909 8.89857217,13.1879939 C8.86318418,13.1039969 8.80852079,13.0220038 8.73989316,12.9439999 C8.66698873,12.8659961 8.58123404,12.7819991 8.48046083,12.690005 L7.49200417,12.690005 C7.39123096,12.7819991 7.31295568,12.8659961 7.25506977,12.9439999 C7.19825803,13.007995 7.15214822,13.0809891 7.11570596,13.1589929 C7.08031797,13.2369968 7.08354049,13.3089889 7.12642778,13.3740045 C7.22720099,13.5579926 7.31295568,13.7160042 7.38371176,13.8529934 C7.45554201,13.9900011 7.53594575,14.0969873 7.62172033,14.1729873 C7.59277738,14.291997 7.54881591,14.4560017 7.49200417,14.6729986 C7.43409837,14.8859877 7.38158331,15.1089963 7.33225099,15.3349923 C7.28186438,15.563994 7.23899698,15.7780036 7.20253482,15.9799898 C7.16716673,16.1829965 7.14892571,16.3349964 7.14892571,16.4389953 C7.14892571,16.5029904 7.18109118,16.5819962 7.24542212,16.6729883 C7.31505707,16.7712157 7.39058141,16.865698 7.4716347,16.9559842 C7.55738939,17.05399 7.6463865,17.1339977 7.7396405,17.1999967 C7.83398857,17.2639918 7.91546648,17.2980025 7.98622256,17.2980025 C8.05805281,17.2980025 8.14275322,17.2649937 8.24352643,17.1999967 C8.34429964,17.1339977 8.44079605,17.0589997 8.53299578,16.9750027 C8.62839813,16.8909872 8.70665351,16.7989931 8.77098446,16.7019893 C8.83424123,16.604002 8.86748087,16.5239943 8.86748087,16.4579953 C8.86748087,16.3799915 8.84496305,16.2469916 8.80207576,16.0599976 C8.76026263,15.8709997 8.71417272,15.6599959 8.66163777,15.4229971 C8.61125117,15.1890041 8.55979039,14.9619877 8.50083031,14.7410015 C8.44399867,14.5199968 8.39361207,14.3430038 8.3496705,14.2139931 C8.43542519,14.149998 8.51905144,14.0560001 8.598381,13.9309972 C8.67663639,13.8069963 8.7731328,13.6409877 8.88785035,13.4319878 L8.88785035,13.4319878 Z" id="Shape"></path>
                </g>
            </g>
        </g>
    </g>
</svg>