<?xml version="1.0" encoding="UTF-8" standalone="no"?>
<svg width="41px" height="31px" viewBox="0 0 41 31" version="1.1" xmlns="http://www.w3.org/2000/svg" xmlns:xlink="http://www.w3.org/1999/xlink">
    <!-- Generator: Sketch 46.2 (44496) - http://www.bohemiancoding.com/sketch -->
    <title>Fill 1</title>
    <desc>Created with Sketch.</desc>
    <defs></defs>
    <g id="规范" stroke="none" stroke-width="1" fill="none" fill-rule="evenodd">
        <g id="业务运维" transform="translate(-11.000000, -10.000000)" fill="#00C9C3">
            <g id="Top-navigation" transform="translate(-439.000000, 0.000000)">
                <g transform="translate(0.000000, 6.000000)" id="logo">
                    <g transform="translate(450.000000, 4.000000)">
                        <g id="Group-3" transform="translate(0.000000, 0.130527)">
                            <path d="M31.2040778,30.1796407 C30.040006,30.1796407 28.9276707,29.9101796 27.7991677,29.3567066 C26.9131796,28.9185629 26.038509,28.3279042 24.958509,27.428982 L24.9229401,27.4041916 C24.8221617,27.3368263 24.7273114,27.2576048 24.6416228,27.165988 L24.6082096,27.1358084 C24.6006647,27.1261078 24.5909641,27.1196407 24.5818024,27.1137126 C24.5618623,27.0765269 24.5408443,27.0490419 24.5160539,27.0188623 L24.5160539,27.0123952 C24.3247365,26.7494012 24.2239581,26.4411377 24.2239581,26.1167066 C24.2239581,25.269521 24.9137784,24.5775449 25.7631198,24.5775449 C26.093479,24.5775449 26.4087485,24.681018 26.6760539,24.8798802 L26.695994,24.8863473 C27.9689281,25.9997605 29.368509,27.0797605 31.2040778,27.0797605 C35.1430599,27.0797605 37.2691078,24.0935928 37.2691078,21.2820359 C37.2691078,18.4898802 35.0498263,15.4724551 31.4670719,15.4724551 C29.1723413,15.4724551 27.6294072,16.8278443 26.1360539,18.1368862 L26.051982,18.2107186 C25.8089281,18.422515 25.5626407,18.6391617 25.3195868,18.8558084 C24.4675509,19.6054491 23.6624012,20.312515 23.0782096,20.7894611 C22.0138383,21.661976 18.347012,24.8346108 16.7803653,26.1926946 C16.5621018,26.3797006 16.3432994,26.5726347 16.1304251,26.7617964 C14.1401856,28.5176048 12.2620419,30.1796407 8.86898802,30.1796407 C6.63569461,30.1796407 4.40078443,29.2764072 2.73820958,27.7070659 C0.972700599,26.0396407 -5.38922156e-05,23.7788623 -5.38922156e-05,21.3348503 C-5.38922156e-05,17.9811377 1.57252096,15.8793413 2.89072455,14.7082635 C4.54305988,13.2391617 6.71653293,12.3979042 8.85551497,12.3979042 C11.5215629,12.3979042 13.1399461,13.3065269 15.0364132,14.8791018 L15.0628204,14.9006587 C15.1409641,14.9529341 15.2126407,15.0138323 15.2783892,15.0811976 L15.294018,15.0935928 L15.2950958,15.099521 C15.5661737,15.3808383 15.7143772,15.7510778 15.7143772,16.1396407 C15.7143772,16.968503 15.0380299,17.6443114 14.2091677,17.6443114 C13.8788084,17.6443114 13.5635389,17.5381437 13.2989281,17.3360479 L13.2913832,17.3360479 C11.8686287,16.1611976 10.6878503,15.4821557 8.86898802,15.4821557 C6.08491617,15.4821557 3.08042515,17.7003593 3.08042515,21.2820359 C3.08042515,24.4821557 5.67641317,27.0894611 8.86898802,27.0894611 C11.5582096,27.0894611 12.857012,25.6322156 14.8224611,23.427485 C15.1883892,23.0168263 15.5672515,22.5916168 15.9881497,22.1389222 C16.5820419,21.5002994 18.333,19.681976 19.3795868,18.5960479 C19.6398862,18.3244311 19.8597665,18.097006 20.0128204,17.938024 C23.3627605,14.4538922 24.4077305,13.3588024 24.418509,13.3464072 L24.4276707,13.3345509 C26.0735389,11.4591018 26.4804251,9.06628743 25.5152156,6.93700599 C24.5667126,4.84437126 22.4681497,3.49221557 20.1701856,3.49221557 C16.9043174,3.49221557 14.9647365,5.9642515 14.531982,8.28 L14.518509,8.28916168 C14.3255749,8.93802395 13.7182096,9.3939521 13.0402455,9.3939521 C12.1898263,9.3939521 11.4989281,8.70251497 11.4989281,7.85155689 C11.4989281,7.70227545 11.5199461,7.5551497 11.5630599,7.40856287 L11.5722216,7.37730539 C11.9650958,5.49592814 12.9335389,3.87431138 14.4538383,2.55610778 C16.0937784,1.13065868 18.0166527,0.408502994 20.1701856,0.408502994 C22.638988,0.408502994 24.8647365,1.32898204 26.6043772,3.06700599 C27.513,3.97562874 28.1828802,5.01898204 28.6005449,6.16311377 C28.9357545,7.08413174 29.1082096,8.07844311 29.1157545,9.11209581 C29.1281497,10.8926946 28.6404251,12.2049701 28.6339581,12.2173653 L28.4631198,12.8171856 L29.1022814,12.7288024 C29.8627006,12.5110778 30.6565329,12.4011377 31.4595269,12.4011377 C33.7143772,12.4011377 35.9492874,13.2790419 37.5935389,14.8058084 C38.4488084,15.6012575 39.1197665,16.5432934 39.5880898,17.6022754 C40.0882096,18.734012 40.3425808,19.9697605 40.3425808,21.2820359 C40.3425808,23.690479 39.4382695,25.9210778 37.7967126,27.5631737 C36.1141976,29.2489222 33.7725808,30.1796407 31.2040778,30.1796407" id="Fill-1"></path>
                        </g>
                    </g>
                </g>
            </g>
        </g>
    </g>
</svg>