<?xml version="1.0" encoding="UTF-8"?>
<svg width="17px" height="17px" viewBox="0 0 17 17" version="1.1" xmlns="http://www.w3.org/2000/svg" xmlns:xlink="http://www.w3.org/1999/xlink">
    <title>勾选</title>
    <g id="页面-1" stroke="none" stroke-width="1" fill="none" fill-rule="evenodd">
        <g id="示例：列表页-无筛选控件" transform="translate(-776.000000, -332.000000)">
            <g id="编组-9" transform="translate(538.000000, 284.000000)">
                <g id="勾选" transform="translate(238.007424, 48.007454)">
                    <path d="M15.9922598,-1.3048096e-05 L15.9925761,14.9925464 C15.9925761,15.5448312 15.5448609,15.9925464 14.9925761,15.9925464 L1.66663508e-05,15.9922301 C0.259563064,7.27715305 7.27718276,0.259533349 15.9922598,-1.3048096e-05 Z" id="形状结合" fill="#1890FF"></path>
                    <path d="M12.8562509,6.99254642 L12.0545157,6.99254642 C11.8801511,6.99254642 11.7143338,7.08500652 11.6117664,7.24350955 L8.9245003,11.3570405 L7.70736707,9.49274298 C7.60479966,9.33612689 7.44069181,9.24177985 7.26461776,9.24177985 L6.46288252,9.24177985 C6.35176783,9.24177985 6.28680847,9.38141347 6.35176783,9.48142133 L8.48175099,12.742055 C8.69885201,13.0760436 9.14843914,13.0760436 9.36554016,12.742055 L12.9656562,7.2321879 C13.032325,7.13218004 12.9673656,6.99254642 12.8562509,6.99254642 Z" id="路径" fill="#FFFFFF" fill-rule="nonzero"></path>
                </g>
            </g>
        </g>
    </g>
</svg>