<?xml version="1.0" standalone="no"?><!DOCTYPE svg PUBLIC "-//W3C//DTD SVG 1.1//EN" "http://www.w3.org/Graphics/SVG/1.1/DTD/svg11.dtd"><svg t="1650765609158" class="icon" viewBox="0 0 1024 1024" version="1.1" xmlns="http://www.w3.org/2000/svg" p-id="4327" xmlns:xlink="http://www.w3.org/1999/xlink" width="200" height="200"><defs><style type="text/css">@font-face { font-family: feedback-iconfont; src: url("//at.alicdn.com/t/font_1031158_u69w8yhxdu.woff2?t=1630033759944") format("woff2"), url("//at.alicdn.com/t/font_1031158_u69w8yhxdu.woff?t=1630033759944") format("woff"), url("//at.alicdn.com/t/font_1031158_u69w8yhxdu.ttf?t=1630033759944") format("truetype"); }
</style></defs><path style='' d="M862 465.3h-81c-4.6 0-9 2-12.1 5.5L550 723.1V160c0-4.4-3.6-8-8-8h-60c-4.4 0-8 3.6-8 8v563.1L255.1 470.8c-3-3.5-7.4-5.5-12.1-5.5h-81c-6.8 0-10.5 8.1-6 13.2L487.9 861a31.96 31.96 0 0 0 48.3 0L868 478.5c4.5-5.2.8-13.2-6-13.2z" fill="#262626" p-id="4328"></path></svg>