/* XPM */
static char * product_logo_32_xpm[] = {
"32 32 231 2",
"  	c None",
". 	c #E2695F",
"+ 	c #DF5C50",
"@ 	c #DF574B",
"# 	c #DD5044",
"$ 	c #DF594E",
"% 	c #DB4437",
"& 	c #E05C51",
"* 	c #DC493C",
"= 	c #DC6257",
"- 	c #DB4F42",
"; 	c #E1645A",
"> 	c #D76054",
", 	c #D44739",
"' 	c #D74234",
") 	c #DA4437",
"! 	c #DC4B3F",
"~ 	c #E1655B",
"{ 	c #D15C50",
"] 	c #CE4335",
"^ 	c #D03E30",
"/ 	c #D44033",
"( 	c #D84235",
"_ 	c #C44436",
": 	c #C93B2C",
"< 	c #CE3D2E",
"[ 	c #D23F31",
"} 	c #D64134",
"| 	c #DA4336",
"1 	c #3B9E69",
"2 	c #A0412E",
"3 	c #C4392A",
"4 	c #CB3B2D",
"5 	c #CF3E2F",
"6 	c #D34032",
"7 	c #129E5A",
"8 	c #51734A",
"9 	c #B63628",
"0 	c #C83A2B",
"a 	c #CD3C2E",
"b 	c #D13F30",
"c 	c #D54133",
"d 	c #D94336",
"e 	c #D74337",
"f 	c #D2776F",
"g 	c #D9ADA9",
"h 	c #DBBAB7",
"i 	c #D7B6B3",
"j 	c #D3ABA8",
"k 	c #C88372",
"l 	c #C6682F",
"m 	c #C96A2F",
"n 	c #CA6B2F",
"o 	c #CC6D30",
"p 	c #CE6E30",
"q 	c #D06F30",
"r 	c #D27131",
"s 	c #D37231",
"t 	c #D67432",
"u 	c #D97835",
"v 	c #27A769",
"w 	c #0F9D58",
"x 	c #179C5B",
"y 	c #834C35",
"z 	c #BC3829",
"A 	c #CA3B2C",
"B 	c #CF3D2F",
"C 	c #D25C51",
"D 	c #DFCCCA",
"E 	c #EFEFEE",
"F 	c #BACFF2",
"G 	c #9ABBF3",
"H 	c #F0F0F0",
"I 	c #E7DED1",
"J 	c #DEA94F",
"K 	c #E4A430",
"L 	c #E7A731",
"M 	c #EBAB32",
"N 	c #F1B033",
"O 	c #F6B434",
"P 	c #F9B735",
"Q 	c #FBBA35",
"R 	c #FBBB36",
"S 	c #FBC34B",
"T 	c #18A15E",
"U 	c #378855",
"V 	c #A93427",
"W 	c #C0392A",
"X 	c #CC3C2D",
"Y 	c #CD594E",
"Z 	c #E2D9D8",
"` 	c #5893F4",
" .	c #4285F4",
"..	c #EAE5DE",
"+.	c #E8B653",
"@.	c #F7B835",
"#.	c #FCBD37",
"$.	c #FCBE37",
"%.	c #FCBF38",
"&.	c #FDC038",
"*.	c #FDC139",
"=.	c #FDC239",
"-.	c #FDC541",
";.	c #33AC71",
">.	c #129D5A",
",.	c #755A3E",
"'.	c #B23628",
").	c #C43A2B",
"!.	c #CC3D2E",
"~.	c #DECBC9",
"{.	c #EAE2D2",
"].	c #FABE38",
"^.	c #FDC23A",
"/.	c #FDC43A",
"(.	c #FDC43B",
"_.	c #FEC53B",
":.	c #FEC63C",
"<.	c #FEC73D",
"[.	c #FED05A",
"}.	c #25A667",
"|.	c #24965B",
"1.	c #A23B2B",
"2.	c #B93729",
"3.	c #C97269",
"4.	c #F0CC78",
"5.	c #FEC73C",
"6.	c #FEC83D",
"7.	c #FEC93D",
"8.	c #FECA3E",
"9.	c #FFCB3F",
"0.	c #FFCC3F",
"a.	c #FFD151",
"b.	c #1FA463",
"c.	c #119E59",
"d.	c #5B6F48",
"e.	c #B53628",
"f.	c #D4ABA6",
"g.	c #EEDDB4",
"h.	c #FFCA3E",
"i.	c #FFCD40",
"j.	c #FFD04D",
"k.	c #1FA262",
"l.	c #199F5D",
"m.	c #9B422F",
"n.	c #DAB8B5",
"o.	c #EDE1C3",
"p.	c #FDCE4C",
"q.	c #159858",
"r.	c #418553",
"s.	c #E0C2BE",
"t.	c #EDE3C8",
"u.	c #F5C541",
"v.	c #119755",
"w.	c #149E5B",
"x.	c #B9D2C2",
"y.	c #EEDFB7",
"z.	c #F5C53F",
"A.	c #129554",
"B.	c #6ABF96",
"C.	c #F1F1F1",
"D.	c #F3D585",
"E.	c #F2C23E",
"F.	c #149052",
"G.	c #D7E8DF",
"H.	c #EEE8DB",
"I.	c #FDCD45",
"J.	c #E9BA3D",
"K.	c #109A57",
"L.	c #3DAE77",
"M.	c #E5EDE9",
"N.	c #EBE8E3",
"O.	c #F4D06B",
"P.	c #FAC83F",
"Q.	c #139454",
"R.	c #3EAF78",
"S.	c #D0DCD5",
"T.	c #C9C076",
"U.	c #FFCE42",
"V.	c #F1C13E",
"W.	c #0F9C58",
"X.	c #69BF95",
"Y.	c #AFD9C5",
"Z.	c #BFDFCF",
"`.	c #BADACA",
" +	c #AACEBC",
".+	c #64AC88",
"++	c #3D8F51",
"@+	c #FBCE4E",
"#+	c #FDCB40",
"$+	c #108E52",
"%+	c #10864D",
"&+	c #BEB957",
"*+	c #119756",
"=+	c #0F9956",
"-+	c #108B4F",
";+	c #579952",
">+	c #FDCE49",
",+	c #F6C53F",
"'+	c #158D51",
")+	c #0F9C57",
"!+	c #0F9352",
"~+	c #0F864C",
"{+	c #DDC456",
"]+	c #E6B73D",
"^+	c #0F9955",
"/+	c #0F8E4F",
"(+	c #83A958",
"_+	c #FECE45",
":+	c #E5B73C",
"<+	c #0E9552",
"[+	c #1D8B4D",
"}+	c #EECA51",
"|+	c #149153",
"1+	c #109B57",
"2+	c #0E9855",
"3+	c #0E904F",
"4+	c #A3B559",
"5+	c #FBCA40",
"6+	c #ECBD3D",
"7+	c #139353",
"8+	c #0F9B56",
"9+	c #0E9452",
"0+	c #3B9650",
"a+	c #FED04E",
"b+	c #EEBF3E",
"c+	c #168B50",
"d+	c #138D4F",
"e+	c #11884C",
"f+	c #A8B156",
"g+	c #EDBD3D",
"h+	c #E2B43C",
"                                                                ",
"                        . + @ # # @ + .                         ",
"                    $ # % % % % % % % % # $                     ",
"                & * % % % % % % % % % % % % * &                 ",
"            = - % % % % % % % % % % % % % % % % # ;             ",
"          > , ' ) % % % % % % % % % % % % % % % % ! ~           ",
"        { ] ^ / ( % % % % % % % % % % % % % % % % % ! ;         ",
"        _ : < [ } | % % % % % % % % % % % % % % % % % #         ",
"      1 2 3 4 5 6 ( % % % % % % % % % % % % % % % % % % @       ",
"      7 8 9 0 a b c d % e f g h i j k l m n o p q r s t u       ",
"    v w x y z A B 6 ' C D E F G G F H I J K L M N O P Q R S     ",
"    T w w U V W X ^ Y Z F `  . . . .` F ..+.@.#.$.%.&.*.=.-.    ",
"  ;.w w w >.,.'.).!.~.F  . . . . . . . .F {.].*.^./.(._.:.<.[.  ",
"  }.w w w w |.1.2.3.E `  . . . . . . . .` H 4.:.5.6.7.8.9.0.a.  ",
"  b.w w w w c.d.e.f.F  . . . . . . . . . .F g.h.9.0.i.i.i.i.j.  ",
"  k.w w w w w l.m.n.G  . . . . . . . . . .G o.i.i.i.i.i.i.i.p.  ",
"  q.w w w w w w r.s.G  . . . . . . . . . .G t.i.i.i.i.i.i.i.u.  ",
"  v.w w w w w w w.x.F  . . . . . . . . . .F y.i.i.i.i.i.i.i.z.  ",
"  A.w w w w w w w B.C.`  . . . . . . . .` H D.i.i.i.i.i.i.i.E.  ",
"  F.w w w w w w w c.G.F  . . . . . . . .F H.I.i.i.i.i.i.i.i.J.  ",
"    K.w w w w w w w L.M.F `  . . . .` F N.O.i.i.i.i.i.i.i.P.    ",
"    Q.w w w w w w w w R.G.C.F G G F H S.T.U.i.i.i.i.i.i.i.V.    ",
"      W.w w w w w w w w 7 X.Y.Z.`. +.+++@+i.i.i.i.i.i.i.#+      ",
"      Q.w w w w w w w w w w w w w $+%+&+i.i.i.i.i.i.i.i.V.      ",
"        *+w w w w w w w w w w w =+-+;+>+i.i.i.i.i.i.i.,+        ",
"        '+K.w w w w w w w w w )+!+~+{+i.i.i.i.i.i.i.P.]+        ",
"          '+K.w w w w w w w w ^+/+(+_+i.i.i.i.i.i.P.:+          ",
"            '+*+w w w w w w )+<+[+}+i.i.i.i.i.i.,+]+            ",
"                |+1+w w w w 2+3+4+U.i.i.i.i.5+6+                ",
"                    7+*+w 8+9+0+a+i.i.i.,+b+                    ",
"                        c+d+e+f+z.V.g+h+                        ",
"                                                                "};
