<svg width="90" height="31" xmlns="http://www.w3.org/2000/svg" xmlns:xlink="http://www.w3.org/1999/xlink"><defs><path id="a" d="M20.171.409H0v29.77h40.343V.41z"/><path id="c" d="M3.397 3.575V.07H.257v3.505h3.14z"/></defs><g fill="none" fill-rule="evenodd"><g transform="translate(0 .13)"><mask id="b" fill="#fff"><use xlink:href="#a"/></mask><path d="M31.204 30.18c-1.164 0-2.276-.27-3.405-.823-.886-.438-1.76-1.03-2.84-1.928l-.036-.025a1.608 1.608 0 0 1-.281-.238l-.034-.03a.101.101 0 0 0-.026-.022.558.558 0 0 0-.066-.095v-.007a1.51 1.51 0 0 1-.292-.895c0-.847.69-1.54 1.54-1.54.33 0 .645.104.912.303l.02.006c1.273 1.114 2.673 2.194 4.508 2.194 3.94 0 6.065-2.986 6.065-5.798 0-2.792-2.22-5.81-5.802-5.81-2.295 0-3.838 1.356-5.33 2.665l-.085.074c-.243.212-.49.428-.732.645a91.824 91.824 0 0 1-2.242 1.933c-1.064.873-4.731 4.046-6.298 5.404-.218.187-.437.38-.65.569-1.99 1.756-3.868 3.418-7.261 3.418-2.233 0-4.468-.904-6.13-2.473a8.675 8.675 0 0 1-2.74-6.372c0-3.354 1.574-5.456 2.892-6.627 1.652-1.469 3.826-2.31 5.965-2.31 2.666 0 4.284.909 6.18 2.481l.027.022c.078.052.15.113.215.18l.016.013.001.006c.271.28.42.651.42 1.04 0 .829-.677 1.504-1.506 1.504-.33 0-.645-.106-.91-.308h-.008c-1.422-1.175-2.603-1.854-4.422-1.854-2.784 0-5.789 2.218-5.789 5.8 0 3.2 2.596 5.807 5.789 5.807 2.69 0 3.988-1.457 5.953-3.662.366-.41.745-.835 1.166-1.288.594-.639 2.345-2.457 3.392-3.543.26-.272.48-.499.633-.658 3.35-3.484 4.395-4.58 4.406-4.592l.009-.011c1.646-1.876 2.052-4.269 1.087-6.398a5.88 5.88 0 0 0-5.345-3.445c-3.266 0-5.205 2.472-5.638 4.788l-.013.01a1.553 1.553 0 0 1-1.479 1.104 1.543 1.543 0 0 1-1.477-1.985l.01-.032c.392-1.881 1.36-3.503 2.88-4.82C16.094 1.13 18.018.408 20.17.408c2.469 0 4.695.92 6.434 2.658a8.473 8.473 0 0 1 1.997 3.096c.335.921.507 1.915.515 2.95.012 1.78-.476 3.092-.482 3.104l-.17.6.638-.088a8.565 8.565 0 0 1 2.358-.328c2.254 0 4.49.878 6.134 2.405a8.49 8.49 0 0 1 1.994 2.796c.5 1.132.755 2.368.755 3.68 0 2.408-.905 4.64-2.546 6.281-1.683 1.686-4.024 2.617-6.593 2.617" fill="#00C9C3" mask="url(#b)"/></g><path d="M46.14 6.803h11.317a.493.493 0 0 0 .507-.507v-.033a.503.503 0 0 0-.507-.507H46.141a.503.503 0 0 0-.506.507v.033c0 .29.214.507.506.507M55.728 13.445l.824 3.272c0 .247.118.463-.05.63a.88.88 0 0 1-.617.277h-8.441c-.413 0 .124-1.154.124-1.154l1.466-3.83c-.191-.077-.349-.233-.56-.277-.11-.025-.223-.041-.32-.088l-2.104 5.75c-.046.155 0 .309.106.45.093.12.217.182.387.182h9.342c.248 0 .51-.047.74-.153.463-.2.707-.34.907-.803.122-.247.133-.638.052-.984l-.58-2.307c-.302-.937-1.276-.965-1.276-.965M58.027 10.006H45.571a.511.511 0 0 0-.506.507v.03c0 .277.23.51.506.51h12.456a.513.513 0 0 0 .506-.51v-.03a.511.511 0 0 0-.506-.507M63.603 10.637c.2-.23.369-.477.508-.74l2.554 2.123a.508.508 0 0 0 .708-.044c.094-.123.156-.232.141-.386a.512.512 0 0 0-.187-.354L65.343 9.56h1.784a.504.504 0 0 0 .508-.509v-.03a.502.502 0 0 0-.508-.507h-2.555c.046-.247.063-.493.063-.756l.015-.661h2.293c.277 0 .507-.23.507-.51v-.013c0-.277-.23-.51-.507-.51h-4.848l.03-.107a.456.456 0 0 0 0-.4.491.491 0 0 0-.277-.277h-.03a.489.489 0 0 0-.647.277l-.34.847a.508.508 0 0 0 .477.693h2.295v.66c0 .264-.032.524-.078.757h-2.57c-.277 0-.508.23-.508.507v.03c0 .276.23.51.509.51h2.14a3.2 3.2 0 0 1-.324.447c-.492.536-1.186.997-2.047 1.34a.532.532 0 0 0-.309.643l.016.03c.045.14.153.233.276.294a.662.662 0 0 0 .385.016c1.093-.447 1.924-1 2.51-1.693M73.055 10.53l-.005 1.129s-.501-.53-.927-.53h-2.194c-.354 0-.616-.246-.616-.6V7.187c0-.167.061-.32.168-.43a.653.653 0 0 1 .448-.17h2.509c.185 0 .323.063.431.17.139.11.186.263.186.43v3.344Zm.553-4.497a1.653 1.653 0 0 0-1.17-.494h-2.509c-.677 0-1.246.417-1.508 1.017a1.48 1.48 0 0 0-.124.63v3.344c0 .907.722 1.643 1.632 1.643h2.509c.231 0 .431-.043.631-.136.616-.26 1.017-.83 1.017-1.507V7.186c0-.446-.17-.846-.478-1.153ZM63.055 15.41l.012 1.03h8.268l.006-1.03h-8.286Z" fill="#A7A9AC"/><path d="M72.191 12.99a1.413 1.413 0 0 0-.615-.136h-8.728c-.23 0-.415.046-.615.136a1.65 1.65 0 0 0-1.001 1.51v2.878c0 .679.4 1.248 1 1.527.201.075.386.122.616.122h6.554c1.431 0 1.86-1.03 1.86-1.03h-8.414a.623.623 0 0 1-.415-.17.617.617 0 0 1-.17-.449v-2.877c0-.184.062-.324.17-.447a.625.625 0 0 1 .415-.17h8.728c.155 0 .293.063.414.17.11.123.17.263.17.447v2.877c0 .07.09 1.101-.914 1.65.194-.009 1.817-.111 1.93-1.65v-2.877c0-.664-.383-1.248-.985-1.51M77.969 16.002c-.215.893-.584 1.693-1.062 2.48a.485.485 0 0 1-.338.214.54.54 0 0 1-.4-.094l-.033-.015a.518.518 0 0 1-.124-.674 6.93 6.93 0 0 0 .557-1.034c.17-.353.293-.724.4-1.14a.512.512 0 0 1 .584-.367h.034c.137.03.244.12.335.23a.5.5 0 0 1 .047.4M81.71 5.356c.278 0 .509.247.509.507v.032a.512.512 0 0 1-.508.508h-2.078v.754h1.954c.277 0 .509.216.509.506v.017a.512.512 0 0 1-.51.506h-1.953v.774h2.078c.277 0 .508.23.508.506v.014c0 .28-.231.51-.508.51h-2.078s-.39.72-1.194.72c-.21 0 .257-.389.162-.72h-2.094A.512.512 0 0 1 76 9.48v-.014c0-.276.23-.506.508-.506h2.094v-.774h-1.954a.513.513 0 0 1-.511-.506v-.017c0-.29.232-.506.511-.506h1.954v-.754h-2.094A.511.511 0 0 1 76 5.895v-.032c0-.26.23-.507.508-.507h2.109c.061-.2.248-.37.492-.37h.016a.53.53 0 0 1 .492.37h2.095ZM88.755 5.356c.277 0 .507.247.507.507v.032a.51.51 0 0 1-.507.508h-2.079v.754h1.954c.28 0 .509.216.509.506v.017a.51.51 0 0 1-.509.506h-1.954v.774h2.08a.51.51 0 0 1 .506.506v.014c0 .28-.23.51-.507.51h-2.079s-.389.72-1.193.72c-.213 0 .257-.389.163-.72h-2.095a.513.513 0 0 1-.508-.51v-.014c0-.276.231-.506.508-.506h2.095v-.774h-1.955a.51.51 0 0 1-.508-.506v-.017c0-.29.228-.506.508-.506h1.955v-.754h-2.095a.513.513 0 0 1-.508-.508v-.032c0-.26.231-.507.508-.507h2.11c.06-.2.247-.37.492-.37h.016c.23 0 .43.17.49.37h2.096ZM88.73 11.206a1.294 1.294 0 0 0-.952-.386H76.846a.505.505 0 0 0-.509.51v.03c0 .277.232.507.509.507h10.932c.182 0 .307.14.307.323v1.494c0 .186-.125.326-.307.326H76.846a.502.502 0 0 0-.509.507v.03c0 .26.232.493.509.493h10.932c.367 0 .69-.14.952-.4.277-.247.416-.586.416-.956V12.19c0-.383-.14-.693-.416-.984" fill="#A7A9AC"/><path d="M87.534 12.42H77.458c-.277 0-.493.247-.493.51v.03c0 .277.216.51.493.51h10.076v-1.05ZM80.74 18.917c-.554 0-.986-.17-1.23-.49a1.768 1.768 0 0 1-.402-1.17V15.87c0-.29.233-.507.51-.507h.03c.276 0 .507.217.507.507v1.387c0 .184.031.323.14.447.091.123.246.184.444.184h5.414c.263 0 .508.215.508.506v.017a.52.52 0 0 1-.508.506H80.74Z" fill="#A7A9AC"/><path d="M83.99 16.98c0 .26-.232.507-.509.507h-.015a.515.515 0 0 1-.51-.507v-1.11c0-.29.218-.507.51-.507h.015c.277 0 .509.217.509.508v1.11ZM48.21 12.13a.481.481 0 0 1 .601-.271l.014.003c.25.095.355.375.273.6l-.612 1.644a.456.456 0 0 1-.6.274l-.012-.005a.462.462 0 0 1-.276-.6l.613-1.645ZM89.162 17.917a.502.502 0 0 1-.245.664h-.015c-.25.14-.555.014-.679-.233l-1.14-2.398a.513.513 0 0 1 .231-.68.728.728 0 0 1 .4-.03.49.49 0 0 1 .292.26l1.156 2.417ZM47.494 21.585c-.58 0-1.002.12-1.263.358-.262.237-.393.617-.393 1.14 0 .676.253 1.235.758 1.678.506.442 1.158.663 1.958.663.163 0 .267.017.314.05.046.03.07.086.07.165 0 .074-.027.13-.079.165a.441.441 0 0 1-.242.052c-.964 0-1.75-.262-2.358-.782a2.504 2.504 0 0 1-.912-1.985c0-.324.062-.627.186-.907.123-.28.293-.503.513-.67a1.51 1.51 0 0 1 .599-.275c.234-.055.603-.082 1.104-.082h.821c.087 0 .154.02.2.058a.2.2 0 0 1 .07.162c0 .067-.023.119-.071.155a.318.318 0 0 1-.199.055h-1.076ZM51.893 25.556c0 .086-.02.152-.057.197a.198.198 0 0 1-.16.069c-.07 0-.122-.022-.159-.066-.037-.046-.056-.112-.056-.2v-4.134c0-.087.019-.153.056-.199a.193.193 0 0 1 .159-.068c.069 0 .122.023.16.07a.305.305 0 0 1 .057.197v4.134ZM56.13 22.681c-.34 0-.62.13-.837.389-.217.257-.326.593-.326 1.008 0 .412.11.748.328 1.007.218.26.494.39.828.39.339 0 .618-.131.839-.39.22-.262.33-.596.33-1.007 0-.41-.11-.745-.328-1.005a1.043 1.043 0 0 0-.834-.392m-1.6 1.404c0-.523.15-.952.45-1.287a1.48 1.48 0 0 1 1.15-.501c.465 0 .847.167 1.146.501.299.335.448.764.448 1.287 0 .518-.149.943-.446 1.275-.298.33-.68.496-1.148.496-.467 0-.851-.167-1.15-.498-.3-.332-.45-.756-.45-1.273M62.656 25.3a1.336 1.336 0 0 1-.48.425 1.37 1.37 0 0 1-.626.138c-.4 0-.706-.116-.916-.344-.212-.23-.316-.565-.316-1.003v-1.908c0-.089.018-.157.057-.204a.197.197 0 0 1 .16-.07c.069 0 .122.024.159.07a.325.325 0 0 1 .055.204v1.711c0 .425.067.725.203.9.137.175.36.263.672.263.35 0 .61-.122.778-.367.17-.244.254-.617.254-1.12v-1.387c0-.089.02-.157.059-.204a.203.203 0 0 1 .162-.07c.069 0 .122.024.157.07a.332.332 0 0 1 .053.204v2.94a.336.336 0 0 1-.053.205c-.035.046-.088.069-.157.069a.197.197 0 0 1-.162-.072.311.311 0 0 1-.059-.202v-.247ZM68.37 22.721c-.017 0-.045 0-.083-.003a5.293 5.293 0 0 0-.243-.01c-.553 0-.992.14-1.319.422-.326.28-.489.653-.489 1.118 0 .37.103.653.309.85.206.195.504.293.894.293h.932v-2.67Zm-.006 3.081h-.581c-.388 0-.685-.021-.89-.063a1.325 1.325 0 0 1-.514-.21 1.38 1.38 0 0 1-.459-.538 1.662 1.662 0 0 1-.155-.73c0-.599.21-1.073.628-1.422.419-.35.991-.524 1.717-.524h.158c.035 0 .07 0 .103.002v-.895c0-.087.018-.153.054-.199.035-.045.088-.068.157-.068.075 0 .13.022.166.066.036.045.054.112.054.201v4.1c0 .11-.03.185-.092.223-.061.038-.176.057-.346.057ZM72.495 25.378c.175-.352.329-.743.458-1.173.13-.43.237-.899.324-1.407l.01-.066c.042-.256.117-.385.224-.385.104 0 .176.118.213.355l.017.093c.082.497.189.962.319 1.395.13.433.285.829.463 1.188.176-.303.308-.653.397-1.05.09-.396.134-.828.134-1.296l-.003-.179a4.32 4.32 0 0 1-.003-.151c0-.145.016-.242.05-.29.033-.048.09-.071.17-.071.085 0 .143.037.176.114.032.076.048.236.048.48 0 .408-.042.82-.125 1.234a5.333 5.333 0 0 1-.353 1.132c-.1.225-.182.37-.246.432a.31.31 0 0 1-.225.096c-.17 0-.336-.187-.502-.562-.164-.373-.343-.978-.537-1.81-.185.818-.36 1.416-.526 1.798-.166.382-.334.574-.503.574a.308.308 0 0 1-.212-.079c-.06-.052-.128-.16-.206-.326a5.207 5.207 0 0 1-.394-1.175 6.168 6.168 0 0 1-.144-1.313c0-.234.018-.392.053-.473.034-.082.093-.122.178-.122.074 0 .127.02.162.063s.052.109.052.197v.431c0 .464.045.894.135 1.293.09.399.223.75.396 1.053M78.256 22.628c0-.09.018-.155.056-.2a.194.194 0 0 1 .157-.068c.07 0 .122.023.158.067.035.046.053.112.053.201v2.928c0 .088-.018.154-.053.2-.036.044-.089.066-.158.066-.068 0-.121-.022-.157-.066-.038-.046-.056-.112-.056-.2v-2.928Zm.424-.802c0 .108-.016.185-.05.234-.033.05-.087.074-.16.074a.182.182 0 0 1-.16-.077.4.4 0 0 1-.054-.23c0-.108.017-.185.052-.231.034-.048.089-.07.161-.07.072 0 .125.025.16.074a.4.4 0 0 1 .051.226ZM81.448 25.802a.324.324 0 0 1-.199-.053.18.18 0 0 1-.068-.15c0-.065.023-.114.068-.146a.362.362 0 0 1 .206-.048h1.195c.38 0 .648-.061.805-.18.157-.121.234-.318.234-.593a.62.62 0 0 0-.148-.436c-.099-.108-.252-.181-.46-.222l-1.051-.21c-.299-.06-.502-.14-.609-.239-.107-.099-.16-.239-.16-.42 0-.24.097-.424.29-.552.195-.129.472-.193.832-.193h1.164c.089 0 .156.018.203.054a.18.18 0 0 1 .07.15c0 .063-.024.11-.071.145a.373.373 0 0 1-.21.05h-1.313c-.184 0-.313.021-.384.064-.07.043-.107.118-.107.223 0 .084.023.15.067.197.045.046.118.081.22.103l1.093.217c.339.07.591.19.757.364.166.174.25.404.25.686 0 .398-.131.696-.392.893-.26.198-.657.296-1.19.296h-1.092Z" fill="#A7A9AC"/><g transform="translate(86.228 22.226)"><mask id="d" fill="#fff"><use xlink:href="#c"/></mask><path d="M.768 1.427h2.178C2.933 1.122 2.827.88 2.632.7c-.196-.18-.455-.27-.775-.27-.314 0-.57.09-.767.27-.197.18-.305.423-.322.728Zm2.285 1.758a.35.35 0 0 1 .203.05c.047.033.07.082.07.144a.174.174 0 0 1-.068.147c-.045.034-.114.05-.205.05H2.37c-.35 0-.63-.024-.845-.071a1.644 1.644 0 0 1-.565-.23 1.473 1.473 0 0 1-.516-.602 1.938 1.938 0 0 1-.188-.855c0-.506.153-.923.459-1.253.306-.33.696-.495 1.167-.495.424 0 .782.14 1.075.416.292.278.439.612.439 1.001v.131a.168.168 0 0 1-.054.134c-.035.031-.087.046-.153.046H.728v.02c0 .49.122.84.365 1.051.244.21.658.316 1.241.316h.719Z" fill="#A7A9AC" mask="url(#d)"/></g></g></svg>