<svg width="91" height="67" xmlns="http://www.w3.org/2000/svg"><path d="M70.086 66.571c-2.599 0-5.667-.657-8.203-1.833-2.567-1.185-4.43-2.578-6.49-4.852-1.113-1.232-1.274-2.222-1.274-2.523 0-2.255 1.634-3.66 3.471-3.66 1.794 0 2.846 1.383 2.846 1.383 1.614 2.206 5.542 4.49 9.7 4.49 8.189 0 13.026-6.69 13.026-12.976 0-6.52-5.27-12.977-12.946-12.977-5.636 0-9.087 3.843-9.638 4.327-1.9 1.673-23.89 20.542-24.373 20.952-3.37 2.901-7.96 7.602-16.41 7.602-4.986 0-9.972-2.011-13.684-5.53C2.165 57.248 0 52.18 0 46.712c0-7.505 3.514-12.202 6.458-14.83 3.68-3.289 8.524-5.178 13.3-5.178 5.053 0 9.625 1.734 13.819 5.485l.513.521c.643.674.971 1.502.971 2.373 0 1.856-1.51 3.31-3.352 3.367-1.151.04-2.153-.64-2.153-.64-2.537-2.41-5.716-4.2-9.762-4.2-6.21 0-12.922 4.958-12.922 12.99 0 7.164 5.796 12.99 12.922 12.99 6 0 8.89-3.254 13.282-8.193.822-.912 1.664-1.868 2.597-2.886 1.33-1.427 5.24-5.494 7.578-7.926.575-.603 1.064-1.117 1.41-1.475 7.473-7.799 9.972-10.306 9.972-10.306 3.675-4.201 4.454-9.55 2.301-14.312-2.122-4.685-6.798-7.645-11.926-7.645-7.287 0-11.617 5.46-12.582 10.645-.458 1.477-1.819 2.495-3.328 2.495-1.893 0-3.513-1.419-3.513-3.324 0-.626.11-1.2.11-1.2.892-4.21 3.118-7.884 6.558-10.79C35.704 1.767 40.208 0 45.008 0c5.512 0 10.565 2.206 14.166 5.824C63.788 10.453 65 16.362 65 19.38c0 4.307-.76 6.255-1.626 8.473L65 27.327c1.708-.484 3.502-.695 5.296-.695 5.035 0 9.928 2.044 13.59 5.466a18.948 18.948 0 0 1 4.454 6.252c1.114 2.538 1.787 5.312 1.787 8.25 0 5.386-2.115 10.369-5.777 14.048-3.76 3.773-8.697 5.923-14.264 5.923Z" fill="#6E7F90" fill-rule="evenodd" fill-opacity=".06"/></svg>