<?xml version="1.0" encoding="UTF-8"?>
<svg width="90px" height="31px" viewBox="0 0 90 31" version="1.1" xmlns="http://www.w3.org/2000/svg" xmlns:xlink="http://www.w3.org/1999/xlink">
    <!-- Generator: Sketch 61.2 (89653) - https://sketch.com -->
    <title>logo</title>
    <desc>Created with Sketch.</desc>
    <defs>
        <polygon id="path-1" points="20.1712904 0.408502994 0 0.408502994 0 30.1796407 20.1712904 30.1796407 40.3425808 30.1796407 40.3425808 0.408502994"></polygon>
        <polygon id="path-3" points="3.39682635 3.57542515 3.39682635 0.0702754491 0.256688623 0.0702754491 0.256688623 3.57542515 3.39682635 3.57542515"></polygon>
    </defs>
    <g id="页面1" stroke="none" stroke-width="1" fill="none" fill-rule="evenodd">
        <g id="组织成员管理-新增用户弹窗" transform="translate(-11.000000, -10.000000)">
            <g id="Top-navigation" transform="translate(-439.000000, 0.000000)">
                <g transform="translate(0.000000, 6.000000)" id="logo">
                    <g transform="translate(450.000000, 4.000000)">
                        <g id="Group-3" transform="translate(0.000000, 0.130527)">
                            <mask id="mask-2" fill="white">
                                <use xlink:href="#path-1"></use>
                            </mask>
                            <g id="Clip-2"></g>
                            <path d="M31.2040778,30.1796407 C30.040006,30.1796407 28.9276707,29.9101796 27.7991677,29.3567066 C26.9131796,28.9185629 26.038509,28.3279042 24.958509,27.428982 L24.9229401,27.4041916 C24.8221617,27.3368263 24.7273114,27.2576048 24.6416228,27.165988 L24.6082096,27.1358084 C24.6006647,27.1261078 24.5909641,27.1196407 24.5818024,27.1137126 C24.5618623,27.0765269 24.5408443,27.0490419 24.5160539,27.0188623 L24.5160539,27.0123952 C24.3247365,26.7494012 24.2239581,26.4411377 24.2239581,26.1167066 C24.2239581,25.269521 24.9137784,24.5775449 25.7631198,24.5775449 C26.093479,24.5775449 26.4087485,24.681018 26.6760539,24.8798802 L26.695994,24.8863473 C27.9689281,25.9997605 29.368509,27.0797605 31.2040778,27.0797605 C35.1430599,27.0797605 37.2691078,24.0935928 37.2691078,21.2820359 C37.2691078,18.4898802 35.0498263,15.4724551 31.4670719,15.4724551 C29.1723413,15.4724551 27.6294072,16.8278443 26.1360539,18.1368862 L26.051982,18.2107186 C25.8089281,18.422515 25.5626407,18.6391617 25.3195868,18.8558084 C24.4675509,19.6054491 23.6624012,20.312515 23.0782096,20.7894611 C22.0138383,21.661976 18.347012,24.8346108 16.7803653,26.1926946 C16.5621018,26.3797006 16.3432994,26.5726347 16.1304251,26.7617964 C14.1401856,28.5176048 12.2620419,30.1796407 8.86898802,30.1796407 C6.63569461,30.1796407 4.40078443,29.2764072 2.73820958,27.7070659 C0.972700599,26.0396407 -5.38922156e-05,23.7788623 -5.38922156e-05,21.3348503 C-5.38922156e-05,17.9811377 1.57252096,15.8793413 2.89072455,14.7082635 C4.54305988,13.2391617 6.71653293,12.3979042 8.85551497,12.3979042 C11.5215629,12.3979042 13.1399461,13.3065269 15.0364132,14.8791018 L15.0628204,14.9006587 C15.1409641,14.9529341 15.2126407,15.0138323 15.2783892,15.0811976 L15.294018,15.0935928 L15.2950958,15.099521 C15.5661737,15.3808383 15.7143772,15.7510778 15.7143772,16.1396407 C15.7143772,16.968503 15.0380299,17.6443114 14.2091677,17.6443114 C13.8788084,17.6443114 13.5635389,17.5381437 13.2989281,17.3360479 L13.2913832,17.3360479 C11.8686287,16.1611976 10.6878503,15.4821557 8.86898802,15.4821557 C6.08491617,15.4821557 3.08042515,17.7003593 3.08042515,21.2820359 C3.08042515,24.4821557 5.67641317,27.0894611 8.86898802,27.0894611 C11.5582096,27.0894611 12.857012,25.6322156 14.8224611,23.427485 C15.1883892,23.0168263 15.5672515,22.5916168 15.9881497,22.1389222 C16.5820419,21.5002994 18.333,19.681976 19.3795868,18.5960479 C19.6398862,18.3244311 19.8597665,18.097006 20.0128204,17.938024 C23.3627605,14.4538922 24.4077305,13.3588024 24.418509,13.3464072 L24.4276707,13.3345509 C26.0735389,11.4591018 26.4804251,9.06628743 25.5152156,6.93700599 C24.5667126,4.84437126 22.4681497,3.49221557 20.1701856,3.49221557 C16.9043174,3.49221557 14.9647365,5.9642515 14.531982,8.28 L14.518509,8.28916168 C14.3255749,8.93802395 13.7182096,9.3939521 13.0402455,9.3939521 C12.1898263,9.3939521 11.4989281,8.70251497 11.4989281,7.85155689 C11.4989281,7.70227545 11.5199461,7.5551497 11.5630599,7.40856287 L11.5722216,7.37730539 C11.9650958,5.49592814 12.9335389,3.87431138 14.4538383,2.55610778 C16.0937784,1.13065868 18.0166527,0.408502994 20.1701856,0.408502994 C22.638988,0.408502994 24.8647365,1.32898204 26.6043772,3.06700599 C27.513,3.97562874 28.1828802,5.01898204 28.6005449,6.16311377 C28.9357545,7.08413174 29.1082096,8.07844311 29.1157545,9.11209581 C29.1281497,10.8926946 28.6404251,12.2049701 28.6339581,12.2173653 L28.4631198,12.8171856 L29.1022814,12.7288024 C29.8627006,12.5110778 30.6565329,12.4011377 31.4595269,12.4011377 C33.7143772,12.4011377 35.9492874,13.2790419 37.5935389,14.8058084 C38.4488084,15.6012575 39.1197665,16.5432934 39.5880898,17.6022754 C40.0882096,18.734012 40.3425808,19.9697605 40.3425808,21.2820359 C40.3425808,23.690479 39.4382695,25.9210778 37.7967126,27.5631737 C36.1141976,29.2489222 33.7725808,30.1796407 31.2040778,30.1796407" id="Fill-1" fill="#00C9C3" mask="url(#mask-2)"></path>
                        </g>
                        <path d="M46.1407365,6.80281437 L57.457024,6.80281437 C57.7485808,6.80281437 57.9636108,6.58670659 57.9636108,6.29568862 L57.9636108,6.26335329 C57.9636108,5.98904192 57.7485808,5.75622754 57.457024,5.75622754 L46.1407365,5.75622754 C45.8491796,5.75622754 45.6346886,5.98904192 45.6346886,6.26335329 L45.6346886,6.29568862 C45.6346886,6.58670659 45.8491796,6.80281437 46.1407365,6.80281437" id="Fill-4" fill="#A7A9AC"></path>
                        <path d="M55.7276766,13.4454072 L56.5522275,16.7172036 C56.5522275,16.9640299 56.6702515,17.1801377 56.5021078,17.3477425 C56.3318084,17.5169641 56.1183952,17.6242096 55.8850419,17.6242096 L48.7863593,17.6242096 L47.4439042,17.6242096 C47.0310898,17.6242096 47.5683952,16.4703772 47.5683952,16.4703772 L49.0342635,12.6397186 C48.8429461,12.5626527 48.6850419,12.4069042 48.4737844,12.3632515 C48.3643832,12.3384611 48.2506707,12.3217545 48.1531257,12.2754072 L46.0497126,18.0246287 C46.0044431,18.1803772 46.0497126,18.3339701 46.1558802,18.4740898 C46.2491138,18.5948084 46.3725269,18.6567844 46.5428263,18.6567844 L55.8850419,18.6567844 C56.1329461,18.6567844 56.3948623,18.6104371 56.624982,18.5042695 C57.0879162,18.3032515 57.3320479,18.1642096 57.531988,17.7012754 C57.6537844,17.4539102 57.6651018,17.0626527 57.5837246,16.7172036 L57.0043832,14.4100778 C56.7020479,13.4728922 55.7276766,13.4454072 55.7276766,13.4454072" id="Fill-6" fill="#A7A9AC"></path>
                        <path d="M58.0270419,10.0063293 L45.5714731,10.0063293 C45.2955449,10.0063293 45.0648862,10.2364491 45.0648862,10.5129162 L45.0648862,10.5436347 C45.0648862,10.8201018 45.2955449,11.0529162 45.5714731,11.0529162 L58.0270419,11.0529162 C58.3024311,11.0529162 58.5330898,10.8201018 58.5330898,10.5436347 L58.5330898,10.5129162 C58.5330898,10.2364491 58.3024311,10.0063293 58.0270419,10.0063293" id="Fill-8" fill="#A7A9AC"></path>
                        <path d="M63.6031078,10.6365988 C63.8030479,10.406479 63.9717305,10.1596527 64.1113114,9.89665868 L66.6652635,12.020012 C66.8819102,12.207018 67.1885569,12.1736048 67.3734072,11.9763593 C67.4671796,11.8529461 67.5286168,11.7435449 67.5140659,11.590491 C67.4973593,11.4503713 67.4504731,11.3463593 67.3270599,11.2364192 L65.3432874,9.55929341 L67.1271198,9.55929341 C67.4202934,9.55929341 67.6353234,9.32647904 67.6353234,9.05001198 L67.6353234,9.01983234 C67.6353234,8.74282635 67.4202934,8.51270659 67.1271198,8.51270659 L64.5715509,8.51270659 C64.6184371,8.26641916 64.6346048,8.01959281 64.6346048,7.7565988 L64.6496946,7.09588024 L66.9433473,7.09588024 C67.2203533,7.09588024 67.4504731,6.86576048 67.4504731,6.5865988 L67.4504731,6.57258683 C67.4504731,6.29558084 67.2203533,6.06276647 66.9433473,6.06276647 L62.0946647,6.06276647 L62.1248443,5.95605988 C62.1862814,5.81647904 62.1862814,5.67905389 62.1248443,5.55617964 C62.0779581,5.43276647 61.9717904,5.32605988 61.8478383,5.27917365 L61.8176587,5.27917365 C61.5702934,5.17246707 61.2631078,5.29588024 61.1709521,5.55617964 L60.8308922,6.40282635 C60.708018,6.74019162 60.9397545,7.09588024 61.3083772,7.09588024 L63.6031078,7.09588024 L63.6031078,7.7565988 C63.6031078,8.01959281 63.5713114,8.27989222 63.5249641,8.51270659 L60.9559222,8.51270659 C60.6778383,8.51270659 60.4466407,8.74282635 60.4466407,9.01983234 L60.4466407,9.05001198 C60.4466407,9.32647904 60.6778383,9.55929341 60.9559222,9.55929341 L63.096521,9.55929341 C63.0016707,9.71288623 62.8960419,9.86647904 62.7715509,10.0065988 C62.2800539,10.5433653 61.5864611,11.0036048 60.7247246,11.3463593 C60.4617305,11.4670778 60.3393952,11.7300719 60.4164611,11.9903713 L60.4315509,12.020012 C60.4773593,12.1601317 60.5846048,12.2533653 60.708018,12.3137246 C60.8308922,12.3600719 60.9693952,12.3600719 61.0933473,12.3298922 C62.1862814,11.8831257 63.0167605,11.3301916 63.6031078,10.6365988" id="Fill-10" fill="#A7A9AC"></path>
                        <path d="M73.0547784,10.5297305 L73.0504671,11.6587725 C73.0504671,11.6587725 72.5487305,11.1295509 72.122982,11.1295509 L69.9290299,11.1295509 C69.575497,11.1295509 69.312503,10.8832635 69.312503,10.5297305 L69.312503,7.18625749 C69.312503,7.01919162 69.374479,6.86613772 69.4806467,6.75673653 C69.6062156,6.64949102 69.7436407,6.58643713 69.9290299,6.58643713 L72.4377126,6.58643713 C72.6225629,6.58643713 72.7610659,6.64949102 72.8693892,6.75673653 C73.0078922,6.86613772 73.0547784,7.01919162 73.0547784,7.18625749 L73.0547784,10.5297305 Z M73.6077126,6.03296407 C73.3010659,5.72577844 72.8860958,5.53931138 72.4377126,5.53931138 L69.9290299,5.53931138 C69.2521437,5.53931138 68.682503,5.95643713 68.4205868,6.55625749 C68.3273533,6.75673653 68.2971737,6.97284431 68.2971737,7.18625749 L68.2971737,10.5297305 C68.2971737,11.4367365 69.0193293,12.1734431 69.9290299,12.1734431 L72.4377126,12.1734431 C72.6694491,12.1734431 72.8693892,12.1297904 73.0693293,12.0365569 C73.6847784,11.7762575 74.0857365,11.2060778 74.0857365,10.5297305 L74.0857365,7.18625749 C74.0857365,6.74002994 73.916515,6.33961078 73.6077126,6.03296407 L73.6077126,6.03296407 Z" id="Fill-12" fill="#A7A9AC"></path>
                        <path d="M63.0552395,15.4100479 C63.0552395,15.4127425 63.0665569,16.4404671 63.0665569,16.4404671 L71.3347006,16.4404671 L71.3406287,15.4100479 L63.0552395,15.4100479 Z" id="Fill-14" fill="#A7A9AC"></path>
                        <path d="M72.1911018,12.9904491 C71.9895449,12.8999102 71.8073892,12.8535629 71.5756527,12.8535629 L62.8483473,12.8535629 C62.6176886,12.8535629 62.4333772,12.8999102 62.2328982,12.9904491 C61.6314611,13.2534431 61.2315808,13.8370958 61.2315808,14.500509 L61.2315808,17.3783533 C61.2315808,18.0568563 61.6314611,18.626497 62.2328982,18.9045808 C62.4333772,18.9800299 62.6176886,19.0274551 62.8483473,19.0274551 L69.4016407,19.0274551 C70.833018,19.0274551 71.262,17.9970359 71.262,17.9970359 L62.8483473,17.9970359 C62.6947545,17.9970359 62.5551737,17.933982 62.4333772,17.8267365 C62.324515,17.7173353 62.2630778,17.5642814 62.2630778,17.3783533 L62.2630778,14.500509 C62.2630778,14.3167365 62.324515,14.1771557 62.4333772,14.0537425 C62.5551737,13.9470359 62.6947545,13.883982 62.8483473,13.883982 L71.5756527,13.883982 C71.7308623,13.883982 71.8688263,13.9470359 71.9895449,14.0537425 C72.099485,14.1771557 72.1609222,14.3167365 72.1609222,14.500509 L72.1609222,17.3783533 C72.1609222,17.4484132 72.2498443,18.4793713 71.2458323,19.0274551 C71.4403832,19.0193713 73.0625389,18.916976 73.1762515,17.3783533 L73.1762515,14.500509 C73.1762515,13.8370958 72.7925389,13.2534431 72.1911018,12.9904491" id="Fill-16" fill="#A7A9AC"></path>
                        <path d="M77.9687246,16.0018383 C77.7542335,16.8948323 77.3850719,17.6951317 76.9070479,18.482497 C76.830521,18.586509 76.7221976,18.6792036 76.5686048,18.6959102 C76.4306407,18.7255509 76.2910599,18.6792036 76.1698024,18.6021377 L76.1358503,18.586509 C75.936988,18.4361497 75.875012,18.1424371 76.0124371,17.9128563 C76.2285449,17.5862695 76.4133952,17.2327365 76.5686048,16.8792036 C76.7383653,16.5256707 76.8617784,16.1554311 76.969024,15.7388443 C77.0288443,15.4925569 77.2907605,15.325491 77.5526766,15.3718383 L77.5866287,15.3718383 C77.723515,15.402018 77.8307605,15.4925569 77.9223772,15.6019581 C77.9854311,15.7253713 78.0172275,15.8622575 77.9687246,16.0018383" id="Fill-18" fill="#A7A9AC"></path>
                        <path d="M81.7106766,5.35602395 C81.9876826,5.35602395 82.2188802,5.6028503 82.2188802,5.86261078 L82.2188802,5.89548503 C82.2188802,6.17249102 81.9876826,6.40261078 81.7106766,6.40261078 L79.6325928,6.40261078 L79.6325928,7.15656287 L81.5867246,7.15656287 C81.8642695,7.15656287 82.096006,7.37267066 82.096006,7.6631497 L82.096006,7.67985629 C82.096006,7.95686228 81.8642695,8.18644311 81.5867246,8.18644311 L79.6325928,8.18644311 L79.6325928,8.95979641 L81.7106766,8.95979641 C81.9876826,8.95979641 82.2188802,9.18991617 82.2188802,9.46638323 L82.2188802,9.47985629 C82.2188802,9.75955689 81.9876826,9.98967665 81.7106766,9.98967665 L79.6325928,9.98967665 C79.6325928,9.98967665 79.2429521,10.7107545 78.4388802,10.7107545 C78.2281617,10.7107545 78.696485,10.3211138 78.6005569,9.98967665 L76.5073832,9.98967665 C76.2287605,9.98967665 75.9986407,9.75955689 75.9986407,9.47985629 L75.9986407,9.46638323 C75.9986407,9.18991617 76.2287605,8.95979641 76.5073832,8.95979641 L78.6005569,8.95979641 L78.6005569,8.18644311 L76.6469641,8.18644311 C76.3678024,8.18644311 76.1355269,7.95686228 76.1355269,7.67985629 L76.1355269,7.6631497 C76.1355269,7.37267066 76.3678024,7.15656287 76.6469641,7.15656287 L78.6005569,7.15656287 L78.6005569,6.40261078 L76.5073832,6.40261078 C76.2287605,6.40261078 75.9986407,6.17249102 75.9986407,5.89548503 L75.9986407,5.86261078 C75.9986407,5.6028503 76.2287605,5.35602395 76.5073832,5.35602395 L78.6156467,5.35602395 C78.6770838,5.15608383 78.8635509,4.98578443 79.1076826,4.98578443 L79.1243892,4.98578443 C79.3555868,4.98578443 79.5555269,5.15608383 79.6158862,5.35602395 L81.7106766,5.35602395 Z" id="Fill-20" fill="#A7A9AC"></path>
                        <path d="M88.7550898,5.35602395 C89.0320958,5.35602395 89.2616766,5.6028503 89.2616766,5.86261078 L89.2616766,5.89548503 C89.2616766,6.17249102 89.0320958,6.40261078 88.7550898,6.40261078 L86.6764671,6.40261078 L86.6764671,7.15656287 L88.6300599,7.15656287 C88.9097605,7.15656287 89.1388024,7.37267066 89.1388024,7.6631497 L89.1388024,7.67985629 C89.1388024,7.95686228 88.9097605,8.18644311 88.6300599,8.18644311 L86.6764671,8.18644311 L86.6764671,8.95979641 L88.7550898,8.95979641 C89.0320958,8.95979641 89.2616766,9.18991617 89.2616766,9.46638323 L89.2616766,9.47985629 C89.2616766,9.75955689 89.0320958,9.98967665 88.7550898,9.98967665 L86.6764671,9.98967665 C86.6764671,9.98967665 86.2873653,10.7107545 85.4832934,10.7107545 C85.2704192,10.7107545 85.7403593,10.3211138 85.6460479,9.98967665 L83.5512575,9.98967665 C83.2742515,9.98967665 83.042515,9.75955689 83.042515,9.47985629 L83.042515,9.46638323 C83.042515,9.18991617 83.2742515,8.95979641 83.5512575,8.95979641 L85.6460479,8.95979641 L85.6460479,8.18644311 L83.6908383,8.18644311 C83.4111377,8.18644311 83.1826347,7.95686228 83.1826347,7.67985629 L83.1826347,7.6631497 C83.1826347,7.37267066 83.4111377,7.15656287 83.6908383,7.15656287 L85.6460479,7.15656287 L85.6460479,6.40261078 L83.5512575,6.40261078 C83.2742515,6.40261078 83.042515,6.17249102 83.042515,5.89548503 L83.042515,5.86261078 C83.042515,5.6028503 83.2742515,5.35602395 83.5512575,5.35602395 L85.6611377,5.35602395 C85.721497,5.15608383 85.9079641,4.98578443 86.1531737,4.98578443 L86.1693413,4.98578443 C86.3994611,4.98578443 86.5999401,5.15608383 86.6597605,5.35602395 L88.7550898,5.35602395 Z" id="Fill-22" fill="#A7A9AC"></path>
                        <path d="M88.7298144,11.2062934 C88.4684371,10.9432994 88.1450838,10.8198862 87.7775389,10.8198862 L76.845503,10.8198862 C76.5690359,10.8198862 76.3372994,11.0370719 76.3372994,11.3297066 L76.3372994,11.3598862 C76.3372994,11.6368922 76.5690359,11.867012 76.845503,11.867012 L87.7775389,11.867012 C87.9602335,11.867012 88.0847246,12.0065928 88.0847246,12.1903653 L88.0847246,13.6837186 C88.0847246,13.8701856 87.9602335,14.0097665 87.7775389,14.0097665 L76.845503,14.0097665 C76.5690359,14.0097665 76.3372994,14.2237186 76.3372994,14.5168922 L76.3372994,14.5470719 C76.3372994,14.8073713 76.5690359,15.0401856 76.845503,15.0401856 L87.7775389,15.0401856 C88.1450838,15.0401856 88.4684371,14.9000659 88.7298144,14.6403054 C89.0068204,14.393479 89.1464012,14.0539581 89.1464012,13.6837186 L89.1464012,12.1903653 C89.1464012,11.8066527 89.0068204,11.4973114 88.7298144,11.2062934" id="Fill-24" fill="#A7A9AC"></path>
                        <path d="M87.5340539,12.4204311 L77.4578263,12.4204311 C77.1813593,12.4204311 76.9647126,12.6672575 76.9647126,12.9302515 L76.9647126,12.9598922 C76.9647126,13.2368982 77.1813593,13.4702515 77.4578263,13.4702515 L87.5340539,13.4702515 L87.5340539,12.4204311 Z" id="Fill-26" fill="#A7A9AC"></path>
                        <path d="M80.7391078,18.916976 C80.1861737,18.916976 79.754497,18.7477545 79.5092874,18.4276347 C79.2468323,18.1032036 79.1077904,17.7340419 79.1077904,17.2570958 L79.1077904,15.8704491 C79.1077904,15.5799701 79.3406048,15.3633234 79.6176108,15.3633234 L79.6477904,15.3633234 C79.9242575,15.3633234 80.1554551,15.5799701 80.1554551,15.8704491 L80.1554551,17.2570958 C80.1554551,17.4414072 80.1861737,17.5804491 80.294497,17.7044012 C80.3861138,17.8267365 80.5407844,17.8876347 80.7391078,17.8876347 L86.1531198,17.8876347 C86.4155749,17.8876347 86.6607844,18.1032036 86.6607844,18.3936826 L86.6607844,18.4109281 C86.6607844,18.6873952 86.4155749,18.916976 86.1531198,18.916976 L80.7391078,18.916976 Z" id="Fill-28" fill="#A7A9AC"></path>
                        <path d="M83.989509,16.9802515 C83.989509,17.240012 83.7577725,17.4873772 83.4813054,17.4873772 L83.4656766,17.4873772 C83.1741198,17.4873772 82.9563952,17.240012 82.9563952,16.9802515 L82.9563952,15.8706108 C82.9563952,15.5801317 83.1741198,15.363485 83.4656766,15.363485 L83.4813054,15.363485 C83.7577725,15.363485 83.989509,15.5801317 83.989509,15.8706108 L83.989509,16.9802515 Z" id="Fill-30" fill="#A7A9AC"></path>
                        <path d="M48.2106826,12.1299521 C48.2947545,11.9052216 48.5739162,11.7710299 48.8110419,11.8588743 L48.8250539,11.8615689 C49.0751138,11.957497 49.1796647,12.2366587 49.0977485,12.4613892 L48.4855329,14.1056407 C48.3906826,14.3551617 48.1368503,14.4731856 47.8857126,14.3799521 L47.8738563,14.3745629 C47.6356527,14.2861796 47.5046946,14.0264192 47.5984671,13.7742036 L48.2106826,12.1299521 Z" id="Fill-32" fill="#A7A9AC"></path>
                        <path d="M89.1619222,17.9170599 C89.2702455,18.1644251 89.1780898,18.4570599 88.9167126,18.581012 L88.9016228,18.581012 C88.6526407,18.7200539 88.3465329,18.595024 88.2231198,18.3476587 L87.0838383,15.949994 C86.961503,15.7037066 87.0665928,15.3938263 87.314497,15.2704132 C87.4379102,15.2262216 87.5769521,15.2100539 87.7149162,15.2402335 C87.854497,15.2871198 87.9466527,15.3798144 88.0064731,15.5005329 L89.1619222,17.9170599 Z" id="Fill-34" fill="#A7A9AC"></path>
                        <path d="M47.4944012,21.5852874 C46.9134431,21.5852874 46.492006,21.7043892 46.2306287,21.9431317 C45.9692515,22.1802575 45.8382934,22.5601976 45.8382934,23.0829521 C45.8382934,23.7587605 46.0910479,24.3176228 46.596018,24.7611557 C47.1015269,25.2030719 47.7536228,25.4240299 48.5539222,25.4240299 C48.7166766,25.4240299 48.8206886,25.4407365 48.8675749,25.4736108 C48.9144611,25.5048683 48.9381737,25.5598383 48.9381737,25.638521 C48.9381737,25.7134311 48.9112275,25.769479 48.8589521,25.8039701 C48.8072156,25.839 48.7258383,25.8557066 48.616976,25.8557066 C47.6528443,25.8557066 46.8665569,25.5943293 46.2586527,25.0737305 C45.6512874,24.551515 45.3467964,23.8902575 45.3467964,23.0894192 C45.3467964,22.764988 45.4087725,22.4621138 45.5327246,22.1818743 C45.6561377,21.9021737 45.8264371,21.6790599 46.0457784,21.5114551 C46.2096108,21.3831916 46.4095509,21.2915749 46.644521,21.2371437 C46.8789521,21.1821737 47.2475749,21.1546886 47.7487725,21.1546886 L48.5700898,21.1546886 C48.6573952,21.1546886 48.7236826,21.1746287 48.7705689,21.2128922 C48.8174551,21.2527725 48.8406287,21.3061257 48.8406287,21.3745689 C48.8406287,21.4419341 48.8169162,21.4936707 48.7689521,21.5303174 C48.7204491,21.567503 48.6547006,21.5852874 48.5700898,21.5852874 L47.4944012,21.5852874 Z" id="Fill-36" fill="#A7A9AC"></path>
                        <path d="M51.8925988,25.5556347 C51.8925988,25.6418623 51.8737365,25.7081497 51.836012,25.7534192 C51.7977485,25.7986886 51.7449341,25.8218623 51.6759521,25.8218623 C51.6064311,25.8218623 51.5536168,25.7997665 51.5169701,25.7555749 C51.4797844,25.7103054 51.4614611,25.644018 51.4614611,25.5556347 L51.4614611,21.4221018 C51.4614611,21.3347964 51.4797844,21.268509 51.5169701,21.2232395 C51.5536168,21.1779701 51.6064311,21.1547964 51.6759521,21.1547964 C51.7449341,21.1547964 51.7977485,21.1779701 51.836012,21.2253952 C51.8737365,21.2717425 51.8925988,21.3380299 51.8925988,21.4221018 L51.8925988,25.5556347 Z" id="Fill-38" fill="#A7A9AC"></path>
                        <path d="M56.1297665,22.681024 C55.7891677,22.681024 55.5105449,22.8103653 55.2928204,23.0695868 C55.0756347,23.3271916 54.9673114,23.6629401 54.9673114,24.0779102 C54.9673114,24.4901856 55.0761737,24.8259341 55.294976,25.0851557 C55.5132395,25.3449162 55.7891677,25.4747964 56.1232994,25.4747964 C56.4617425,25.4747964 56.7414431,25.3438383 56.9618623,25.0840778 C57.1822814,24.8232395 57.2927605,24.4885689 57.2927605,24.0779102 C57.2927605,23.6683293 57.1828204,23.3325808 56.964018,23.0728204 C56.7441377,22.8114431 56.4665928,22.681024 56.1297665,22.681024 M54.5297066,24.0849162 C54.5297066,23.5621617 54.6806048,23.1326407 54.9807844,22.7979701 C55.281503,22.4643772 55.6646766,22.2967725 56.1297665,22.2967725 C56.5953952,22.2967725 56.977491,22.4643772 57.2760539,22.7979701 C57.5746168,23.1326407 57.7238982,23.5621617 57.7238982,24.0849162 C57.7238982,24.6028204 57.5751557,25.0280299 57.2776707,25.360006 C56.9801856,25.6903653 56.5980898,25.8558144 56.1297665,25.8558144 C55.662521,25.8558144 55.2788084,25.6892874 54.9791677,25.3578503 C54.6795269,25.0264132 54.5297066,24.6017425 54.5297066,24.0849162" id="Fill-40" fill="#A7A9AC"></path>
                        <path d="M62.6563293,25.3008862 C62.5183653,25.4922036 62.3583054,25.6334012 62.1766886,25.725018 C61.9950719,25.8166347 61.7870479,25.862982 61.5504611,25.862982 C61.1500419,25.862982 60.8439341,25.7471138 60.6337545,25.5186108 C60.422497,25.288491 60.3179461,24.9543593 60.3179461,24.5156766 L60.3179461,22.6084311 C60.3179461,22.5189701 60.3362695,22.4505269 60.3745329,22.4041796 C60.4127964,22.3578323 60.4661497,22.3335808 60.5351317,22.3335808 C60.6035749,22.3335808 60.6569281,22.3578323 60.6935749,22.4041796 C60.7302216,22.4505269 60.7485449,22.5189701 60.7485449,22.6084311 L60.7485449,24.3189701 C60.7485449,24.7441796 60.8164491,25.0438204 60.9522575,25.2189701 C61.0886048,25.3935808 61.3122575,25.4819641 61.6242934,25.4819641 C61.973515,25.4819641 62.2332754,25.3596287 62.4019581,25.115497 C62.5717186,24.8713653 62.6563293,24.4978922 62.6563293,23.9945389 L62.6563293,22.6084311 C62.6563293,22.5189701 62.6757305,22.4505269 62.7145329,22.4041796 C62.7544132,22.3578323 62.8077665,22.3335808 62.8767485,22.3335808 C62.9457305,22.3335808 62.9985449,22.3578323 63.0341138,22.4041796 C63.0696826,22.4505269 63.0874671,22.5189701 63.0874671,22.6084311 L63.0874671,25.5482515 C63.0874671,25.6366347 63.0696826,25.7050778 63.0341138,25.752503 C62.9985449,25.7988503 62.9457305,25.822024 62.8767485,25.822024 C62.8077665,25.822024 62.7544132,25.7988503 62.7145329,25.7503473 C62.6757305,25.7029222 62.6563293,25.6355569 62.6563293,25.5482515 L62.6563293,25.3008862 Z" id="Fill-42" fill="#A7A9AC"></path>
                        <path d="M68.3707904,22.721012 C68.353006,22.721012 68.324982,22.721012 68.2872575,22.7177784 C68.1670778,22.7113114 68.0857006,22.7086168 68.0436647,22.7086168 C67.4912695,22.7086168 67.0520479,22.8481976 66.7254611,23.129515 C66.3994132,23.4092156 66.2361198,23.7832275 66.2361198,24.2483174 C66.2361198,24.6185569 66.338515,24.9009521 66.5449222,25.0976587 C66.7507904,25.2932874 67.0488144,25.3913713 67.438994,25.3913713 L68.3707904,25.3913713 L68.3707904,22.721012 Z M68.3637844,25.8020299 L67.7828263,25.8020299 C67.3953413,25.8020299 67.0983952,25.781012 66.8925269,25.738976 C66.6866587,25.6964012 66.5152814,25.6263413 66.3794731,25.5282575 C66.1768383,25.385982 66.0243234,25.2070599 65.9203114,24.991491 C65.8168383,24.7764611 65.7645629,24.5334072 65.7645629,24.2617904 C65.7645629,23.6619701 65.9742036,23.1882575 66.3929461,22.8390359 C66.8116886,22.4881976 67.384024,22.3146647 68.110491,22.3146647 L68.2678563,22.3146647 C68.3028862,22.3146647 68.3373772,22.3146647 68.3707904,22.3168204 L68.3707904,21.4222096 C68.3707904,21.3349042 68.3885749,21.2686168 68.4246826,21.2233473 C68.4597126,21.1780778 68.5125269,21.1549042 68.581509,21.1549042 C68.6569581,21.1549042 68.7124671,21.177 68.7480359,21.2211916 C68.7841437,21.2664611 68.8019281,21.3327485 68.8019281,21.4222096 L68.8019281,25.5217904 C68.8019281,25.6322695 68.7712096,25.7071796 68.7103114,25.7449042 C68.6488743,25.7831677 68.5335449,25.8020299 68.3637844,25.8020299 L68.3637844,25.8020299 Z" id="Fill-44" fill="#A7A9AC"></path>
                        <path d="M72.4947844,25.3777365 C72.6704731,25.0263593 72.8235269,24.6345629 72.9528683,24.2050419 C73.0822096,23.7744431 73.189994,23.3061198 73.2767605,22.7979162 C73.2789162,22.7833653 73.2821497,22.7612695 73.287,22.7316287 C73.3290359,22.4756407 73.4039461,22.3473772 73.5111916,22.3473772 C73.6152036,22.3473772 73.6868802,22.4654012 73.7240659,22.701988 C73.7310719,22.7407904 73.737,22.7725868 73.7413114,22.7946826 C73.8232275,23.2915689 73.9299341,23.7566587 74.0598144,24.190491 C74.1902335,24.6232455 74.3449042,25.0188144 74.5232874,25.3777365 C74.698976,25.0748623 74.831012,24.7251018 74.9204731,24.3284551 C75.0093952,23.9323473 75.0541257,23.5001317 75.0541257,23.0323473 C75.0541257,22.9881557 75.052509,22.9283353 75.0508922,22.8534251 C75.0481976,22.7790539 75.0476587,22.7283952 75.0476587,22.701988 C75.0476587,22.557018 75.0643653,22.460012 75.0977784,22.4125868 C75.1311916,22.3640838 75.1877784,22.3409102 75.2680778,22.3409102 C75.3526886,22.3409102 75.4108922,22.3780958 75.4437665,22.4546228 C75.4755629,22.5306108 75.4917305,22.6906707 75.4917305,22.9358802 C75.4917305,23.3433054 75.4502335,23.754503 75.3667006,24.1694731 C75.2831677,24.584982 75.1656826,24.9627665 75.0142455,25.3006707 C74.9134671,25.5259401 74.8320898,25.6703713 74.768497,25.7334251 C74.7049042,25.796479 74.629994,25.8293533 74.5432275,25.8293533 C74.3734671,25.8293533 74.2069401,25.6418084 74.041491,25.2672575 C73.8771198,24.8937844 73.6976587,24.2891138 73.5036467,23.457018 C73.3187964,24.2745629 73.1436467,24.8733054 72.9776587,25.2554012 C72.8116707,25.637497 72.6440659,25.8293533 72.4753832,25.8293533 C72.3929281,25.8293533 72.3223293,25.8029461 72.2630479,25.7501317 C72.2037665,25.6978563 72.1353234,25.5895329 72.0571796,25.4240838 C71.8901138,25.0818683 71.7591557,24.6906108 71.6626886,24.2492335 C71.5672994,23.8105509 71.5193353,23.3724072 71.5193353,22.9358802 C71.5193353,22.701988 71.5365808,22.5440838 71.5716108,22.4632455 C71.6061018,22.3807904 71.6653832,22.3409102 71.749994,22.3409102 C71.8238263,22.3409102 71.8771796,22.3619281 71.9116707,22.4039641 C71.9467006,22.4465389 71.9639461,22.5128263 71.9639461,22.6012096 L71.9639461,23.0323473 C71.9639461,23.4958204 72.0092156,23.9264192 72.0992156,24.3252216 C72.1897545,24.724024 72.3217904,25.0748623 72.4947844,25.3777365" id="Fill-46" fill="#A7A9AC"></path>
                        <path d="M78.2560778,22.6283713 C78.2560778,22.5389102 78.2744012,22.4726228 78.3115868,22.4273533 C78.3476946,22.3831617 78.4010479,22.359988 78.469491,22.359988 C78.5384731,22.359988 78.5912874,22.3831617 78.6268563,22.4273533 C78.6624251,22.4726228 78.6802096,22.5389102 78.6802096,22.6283713 L78.6802096,25.5557964 C78.6802096,25.6441796 78.6624251,25.7104671 78.6268563,25.7557365 C78.5912874,25.7999281 78.5384731,25.822024 78.469491,25.822024 C78.4010479,25.822024 78.3476946,25.7999281 78.3115868,25.7557365 C78.2744012,25.7104671 78.2560778,25.6441796 78.2560778,25.5557964 L78.2560778,22.6283713 Z M78.6802096,21.8264551 C78.6802096,21.9337006 78.6640419,22.0113054 78.6300898,22.0598084 C78.5966766,22.1093892 78.5433234,22.1336407 78.469491,22.1336407 C78.3988922,22.1336407 78.345,22.1072335 78.3099701,22.0565749 C78.2738623,22.0053772 78.2560778,21.9283114 78.2560778,21.8264551 C78.2560778,21.7192096 78.2733234,21.6421437 78.3078144,21.5957964 C78.3423054,21.5483713 78.3967365,21.5251976 78.469491,21.5251976 C78.5411677,21.5251976 78.593982,21.5505269 78.6284731,21.6001078 C78.663503,21.6507665 78.6802096,21.7262156 78.6802096,21.8264551 L78.6802096,21.8264551 Z" id="Fill-48" fill="#A7A9AC"></path>
                        <path d="M81.4480599,25.8019222 C81.3618323,25.8019222 81.295006,25.7841377 81.2491976,25.7491078 C81.2039281,25.7135389 81.1812934,25.6628802 81.1812934,25.5987485 C81.1812934,25.5335389 81.2039281,25.4850359 81.2491976,25.4527006 C81.295006,25.4209042 81.3634491,25.4052754 81.4550659,25.4052754 L82.6503952,25.4052754 C83.0297964,25.4052754 83.2976407,25.3438383 83.455006,25.2241976 C83.6118323,25.104018 83.6894371,24.9073114 83.6894371,24.6324611 C83.6894371,24.4492275 83.6398563,24.3042575 83.5412335,24.1964731 C83.4420719,24.0881497 83.289018,24.0148563 83.0815329,23.9744371 L82.0295569,23.7642575 C81.730994,23.7038982 81.5283593,23.6241377 81.4211138,23.524976 C81.3144072,23.4263533 81.2610539,23.2862335 81.2610539,23.1051557 C81.2610539,22.8653353 81.357521,22.681024 81.5515329,22.5527605 C81.7460838,22.4239581 82.0225509,22.3598263 82.3830898,22.3598263 L83.5466228,22.3598263 C83.6355449,22.3598263 83.7034491,22.3776108 83.7497964,22.4137186 C83.7966826,22.4503653 83.8203952,22.4999461 83.8203952,22.5640778 C83.8203952,22.6271317 83.7961437,22.6745569 83.7487186,22.708509 C83.7007545,22.7408443 83.6312335,22.7580898 83.5396168,22.7580898 L82.2262635,22.7580898 C82.0419521,22.7580898 81.9131497,22.7801856 81.842012,22.8232994 C81.7714132,22.8664132 81.7353054,22.9407844 81.7353054,23.0464132 C81.7353054,23.130485 81.7579401,23.1956946 81.8021317,23.2431198 C81.8468623,23.2894671 81.9201557,23.3239581 82.0225509,23.3460539 L83.115485,23.5632395 C83.4539281,23.6327605 83.7061437,23.753479 83.8721317,23.927012 C84.0381198,24.1010838 84.1211138,24.3306647 84.1211138,24.612521 C84.1211138,25.0113234 83.9906946,25.3093473 83.7298563,25.5060539 C83.4695569,25.7038383 83.0734491,25.8019222 82.5404551,25.8019222 L81.4480599,25.8019222 Z" id="Fill-50" fill="#A7A9AC"></path>
                        <g id="Group-54" transform="translate(86.227545, 22.226335)">
                            <mask id="mask-4" fill="white">
                                <use xlink:href="#path-3"></use>
                            </mask>
                            <g id="Clip-53"></g>
                            <path d="M0.767586826,1.42728144 L2.94591018,1.42728144 C2.93297605,1.1222515 2.82734731,0.878658683 2.63225749,0.698658683 C2.43608982,0.518658683 2.17740719,0.42811976 1.8567485,0.42811976 C1.54255689,0.42811976 1.28710778,0.518658683 1.0904012,0.698658683 C0.892616766,0.878658683 0.785371257,1.1222515 0.767586826,1.42728144 L0.767586826,1.42728144 Z M3.05261677,3.18524551 C3.14207784,3.18524551 3.20998204,3.2019521 3.25632934,3.23482635 C3.30321557,3.26823952 3.32692814,3.31674251 3.32692814,3.37871856 C3.32692814,3.4428503 3.30375449,3.49243114 3.25848503,3.52638323 C3.21267665,3.55979641 3.14369461,3.57542515 3.05261677,3.57542515 L2.37141916,3.57542515 C2.02165868,3.57542515 1.74034132,3.5522515 1.5258503,3.50482635 C1.31243713,3.45901796 1.12381437,3.3819521 0.96105988,3.27470659 C0.743335329,3.13243114 0.571419162,2.93141317 0.444772455,2.67273054 C0.319203593,2.41243114 0.256688623,2.12841916 0.256688623,1.818 C0.256688623,1.31249102 0.409742515,0.894826347 0.715850299,0.565005988 C1.02249701,0.235724551 1.4115988,0.0702754491 1.88315569,0.0702754491 C2.3067485,0.0702754491 2.66459281,0.209317365 2.95776647,0.486323353 C3.2504012,0.764407186 3.39698802,1.098 3.39698802,1.4871018 L3.39698802,1.61805988 C3.39698802,1.67572455 3.37920359,1.71991617 3.34309581,1.75171257 C3.30806587,1.78297006 3.25632934,1.79752096 3.18950299,1.79752096 L0.727706587,1.79752096 L0.727706587,1.818 C0.727706587,2.30841916 0.849502994,2.65871856 1.09309581,2.86943713 C1.33722754,3.07961677 1.75111976,3.18524551 2.33423353,3.18524551 L3.05261677,3.18524551 Z" id="Fill-52" fill="#A7A9AC" mask="url(#mask-4)"></path>
                        </g>
                    </g>
                </g>
            </g>
        </g>
    </g>
</svg>